/* XPM */
static char *_33e6731ae3e4df58d2d7fb52052975dQBmd86Zbr0jSMblO[] = {
/* columns rows colors chars-per-pixel */
"64 64 256 2 ",
"   c None",
".  c #1B0218",
"X  c #0F0015",
"o  c #270118",
"O  c #36031A",
"+  c #270725",
"@  c #3A0226",
"#  c #370627",
"$  c #3A1738",
"%  c #32112E",
"&  c #37263C",
"*  c #191926",
"=  c #510819",
"-  c #460329",
";  c #481B39",
":  c #540E32",
">  c #770727",
",  c #6C0F31",
"<  c #472739",
"1  c #5C2323",
"2  c #722A38",
"3  c #5F403D",
"4  c #3B2943",
"5  c #391D40",
"6  c #53094A",
"7  c #730C4D",
"8  c #45364B",
"9  c #4D314C",
"0  c #723151",
"q  c #66007B",
"w  c #542D73",
"e  c #39545B",
"r  c #704857",
"t  c #736552",
"y  c #525467",
"u  c #6E5173",
"i  c #5E657C",
"p  c #6F6B70",
"a  c #5B4A57",
"s  c #82031C",
"d  c #890A2E",
"f  c #922B2F",
"g  c #A82727",
"h  c #CE171C",
"j  c #D8261D",
"k  c #E3361A",
"l  c #D6312C",
"z  c #F03533",
"x  c #E41F35",
"c  c #F34E1D",
"v  c #FB731B",
"b  c #EC4824",
"n  c #F54E32",
"m  c #FA7932",
"M  c #F46535",
"N  c #CC4528",
"B  c #8F0F49",
"V  c #B60C4F",
"C  c #8C314E",
"Z  c #AD3352",
"A  c #AC2E6C",
"S  c #972D61",
"D  c #CC124D",
"F  c #EE1755",
"G  c #D12E4E",
"H  c #F42B50",
"J  c #D60A72",
"K  c #E81A74",
"L  c #ED166F",
"P  c #E72379",
"I  c #F92879",
"U  c #F93472",
"Y  c #D03370",
"T  c #8F4E51",
"R  c #8B4D6F",
"E  c #AC537C",
"W  c #90746E",
"Q  c #A25F63",
"!  c #F34C4D",
"~  c #FE6949",
"^  c #FF7649",
"/  c #F74C73",
"(  c #F66E73",
")  c #CA5769",
"_  c #679074",
"`  c #67B17B",
"'  c #56A57B",
"]  c #69CD7D",
"[  c #76F07C",
"{  c #BF9338",
"}  c #FE8D1C",
"|  c #FCAC1B",
" . c #FC9230",
".. c #FEB829",
"X. c #FCA839",
"o. c #FFB83A",
"O. c #FDA729",
"+. c #CDA33C",
"@. c #FEC72F",
"#. c #FDC837",
"$. c #FBD83C",
"%. c #FEE63C",
"&. c #92A25D",
"*. c #8C8A76",
"=. c #96AE6C",
"-. c #B0AB70",
";. c #89865C",
":. c #FC9745",
">. c #F98A4D",
",. c #FEA645",
"<. c #FEB845",
"1. c #D4B975",
"2. c #F4B070",
"3. c #DD985A",
"4. c #ADC971",
"5. c #93F47C",
"6. c #BEE97E",
"7. c #FECC47",
"8. c #FED846",
"9. c #FADC59",
"0. c #FEE547",
"q. c #FEE655",
"w. c #FFF757",
"e. c #FFF44C",
"r. c #F0CF71",
"t. c #C8FC7A",
"y. c #FBE865",
"u. c #FEFC68",
"i. c #FFFD76",
"p. c #FAE974",
"a. c #DCC471",
"s. c #2C3CAF",
"d. c #61399F",
"f. c #1253B9",
"g. c #294BB6",
"h. c #3055BC",
"j. c #2065BC",
"k. c #6E788B",
"l. c #6258A3",
"z. c #703FC6",
"x. c #125DC4",
"c. c #1867C5",
"v. c #1A77C9",
"b. c #037ECC",
"n. c #2E62C4",
"m. c #6D68D7",
"M. c #5462D3",
"N. c #9C23A8",
"B. c #E6188B",
"V. c #FC3888",
"C. c #F12D8D",
"Z. c #DE259E",
"A. c #996E85",
"S. c #8B6AAB",
"D. c #A559A0",
"F. c #D34C8C",
"G. c #FB4588",
"H. c #FC4894",
"J. c #FE5699",
"K. c #EB4D91",
"L. c #D47193",
"P. c #FC7294",
"I. c #FD5CA6",
"U. c #EA4EAA",
"Y. c #FB67A7",
"T. c #FD76AA",
"R. c #FD77B5",
"E. c #FF6ABA",
"W. c #D665B4",
"Q. c #A224D2",
"!. c #8A57D2",
"~. c #9E6AD6",
"^. c #E36FD8",
"/. c #3C9FAC",
"(. c #728E90",
"). c #7190AF",
"_. c #75B2B4",
"`. c #529893",
"'. c #6BD48A",
"]. c #76EF88",
"[. c #51CEB1",
"{. c #59DD8D",
"}. c #099BCC",
"|. c #1492CC",
" X c #308ECE",
".X c #08A6CD",
"XX c #05B9D3",
"oX c #07A9D6",
"OX c #2698E4",
"+X c #76ADEC",
"@X c #649FE3",
"#X c #06C8D5",
"$X c #0ED0D9",
"%X c #11E6DA",
"&X c #1AEDE5",
"*X c #27F2ED",
"=X c #2ACAE2",
"-X c #77CDCE",
";X c #4BD2F4",
":X c #53F0FC",
">X c #63D4E7",
",X c #8D9496",
"<X c #94B1A7",
"1X c #A6A3A4",
"2X c #F78E94",
"3X c #FD84A7",
"4X c #FC88B6",
"5X c #F897B1",
"6X c #F8ACAE",
"7X c #DAAB8F",
"8X c #8AFB87",
"9X c #99FF89",
"0X c #93E587",
"qX c #A5FE86",
"wX c #B8FA86",
"eX c #94C6B6",
"rX c #BAD0BF",
"tX c #D4D094",
"yX c #D4FA92",
"uX c #FEFA87",
"iX c #FEFD94",
"pX c #EFF093",
"aX c #FFFDB2",
"sX c #FBFDA9",
"dX c #E2CA9D",
"fX c #9FA1EC",
"gX c #FC8AC5",
"hX c #FE94C8",
"jX c #FE99D8",
"kX c #FF86D1",
"lX c #FCA9CA",
"zX c #FEA8D8",
"xX c #FDB8D8",
"cX c #F5B3CF",
"vX c #FEB7E7",
"bX c #FCA7E3",
"nX c #E194D7",
"mX c #B3D2C5",
"MX c #B6EFDA",
"NX c #8DD2EE",
"BX c #AFC5FF",
"VX c #B7FAF0",
"CX c #93E3E5",
"ZX c #CECFCB",
"AX c #FDD7D9",
"SX c #FDC7D2",
"DX c #FDEFD4",
"FX c #FDCFEB",
"GX c #CDFFFB",
"HX c #FDEAE8",
"JX c #FEF9ED",
"KX c #FCE8F9",
"LX c #FFFEF2",
"PX c #FFFFFC",
"IX c #FCF1FC",
"UX c #CDDCDF",
/* pixels */
"                                                                                                                                ",
"                                                                                                                                ",
"                                                                                                                                ",
"                                                                                                                                ",
"                                                                                                                                ",
"                                                                                                                                ",
"                                                                                                                                ",
"                                                                                                                                ",
"                                                                                                                                ",
"                                                                                      r.                                        ",
"                                                                                    iXu.o.                                      ",
"                                                                                  p.w.u.7.g #                                   ",
"                                                                                  9.0.w.7.N O < ; 9                             ",
"                                                                              : Q 7.#.8.<.z , 0 T 0 O                           ",
"                                  a.tX          (.eXMXMXmXrX,Xk.(.(.<X        : Q ,.X.#.:.z :.uXaX2.C #                         ",
"                                  y.r.ZXZX1X,X<XeX<XW C > > > > > > = : r ,XMX< T ^  .,.M M e.u.uX2.G @                         ",
"                              a.y.DXuX9.1.rXMX1XC > d Z ) F.K.K.K.F.Y A 7 = ; % T / n ~ z X.w.w.0.:.D O                         ",
"                              X...p.9.| 1.UXQ s Z L.3XP.H.H.H.V.I I I I V.F.f = % D H H n o.8.7.<.~ D . % & 8                   ",
"                                1... .rXmXf s ( 6X3XJ.T.cX4XR.T.Y.J.G.U P l c b f . B D ! X.,.,.^ H D C B B 7 o a               ",
"                                mXv 2.mXs f 6XSXAXJXHXxXHXxXhXgX4XT.Y.I.! v c c c N o - H ~ ~ ! F / 5XxXFX4XI.E o               ",
"                                  7XdX> C 6XAXLXPXLXLXSXFXKXFXlXhXgXkX/ | .. .v c c b = : H D D J.lXxXxXhXlXH.U.# y             ",
"                                <XmX2 f 6XSXPXLXLXLXJXFXIXIXKXzXxXbX( ..$.@...O.v c b n % - V G.T.3X4XT.Y.J.P K.- y             ",
"                                eXT > 6X5XLXLXLXLXLXHXKXIXKXFXFXbX( 8.e.8.8.#...O.v b l W * , K P V.G.G.V.P J U.#               ",
"                              mX,X= 7XP.cXPXJXLXLXJXvXKXFXvXFXzX>.y.i.u.q.0.8.@...} l W W _ . B J J B.B.Z.U.^.S.o               ",
"                              MX0 C 4XG.SXLXLXLXJXxXzXvXvXFXgX2XuXiXi.i.u.q.8.#...M =.' W *.e % D.D.W.        + $               ",
"                            MX<X= L.H.4XAXHXHXAXlXjXzXvXvXR.6XaXiXuXuXi.i.q.0.@.m 4.[ ] _ W (.* . + + + + . + 8                 ",
"                            MXr 7 Y.V.SXAXR.4XgXhXjXzXjXT.dXaXaXiXuXi.i.u.e.$. .tX5.5.] ` W (.e $ _.(.                          ",
"                            <X- E H.H.4XcXR.gXhXgXjXkXT.pXiXaXsXiXi.i.i.w.0.,.yXqXqX9X].` _ *.k.+ eX                            ",
"                            (.= L.V.J.AXLXhXL.C 0 0 ) uXu.i.iXuXi.w.w.w.q.2.tXt r 3 ` 8X] _ R ~.$ p                             ",
"                              : Y.C.4XAXxXU.0 ZXIX0 O +.u.i.i.w.w.w.w.8.2.yXr nXKXR O _ '.' d.~.w 8                             ",
"                              0 Y.K Y.J.R.S R PXPXR # 2 w.e.e.e.e.w.8.2.sX&.0 PXPXW O < {.l.z.!.l.%                             ",
"                          MX9 0 E.K H.J.R.0 - A.D.6 : : 8.0.0.0.e.#.dXyXyXW - W D.7 : # `. Xh.!.S.#                             ",
"                          MX9 r E.L V.H.I.S @ 6 q l.w : $.8.0.0...dXyXt.yX;.- 6 q l.d.6 /.oXj.m.k.@                             ",
"                          VX9 r R.J C.V.V.A B Q.!.VX@XT %.0.%.O.dXyXt.yXyX4.7 Q.Q.VXfXw $X.Xc.m.).@                             ",
"                          mX9 0 jXJ K C.V.P.lXP.W.fXE #.+.{ ..a.wXt.yX=.4.yX*.Q.nX2X6X5X)..Xc.m.).@                             ",
"                          -Xy ; bXB.J L 3XHXxX5X/ ! @.$.{ = 1.=.- &.6.: &.wX9X-./ 2XlXAX6Xk.x.@X(.#                             ",
"                          -Xk.# cXZ.J K / 3XP.P.G./ #.#.X.T < , Z , < t qXqX8X1XI P.P.3XP.S.x.@Xi ;                             ",
"                          -X_.o 1XE.J G n H U G.G.>.@.} 1.wX5.4.( -.5.qXqX9X[.NXW.U.U.W.~.c.c.>X9 a                             ",
"                            MX$ u bXZ.l c v  . .O...} 3.9X5.9X9X5.9X9X9X8X[.NX:X*X*X=XoXb.f.OX-X@                               ",
"                          GXGX,X% UXF.j k c v } O.} M 0X[ 8X8X8X8X8X9X].[.NX:X*X&X%XXX|.c.x.;Xk.#                               ",
"                        0 a u p o ,X) h j k c c v b =.] ].].].].].].{.>X:X*X&X*X&XXX}.c.f.OX>X- y                               ",
"                      2 2 2 , : # % N h j j k b k Q ` ] '.'.'.{.{.[.;X:X&X&X&X&X#X}.v.f.v.:Xi @ _.                              ",
"                  dXpXy.q.7.,.~ G @ 1 z h j j j g W _ _ ` '.'.{./.=X&X%X%X%X$XXX}.v.f.v.;X_.o (.                                ",
"              O 7Xr.iXu.u.u.8.<.! V X f z h j h S p p p _ _ `. X=X#X#X#X#XXX.X|.v.x.v.;X-XO u                                   ",
"              ; 2Xm q.q.q.7.X.n z ! V X f z h D R t p p p l. X|.}..X.X.X}.|.v.c.c. X:X-X# 9 VXy.y.                              ",
"              ; T.x M m m M n :.8.<.~ B X f ! Z p r t u d.h.j.j.j.v.v.v.c.c.h.M.@X:X_.@ 4   yXiXuX                              ",
"                  G.U F F x <.iXq.7.:.H d . 1 E -Xk.d.d.s.g.g.g.g.g.g.h.M.m.fXBXNXk.o       | p.                                ",
"                    - - B z p.y.7.<.^ D J V @ + `.@XfXM.n.h.g.s.z.z.!.~.fXBXNX(.$ #           ..                                ",
"                  k.k.4 - H <.o.X. .H D H.I J : X % y ).@X+X+X+XfXfXfXfX).y % O                                                 ",
"                      p - L b m n x D P.4XG.P 6 < r % o + 5 8 8 8 8 & + #                                                       ",
"                          K.I F F D Y lX5XJ.C.6 4 A.                                                                            ",
"                            A A B V K.FX4XJ.C.$ 8                                                                               ",
"                            + + X 7 G.lXT.H.F.% 9                                                                               ",
"                                $ 7 I H.J.C.D.+                                                                                 ",
"                                & 6 B.K K B.u +                                                                                 ",
"                                  % U.Z.Z.^.4                                                                                   ",
"                                  . u ^.^.l.o                                                                                   ",
"                                      + +                                                                                       ",
"                                                                                                                                ",
"                                                                                                                                ",
"                                                                                                                                ",
"                                                                                                                                ",
"                                                                                                                                ",
"                                                                                                                                "
};
