/* XPM */
static char *_d7ca9814d4b47b0aec0e21f0aec5371WmhVoeVwvUC3yIzY[] = {
/* columns rows colors chars-per-pixel */
"64 64 256 2 ",
"   c None",
".  c #0E0017",
"X  c #1B0218",
"o  c #14000A",
"O  c #260118",
"+  c #36031A",
"@  c #270725",
"#  c #3A0226",
"$  c #370527",
"%  c #3A1738",
"&  c #32112E",
"*  c #292031",
"=  c #48031A",
"-  c #560A18",
";  c #460329",
":  c #471938",
">  c #540E32",
",  c #770727",
"<  c #6C0F31",
"1  c #472739",
"2  c #5C2323",
"3  c #722A38",
"4  c #5F403D",
"5  c #3B2943",
"6  c #391D40",
"7  c #530C49",
"8  c #730C4D",
"9  c #4C324B",
"0  c #723151",
"q  c #66007B",
"w  c #542D73",
"e  c #39545B",
"r  c #704857",
"t  c #736552",
"y  c #535567",
"u  c #6D5272",
"i  c #5E657C",
"p  c #6F6B70",
"a  c #5B4A57",
"s  c #82031C",
"d  c #870F2C",
"f  c #922B2F",
"g  c #A82727",
"h  c #CE171C",
"j  c #D8261D",
"k  c #E3361A",
"l  c #D6312C",
"z  c #F03533",
"x  c #E41F35",
"c  c #F34E1D",
"v  c #FB731B",
"b  c #EC4824",
"n  c #F54E32",
"m  c #FA7932",
"M  c #F46535",
"N  c #CC4528",
"B  c #8F0F49",
"V  c #B60C4F",
"C  c #8C314E",
"Z  c #AD3352",
"A  c #AC2E6C",
"S  c #972D61",
"D  c #CC124D",
"F  c #EE1755",
"G  c #D12E4E",
"H  c #F42B50",
"J  c #D60A72",
"K  c #E81A74",
"L  c #ED166F",
"P  c #E72379",
"I  c #F92879",
"U  c #F93472",
"Y  c #D03370",
"T  c #8F4E51",
"R  c #8B4D6F",
"E  c #AC537C",
"W  c #90746E",
"Q  c #A25F63",
"!  c #F34C4D",
"~  c #FE6949",
"^  c #FF7649",
"/  c #F74C73",
"(  c #F66E73",
")  c #C95E64",
"_  c #679074",
"`  c #67B17B",
"'  c #56A57B",
"]  c #69CD7D",
"[  c #76F07C",
"{  c #BF9338",
"}  c #FE8D1C",
"|  c #FCAC1B",
" . c #FC9230",
".. c #FEB829",
"X. c #FCA839",
"o. c #FFB83A",
"O. c #FDA729",
"+. c #CDA33C",
"@. c #FEC72F",
"#. c #FDC837",
"$. c #FBD83C",
"%. c #FEE63C",
"&. c #92A25D",
"*. c #8C8A76",
"=. c #96AE6C",
"-. c #B0AB70",
";. c #89865C",
":. c #FC9745",
">. c #F98A4D",
",. c #FEA645",
"<. c #FEB845",
"1. c #D4B975",
"2. c #F7B06E",
"3. c #DD985A",
"4. c #ADC971",
"5. c #93F47C",
"6. c #BEE97E",
"7. c #FECC47",
"8. c #FED846",
"9. c #FADC59",
"0. c #FEE547",
"q. c #FEE655",
"w. c #FEF353",
"e. c #FFFA59",
"r. c #FFF44C",
"t. c #F0CF71",
"y. c #C8FC7A",
"u. c #FBE865",
"i. c #FEFC68",
"p. c #FFFD76",
"a. c #FDE977",
"s. c #2C3CAF",
"d. c #61399F",
"f. c #1253B9",
"g. c #294BB6",
"h. c #3055BC",
"j. c #2065BC",
"k. c #6D768C",
"l. c #6258A3",
"z. c #703FC6",
"x. c #145CC5",
"c. c #0A5FC2",
"v. c #1867C5",
"b. c #1A77C9",
"n. c #037ECC",
"m. c #2E62C4",
"M. c #5A69D9",
"N. c #6D68D7",
"B. c #4955C6",
"V. c #9C23A8",
"C. c #E6188B",
"Z. c #FC3888",
"A. c #F12D8D",
"S. c #DE259E",
"D. c #996E85",
"F. c #9B5EA3",
"G. c #D34C8C",
"H. c #FB4588",
"J. c #FC4894",
"K. c #FE5699",
"L. c #EB4D91",
"P. c #D47193",
"I. c #FC7294",
"U. c #FD5CA6",
"Y. c #EA4EAA",
"T. c #FB67A7",
"R. c #FD76AA",
"E. c #FD77B5",
"W. c #FF6ABA",
"Q. c #D665B4",
"!. c #A224D2",
"~. c #8A57D2",
"^. c #9E6AD6",
"/. c #E36FD8",
"(. c #3C9FAC",
"). c #6F8C8E",
"_. c #718FB0",
"`. c #73AFB4",
"'. c #529893",
"]. c #58D78F",
"[. c #6BD48A",
"{. c #76EF88",
"}. c #51CEB1",
"|. c #5CE989",
" X c #099BCC",
".X c #1492CC",
"XX c #308ECE",
"oX c #08A6CD",
"OX c #05B9D3",
"+X c #07A9D6",
"@X c #2698E4",
"#X c #76ADEC",
"$X c #649FE3",
"%X c #06C8D5",
"&X c #0ED0D9",
"*X c #11E6DA",
"=X c #1AEDE5",
"-X c #27F2ED",
";X c #2ACAE2",
":X c #77CDCE",
">X c #4BD2F4",
",X c #53F0FC",
"<X c #63D4E7",
"1X c #8F9297",
"2X c #93B0A8",
"3X c #ABA0A8",
"4X c #F78E94",
"5X c #FD84A7",
"6X c #FC88B6",
"7X c #F897B1",
"8X c #F8ACAE",
"9X c #DAAB8F",
"0X c #8AFB87",
"qX c #99FF89",
"wX c #93E587",
"eX c #A5FE86",
"rX c #B8FA86",
"tX c #9ECBBC",
"yX c #D0D490",
"uX c #D3FB91",
"iX c #FEFB87",
"pX c #FEFD94",
"aX c #EFF093",
"sX c #FFFDB2",
"dX c #FBFDA9",
"fX c #E4CDA0",
"gX c #9FA1EC",
"hX c #FC8AC5",
"jX c #FE94C8",
"kX c #FE99D8",
"lX c #FF86D1",
"zX c #FCA9CA",
"xX c #FEA8D8",
"cX c #FDB8D8",
"vX c #F5B3CF",
"bX c #FEB7E7",
"nX c #FCA7E3",
"mX c #E194D7",
"MX c #B1CCC3",
"NX c #B5EFDA",
"BX c #8DD2EE",
"VX c #AFC5FF",
"CX c #B8FBF2",
"ZX c #93E3E5",
"AX c #FDD7D9",
"SX c #FDC7D2",
"DX c #FEC5E6",
"FX c #FDD4ED",
"GX c #CDFFFB",
"HX c #FDEAE8",
"JX c #FEF9ED",
"KX c #FCE8F9",
"LX c #FFFEF2",
"PX c #FFFFFC",
"IX c #FCF1FC",
"UX c #D8D8DB",
/* pixels */
"                                                                                                                                ",
"                                                                                                                                ",
"                                                                                                                                ",
"                                                                                                                                ",
"                                                                                    fXt.) =                                     ",
"                                                                                    pXi.o.d :                                   ",
"                                                                                  a.e.i.7.g $                                   ",
"                                                                                  9.0.w.7.N + 1 : 9                             ",
"                                                                              > Q 7.#.8.<.z < 0 T 0 +                           ",
"                                  t.yX                    MX1Xk.).).          : Q ,.X.#.:.z :.iXsX2.C $                         ",
"                                  u.t.        2XtX2XW C , , , , , , - > r 1XNX1 T ^  .,.M M w.i.iX2.G #                         ",
"                                u.  iX9.1.MXNX3XC s d Z ) G.L.L.L.G.Y A 8 = : & T / n ^ z X.e.e.0.:.D +                         ",
"                              X...a.9.| 1.UXQ s Z P.5XI.J.J.H.Z.I I I I Z.G.f = & D H H n o.7.7.<.~ D X * 6 5                   ",
"                                  .. .MXMXf s ) 8X5XK.R.vX6XR.R.T.K.H.U P l c b f X B D n X.,.,.^ H D C B B < O a               ",
"                                  v 1.MXs f 8XSXAXJXHXcXHXcXhXhX6XR.T.U.! v c c c N O ; H ~ ~ ! F / 7XcXFX6XU.E O               ",
"                                  9XfX, C 8XAXLXPXLXLXDXDXKXFXxXjX6XlX/ | ..} v c c b - > H D D K.zXcXcXjXzXJ.L.$ y             ",
"                                  MX3 C 8XSXPXLXLXLXJXFXIXIXKXxXcXnX( ..$.@...O.v c b n & ; V H.R.6X6XR.T.K.P L.; y             ",
"                                  T , 8X7XLXLXLXLXLXHXKXIXKXDXDXnX( 8.w.8.8.#...O.v b l W * < K I Z.H.J.Z.P J Y.$               ",
"                                1X- 9XI.vXPXLXLXLXHXcXKXFXbXFXxX>.u.p.i.q.0.8.@...} l W W _ X B J J C.C.S.Y./.  O               ",
"                              NX3 C 6XH.SXLXLXLXJXcXxXbXbXFXlX4XiXiXp.p.i.q.8.#...M =.' p *.e & F.F.Q.        @ %               ",
"                              2X- P.J.6XAXHXHXAXzXkXxXbXbXE.8XsXpXiXiXp.i.q.0.@.m 4.[ ] _ W ).@ X @ @ @ O O @                   ",
"                            NXr 8 T.Z.SXAXE.6XhXjXkXxXkXR.fXsXsXpXiXiXp.i.w.$. .yX5.5.] ` W ).e % `.).                          ",
"                            2X; E J.J.6XvXE.hXjXhXkXlXR.aXpXsXdXpXp.p.p.e.0.,.uXeXeXqX{.` *.*.k.@ tX                            ",
"                            ).= P.Z.K.AXLXjXP.C 0 0 ) iXi.p.pXiXp.e.e.e.q.2.yXt r 4 ` 0X] _ R ^.% p                             ",
"                            u > T.A.6XAXcXY.0 UXIX0 + +.i.p.p.i.e.e.e.8.2.aXr mXKXR + _ [.' d.^.w 9                             ",
"                            9 0 T.K U.K.W.S R PXPXR $ 3 e.w.w.w.w.e.8.2.dX&.0 PXPXW + 1 ].l.z.~.l.&                             ",
"                          NX9 0 W.K J.K.W.0 ; D.V.7 > : $.0.0.0.r.#.9XuXuXW ; D.F.8 > & '.XXh.~.F.$                             ",
"                          NX9 r W.J Z.J.U.S # 7 q l.w > $.0.0.0...fXuXy.uX;.# 7 q l.d.7 (.+Xj.N.k.#                             ",
"                          CX9 r E.J A.Z.Z.A B V.~.CX$XT %.0.%.O.fXuXy.uXuX4.8 !.!.CXgXw &XoXv.N._.#                             ",
"                          tX9 0 kXJ K A.Z.I.zXI.Q.gXE #.+.{ ..t.rXy.uX=.4.y.*.!.mX4X8X7X_.+Xv.N._.#                             ",
"                          :Xy : nXC.J L 5XHXcX7X( ! @.$.{ - 1.=.+ &.6.> &.rX5.-./ 4XzXFX8Xk.x.$X).$                             ",
"                          :Xk.$ nXS.J K / 5XI.I.H./ #.#.X.T 1 < Z < 1 t eXeX0X3XI I.I.5XI.F.x.$Xi :                             ",
"                          :X`.O 3XW.J G n H U H.H.>.@. .1.rX5.4.( -.5.eXeXqX}.BXQ.Y.Y.Q.^.v.x.<X9 a                             ",
"                            NX% u nXS.l c v  . .O...} 3.qX5.eXqX5.qXqXqX0X}.BX,X-X-X;X+Xn.f.@X:X#                               ",
"                          GXGX1X& UXG.j z c v } O.} M wX[ 0X0X0X0X0XqX{.}.BX,X-X-X=XOX.Xv.c.>Xk.$                               ",
"                        0 a u p O 1X) h j k b c v b =.[.{.{.{.{.{.{.].<X,X-X-X-X-X%X Xv.f.@X<X; y                               ",
"                      3 3 3 < > $ & N h j j k b k Q ` ` [.[.[.|.|.}.>X,X=X=X=X=X%X Xb.f.b.,Xi $                                 ",
"                    aXu.q.7.,.~ G # 2 z h j j j g W _ _ ` [.[.].(.;X=X*X*X*X%XOX Xb.f.v.>X`.+                                   ",
"              + 9Xt.pXi.i.i.8.<.! V . f z h j h S p p p _ _ '.XX;X%X%X%X%XOXoX.Xb.x.b.>X:X+ u                                   ",
"              : 4Xm q.q.q.7.X.n z ! V . f z h D R t p p p l.XX.X XoXoXoX X.Xb.v.v.XX,X:X& 9   u.                                ",
"                R.x M m m M n :.8.<.~ B . f ! Z p r t u l.h.j.j.b.b.b.b.v.v.m.M.$X,X`.$ 5     aX                                ",
"                  H.H F F x <.pXq.7.:.H d X 2 E :Xk.d.d.s.g.g.g.g.g.g.h.B.N.gXVXBXk.O       |                                   ",
"                    ; ; B z a.u.7.<.^ D J V # @ '.$XgXM.B.h.g.s.z.z.~.^.gXVXBX).% $                                             ",
"                    k.5 ; H <.o.X. .H D J.I J > o & y _.$X#X#X#XgXgXgXgX                                                        ",
"                      p ; L b m n x D I.5XH.P 7 5 r & O @ 6 9 9 9                                                               ",
"                        @ L.I F F D Y zX7XK.A.7 5 D.                                                                            ",
"                          7 A A B V L.FX6XK.A.% 9                                                                               ",
"                            @ @ . 8 J.zXR.J.G.& 9                                                                               ",
"                              1X% 8 I J.K.A.F.@                                                                                 ",
"                                1 7 C.K K C.u @                                                                                 ",
"                                9 & Y.S.S./.6 :                                                                                 ",
"                                  X u /./.l.O                                                                                   ",
"                                    O @ @ O                                                                                     ",
"                                                                                                                                ",
"                                                                                                                                ",
"                                                                                                                                ",
"                                                                                                                                ",
"                                                                                                                                ",
"                                                                                                                                ",
"                                                                                                                                ",
"                                                                                                                                ",
"                                                                                                                                ",
"                                                                                                                                ",
"                                                                                                                                "
};
