/* XPM */
static char *_5bedd0371954431a4f93282a7694b44Yj5HXfOk7WTauPRs[] = {
/* columns rows colors chars-per-pixel */
"64 64 256 2 ",
"   c #000001",
".  c #08060A",
"X  c #0E0D0D",
"o  c #090715",
"O  c #180818",
"+  c #191619",
"@  c #251417",
"#  c #301415",
"$  c #312717",
"%  c #180825",
"&  c #191426",
"*  c #0E1330",
"=  c #271928",
"-  c #261836",
";  c #311130",
":  c #182A38",
">  c #292528",
",  c #312B35",
"<  c #36283A",
"1  c #49291A",
"2  c #471431",
"3  c #512E31",
"4  c #6B3534",
"5  c #30433F",
"6  c #5E4929",
"7  c #0D1E48",
"8  c #351A4B",
"9  c #321552",
"0  c #112E50",
"q  c #372E4D",
"w  c #3D0E66",
"e  c #1B3370",
"r  c #302E6B",
"t  c #4C154E",
"y  c #690A58",
"u  c #45235A",
"i  c #4B3251",
"p  c #703251",
"a  c #43186B",
"s  c #761273",
"d  c #4A2769",
"f  c #552B6F",
"g  c #6A2F6E",
"h  c #26595E",
"j  c #514F55",
"k  c #6D5A56",
"l  c #52466B",
"z  c #6A5570",
"x  c #54706B",
"c  c #6E686E",
"v  c #A46335",
"b  c #91176E",
"n  c #952C63",
"m  c #8B4F56",
"M  c #A56D4D",
"N  c #A16154",
"B  c #905170",
"V  c #AD5676",
"C  c #916D6B",
"Z  c #AB7172",
"A  c #DA6C6F",
"S  c #1C9371",
"D  c #59847B",
"F  c #9F9167",
"G  c #AC897A",
"H  c #CAA048",
"J  c #FCDF65",
"K  c #1E3A8A",
"L  c #2B348B",
"P  c #721A88",
"I  c #513089",
"U  c #6D3490",
"Y  c #7B3AA7",
"T  c #274B97",
"R  c #3852B5",
"E  c #2D6BB3",
"W  c #574E8D",
"Q  c #72548F",
"!  c #765A8A",
"~  c #576E82",
"^  c #5B7486",
"/  c #786789",
"(  c #697983",
")  c #767A84",
"_  c #6E6F93",
"`  c #7C6392",
"'  c #7D6896",
"]  c #5D58A9",
"[  c #6C45B3",
"{  c #3758C7",
"}  c #3C69D4",
"|  c #3F75EC",
" . c #5653CC",
".. c #466ED6",
"X. c #4378E8",
"o. c #4378ED",
"O. c #93399F",
"+. c #B43688",
"@. c #8B3DAB",
"#. c #DD37A0",
"$. c #855C90",
"%. c #AE5287",
"&. c #847D88",
"*. c #836494",
"=. c #816996",
"-. c #8A6F90",
";. c #87669E",
":. c #836A98",
">. c #8C44B7",
",. c #B14BB4",
"<. c #9070AC",
"1. c #9A77B6",
"2. c #9D74BB",
"3. c #BE6CB0",
"4. c #A276BC",
"5. c #A17ABC",
"6. c #CF4A93",
"7. c #EA549C",
"8. c #CD6F8F",
"9. c #F26F96",
"0. c #CE55B6",
"q. c #F354AC",
"w. c #D371BA",
"e. c #F16AAE",
"r. c #FA79A8",
"t. c #FC79B8",
"y. c #8949C7",
"u. c #9550D3",
"i. c #AE50CF",
"p. c #8D70C6",
"a. c #A77BC6",
"s. c #965BE8",
"d. c #A757E7",
"f. c #B559EA",
"g. c #B270E8",
"h. c #CC57CC",
"j. c #CA62D2",
"k. c #F67AC8",
"l. c #D175E4",
"z. c #368C82",
"x. c #359C8D",
"c. c #3A9C8D",
"v. c #3B9F90",
"b. c #35A28E",
"n. c #3DA393",
"m. c #39A794",
"M. c #488889",
"N. c #528F8B",
"B. c #499E97",
"V. c #5D9892",
"C. c #768A8D",
"Z. c #78918F",
"A. c #748B90",
"S. c #689090",
"D. c #759694",
"F. c #7C9191",
"G. c #41A394",
"H. c #4CA495",
"J. c #44A99B",
"K. c #58A99A",
"L. c #67A89B",
"P. c #6CAA9C",
"I. c #77A79E",
"U. c #74AB9E",
"Y. c #79B09F",
"T. c #6E8FAC",
"R. c #5AAAA2",
"E. c #68AAA1",
"W. c #7CA4A3",
"Q. c #76ADA1",
"!. c #79ADA2",
"~. c #7AB2A4",
"^. c #79B3A6",
"/. c #369CCF",
"(. c #4D8AEF",
"). c #6F99E2",
"_. c #57AAF2",
"`. c #71B3EA",
"'. c #6DD0F8",
"]. c #5CE5FF",
"[. c #6DEEFD",
"{. c #77E6FF",
"}. c #85858D",
"|. c #88858D",
" X c #99899C",
".X c #889094",
"XX c #98969B",
"oX c #AA8B97",
"OX c #B5AB90",
"+X c #8F8DAD",
"@X c #8398A7",
"#X c #9486B6",
"$X c #A794A8",
"%X c #94A4A6",
"&X c #8AB0AF",
"*X c #ABA5B1",
"=X c #A5BABC",
"-X c #BBB6B9",
";X c #F78E95",
":X c #CFB099",
">X c #D78CAE",
",X c #FB88AA",
"<X c #EA92AE",
"1X c #FE94AC",
"2X c #F698AC",
"3X c #FF9BAE",
"4X c #FD87B6",
"5X c #FD99B6",
"6X c #CEB7A7",
"7X c #FDA6B6",
"8X c #F4B1B2",
"9X c #D7C6A8",
"0X c #F4CFB8",
"qX c #FDDABE",
"wX c #EDE9A5",
"eX c #FDE7BD",
"rX c #9B90C4",
"tX c #AA82C7",
"yX c #BA94CC",
"uX c #B28CD1",
"iX c #B7B7CD",
"pX c #B68AF8",
"aX c #B5B3EC",
"sX c #FE87C6",
"dX c #FA8ECE",
"fX c #CDB6D1",
"gX c #FBB5CE",
"hX c #D99BEC",
"jX c #C78FFD",
"kX c #F7B3E7",
"lX c #ABC2DD",
"zX c #85FDFF",
"xX c #ADF2F6",
"cX c #CCC6C5",
"vX c #CDCCCA",
"bX c #D4CAC9",
"nX c #D5D1CC",
"mX c #CDCCD3",
"MX c #F6CDCC",
"NX c #FBC5DC",
"BX c #FDE8C5",
"VX c #FFF5CB",
"CX c #FCEED6",
"ZX c #D6CDE4",
"AX c #E6D6EA",
"SX c #EFD0EB",
"DX c #F5D2F3",
"FX c #FAD6F5",
"GX c #FCDAF7",
"HX c #FFDCFB",
"JX c #D6FCFC",
"KX c #FDFEE9",
"LX c #ECECF4",
"PX c #FFE2FD",
"IX c #FCEBFB",
"UX c #FEFDFC",
/* pixels */
".X}.}.}.}.}.}.}.}.}.XXnXnXnXnXnXnXnXnX.X}.}.}.}.}.}.}.}.|.|.|.|.&.XXnXnXnXnXXX&.|.|.|.|.}.|.|.}.}.}.}.}.}.}.&.XXnXnXnXnXnXnXnXnX",
"}.}./ / / / / / / / ) %X%X%X%X%X%X%X%XC.) ) ) ) ) ) ) ) ( ( ( ( ( C.%X%X%X%XC.( ( ( ( ( ( ( ( ) ) ) ) ) ) ) ) ) $X$X$X$X$X$X$X$X",
"}.}./ ` ` ` ` ` ` ` / x.x.x.x.x.x.x.x.P.I.I.I.I.I.U.U.I.G.v.v.v.v.c.x.x.x.x.n.n.n.n.n.n.n.n.G.Q.I.U.U.U.U.U.Q.A.! ! ! ! ! ! ! ! ",
"}.}./ :.=.=.=.=.=.:./ G.G.G.G.G.G.G.G.Q.!.!.!.!.!.!.!.!.H.n.G.G.G.G.G.G.G.G.G.G.G.G.G.G.G.G.H.!.!.!.!.!.!.!.~.A.*.:.=.=.=.=.=.:.",
"}.}./ :.=.=.=.=.=.:./ B.G.G.n.n.n.G.G.U.!.!.!.!.!.!.!.!.H.n.n.n.n.n.n.n.n.n.G.G.G.n.G.G.n.n.H.!.Q.!.!.Q.!.!.~.A.` =.=.=.=.=.=.:.",
"}.}./ :.=.=.=.=.=.:./ B.G.G.G.G.G.G.G.U.!.!.!.!.!.!.!.!.H.n.G.n.n.G.n.n.n.n.G.G.n.n.n.n.n.n.H.!.Q.Q.!.!.!.!.~.A.` =.=.=.:.=.:.:.",
"}.}./ :.=.=.=.=.=.:./ G.G.n.n.n.G.G.G.U.Y.Y.!.!.!.!.!.!.H.n.G.G.n.n.n.n.n.n.G.G.G.n.n.n.n.n.H.!.!.!.Q.!.!.!.Q.A.` =.=.:.:.:.:.:.",
"}.) ! *.` ` ` ` ` *./ c.n.n.n.n.n.n.n.P.Y.U.!.!.!.Q.I.I.H.v.v.v.n.n.v.v.v.v.G.G.G.G.G.G.G.G.H.U.U.U.U.U.U.U.Q.A.! *.$.$.$.$.$.` ",
"-X-XN.M.M.M.M.M.M.M.V.ZXZXZXZXZXZXZXZXAXfX1.#X1.1.#XtXtXZXAXAXLXAXZXAXAXAXAXyXrXrX#X1.1.1.#XZXAXAXAXAXAXAXAXAXiXz.M.M.M.M.M.M.M.",
"vXbXV.m.n.n.n.n.n.m.R.HXHXHXHXHXHXHXHXPXkX2.2.a.a.<.z q , , < c fXFXoXj , , - i ! 1.tXa.2.4.FXPXHXHXHXHXHXHXPXmXb.G.n.n.n.n.n.m.",
"vXcXV.m.G.G.G.G.G.n.K.FXHXGXGXGXFXGXGXPXkX2.tX;.<     X > ; ; .   X   O ; , > X     i <.tX5.DXHXHXHXHXGXGXGXPXiXx.G.G.G.n.G.G.n.",
"vXcXV.m.G.G.G.G.G.n.R.FXHXGXHXHXHXHXHXHXSX4.l   . c -XNXgXgXt.#.b t +.q.sXgXgXMX*Xj     l tXDXHXHXHXHXHXHXFXPXiXx.G.n.G.n.G.G.n.",
"vXcXV.m.G.G.G.n.G.n.K.FXHXHXHXHXHXHXFXPXZX=   x nXNX5X,Xr.r.r.e.7.#.q.r.r.r.r.,X5XNXbXj   < DXPXFXHXHXHXHXGXHXiXx.G.G.n.n.n.G.n.",
"vXcXV.m.G.G.G.G.G.n.K.FXHXGXGXHXHXFXPXAX> X *XFX1X,X,Xr.r.r.r.r.7.6.e.r.r.,Xr.r.,X,X5XFXXX  < DXHXFXHXHXHXFXHXiXx.G.G.G.G.G.G.n.",
"nXbXV.m.n.n.n.n.n.x.K.HXPXPXPXPXPXPXSX> X mXgX9.1Xr.r.,X1X1X1X3X1X1X3X3X1X1X1X,Xr.,X1Xr.gX-X  < GXPXHXHXPXHXPXiXx.G.n.n.n.n.n.m.",
"%XXXD.P.P.P.P.P.P.L.Q.yXyXyXyXyXyXyX<   vXKXMX7X9.9.1X1X1X1X1X1X1X1X1X1X3X1X1X1X1Xr.9.7XMXKX-X  i fXyXyXyXyXyX#XL.P.L.L.L.P.P.L.",
"C.) Z.~.!.!.!.!.!.!.W.2.2.2.2.1.a.i   XXNXVXKX7X,X7X1X1X7X1X1X3X3X7X3X3X1X3X7X1X1X7X,XgXKXCXNX.X  l a.1.1.1.2.#XY.!.!.!.!.!.!.!.",
"}.&.Z.~.!.!.!.!.!.Q.W.5.5.5.5.a.<.  j dX7.5X<X5XKX8X1X,X1X7X1X1X7X7X3X1X1X7X,X,X,XMXKX2X7X4X7.dXj . 1.5.5.5.4.#XU.!.!.!.!.!.!.Q.",
"}.&.Z.~.!.!.!.!.!.Q.W.5.5.5.2.tX< X yXq.t.6.7.gXCX5X7XV MXKXCXMX7X3X7XMXCXKX8XV 7X7XCX7X7.6.t.q.$X  i tX2.5.4.#XQ.!.!.!.!.!.!.Q.",
"}.&.Z.~.!.!.!.!.!.Q.W.5.5.2.a.<.  j 0.4 n 6.,X1X1X5X>Xp 7XMXMXCX7X1XgXCXMXMX,Xp ,X1X1X1X,X6.p i 0.i   1.5.5.4.#XU.!.!.!.!.!.!.Q.",
"}.&.Z.~.Q.!.!.!.!.Q.W.2.4.1.tXl   ,.s v 1 0.4X1X1X5X%.t t.,Xr.1X3X3X1X,Xr.,Xe.; 8.5X5X,X4X6.0 z.s >.  z tX2.4.#XU.!.!.!.!.!.!.Q.",
"}.) A.~.!.!.!.!.!.!.W.2.2.1.5.& o g 6 wXF 4 V 4X,Xk.g ; h.4Xr.,X,X,X4Xr.r.t.,.. n t.,X4XV j &XxXh d . , a.2.4.#X!.!.!.!.!.!.!.!.",
"*X*XS.H.H.H.H.H.H.H.V.2.2.5.;.  - 1 H J J 6 3 4Xr.h.& . ,.0.e.r.4X4X4Xr.e.h.O.  t h.r.t.< E zXxX/.0 % . <.5.4.+XH.H.H.H.H.H.H.H.",
"vXbXV.m.n.n.n.n.n.b.B.5.4.tX!   f f % v 1 t 8.t.h.U # @ U h.i.e.4X4X4Xw.i.j.u 1 ; O.0.t.%.2 e /.% f d   ` tX4.T.b.n.n.n.n.n.n.m.",
"vXcXV.m.n.n.n.n.G.n.B.5.4.tXl   U @.f # 2 k.t.0.i.O V m % f.i.i.dXdXk.i.i.,.  Z m ; i.0.k.t.8 7 g >.g   z tX4.+Xv.G.G.G.G.G.G.n.",
"vXcXV.m.G.n.n.n.G.m.B.5.4.tXq   Y @.u t %.k.0.i.u 4 0XqX@ d f.i.i.j.i.i.f.- 1 BX0X3 f i.0.sX%.t d >.U   i tX4.+Xm.G.n.G.G.G.G.n.",
"vXcXV.m.G.G.n.n.G.n.B.5.4.a., . @.U 8 i.w.i.@.u 3 Z F OX:X. U f.u.u.i.f.9 @ 6XOXF V 3 u @.i.h.u.8 Y Y   q tX4.+Xn.G.n.n.G.G.G.n.",
"vXcXV.m.G.n.n.n.G.n.B.5.4.a.= . >.8 u u.y.i.f   O       3 G . f d.f.u.9 @ G +       @   g u.y.y.8 u >.  < tX4.+Xm.G.G.n.G.G.G.n.",
"nXbXV.n.G.G.G.G.G.n.B.2.2.4.+ % Y . @.u.u - @ + X z 9 9 o j :X@ % 9 o 1 6X5 j 9 9 -   O O - u d.Y o Y o > a.4.' n.G.G.G.G.G.G.G.",
"XXXXZ.Q.Q.Q.Q.U.Q.U.W.tXtXtXX - ; o U 8 .       |.UX:.w a - eX0XC 4 Z VXOX|.UX! w a 9       . 8 U . - % + tXtX#XP.Q.Q.U.U.U.U.U.",
"C.) A.~.!.!.!.!.!.I.&XFXHXfX  u U ; O u ,.t   u Q *Xf a a d 0XVXVXCXVXVX:XW *Xf w w I u   p ,.t O ; U < . ZXPXmXP.!.!.!.!.!.!.!.",
"}.&.A.~.!.!.!.!.!.I.&XFXIX&.  -.,.g t h.B X   <.I w I I a d 0XBXBXBXBXVX6Xw w I I w W :.  X %.h.t g ,.$.  $XIXmXP.!.!.!.!.!.!.!.",
"}.&.A.~.!.!.!.!.!.I.&XFXGX+ > dXq.g t k.>X; > vXQ W (.(.W f 0XVXBXBXBXVX6XI ] (.(.I ' cX$ 2 >Xk.t n q.4X+ > IXmXP.!.!.!.!.!.!.Q.",
"}.&.A.~.Y.!.!.!.!.U.&XIXz   $Xt.t.m g sXkXp G CX`.[.'.'.zX(.0XBXBXBXBXVXcX_.zX'.{.[.).CXC n kXk.t m t.t. X  -.AXL.!.!.!.!.!.!.Q.",
"}.&.A.~.!.!.!.!.!.~.&Xc   c dXr.4Xp g sXkXp G KX'.].zXzX[.`.eXBXVXVXVXBXBX_.[.zXzX].lXKXZ p kXsXd p 4Xr.dXj   c ~.~.Q.!.!.!.!.Q.",
"}.&.A.~.!.!.!.Q.~.x .   c NXgX4Xt.p f k.kXp Z 8X8X`.'.'.`.nXVXG k k k :XVXvX'.].].).8X0XC p kXk.d p 4X4XgXNXj   X x ~.I.!.!.!.Q.",
"}.&.A.~.!.!.Q.~.S.. C fXIXgX4Xr.sXp d j.kXz 3 0X;X;XnXnXeXeXVXC n 9.n :XVXeXqXnXbX;X;X0X1 B kXf.a p sXr.5XNXIX-Xc X D.!.!.!.!.Q.",
"}.&.A.~.!.!.I.~.x   w.sXr.r.r.r.k.i 8 d.l.w.  oXBXBXBXeXBXeXBX6XN A N 0XBXBXeXeXeXeXBXZ   >Xl.d.8 g sX,Xr.r.r.sX3.  D ~.Q.!.!.Q.",
"}.&.A.~.!.!.Q.~.x   Y ,.e.t.t.w.i.U & d.u.l.& . V 7X8X0XBXqXqXBX:XG 9XBXqXqXqX0X8X2XB . = l.u.u.O U i.w.t.t.e.,.U   D ~.Q.!.!.Q.",
"}.&.Z.~.!.!.!.~.D   U y.y.u.u.>.y.>.. [ d.d.U   . # p V 8.>X<X<X2X2X2X<X>X8.8.V p #     Y d.d.U . y.y.>.u.u.y.y.f   S.~.Q.!.!.Q.",
"}.&.Z.~.!.!.!.!.U.X 8 u.y.u.U d g.d.8 % s.s.s.8 o * .   O O + @ = < @ @ O O O   . * o 8 d.s.s.o u g.g.u U u.y.u.& + Q.Q.!.!.!.Q.",
"}.&.Z.~.!.!.!.I.~.j   I s.u.- a.hXg.[ O 8 s.s.s.d & . ; b b b y g T.t y b b b < . & f s.s.u.- & y.g.hX2.- s.s.f   x ~.I.!.!.!.Q.",
".X}.Z.~.!.!.!.!.Q.~.,   r [ - jXjXjXs.[ * % d U [ -   3 A ;X;XV u /.2 A ;X;XA 2   - [ U d o * [ s.jXjXpX- [ r   5 ~.I.!.!.!.!.Q.",
"cXfX.XQ.!.!.!.!.Q.Q.!.i     & pXjXjXg. ...L * o   # +.n 4 M v i l r l 3 M v 3 n +.=   o * L .. .g.jXpXg.&     j Q.Q.!.!.!.!.Q.Q.",
"vXcX@XU.!.!.!.!.!.Q.W.tX<.< . p.pXpX).{ } R L o - oXN 9.#.. 9 O.uXO.uXP 8 O q.9.N  X: o L R } { ).pXpXp.  q 1.rXQ.!.!.!.!.!.Q.Q.",
"vXcX@XQ.!.!.!.!.Q.Q.W.2.1.o OXLX`.'.{.'...e + C C c mXoXb : S i C C p j S 7 b $XmXz C k + e ..'.[.'.`.UXXXO a.#XU.!.Q.!.!.!.!.Q.",
"vXcX@XU.!.!.!.!.Q.Q.W.tXi > JXxX{.{.{.`.{ e $ 9X0XC XXrXo h S 4 M m 3 3 S 0 & iX|.N 0X9X@ K ..'.{.{.[.xXJX+ i rXU.!.!.!.!.!.!.Q.",
"vXcX@XQ.Q.Q.Q.Q.Q.Q.W.tX+ q _.'.{.'._.{ { } 7   + G   l t g j 2 3 4 2 2 l g t r . Z o   7 ..{ { _.'.{.{._.: = rXU.!.!.!.!.!.Q.Q.",
"nXbX@X~.!.!.!.!.!.~.@X2.X 0 o.X.(.X.K { } { * y y 2 O - ; yXt.q.NXgXNXq.dX3.; - . 2 y y * { } { T X.(.(.o.7 + #XY.!.!.!.!.!.!.!.",
"-X-XD.K.K.K.K.K.K.K.E.fX> * o.} | R & } } * y #.r.p _ mX+X&.$.p oX$X-.g $.&.#XlXW p e.#.t * X.} o { | } X.o < iXH.K.K.K.K.K.K.K.",
"}.&.M.m.n.n.n.n.n.x.K.IXC   } o.o.e   } T O +.q.V q aX+XfXUXKXrX-XcX*XiXKXUX*X+XaX8 6.q.+.& T R   e (.o.R    XZXx.n.n.n.n.n.n.m.",
"}.&.N.n.G.G.G.G.G.n.R.GXSX+ * X.(.0 > * * 4 v J 4 . l o W LXmX<.UXUXLX:.AXZXq & l . m J v p * * > e (...o = FXiXx.G.G.G.G.G.G.G.",
"}.&.N.n.G.n.n.n.G.n.R.FXPXfX+ o T e 3 z   # 4 v 3 +   # m l q & rXaX' o l i m X   + 6 v 4 #   z 3 e T . + fXPXiXx.G.n.n.n.n.G.n.",
"}.&.N.n.n.n.n.G.G.n.R.GXFXPXZXk + o + SX Xo   # = a.l + G N @ . & - o   1 Z C o ;.2.$ #   + *XZX+ + @ c SXPXHXiXx.G.n.n.n.n.n.n.",
"}.&.N.n.B.B.n.G.G.n.R.FXHXFXHXIXFXZXDXPXDX1.z q l tXz . p m o z 1.;.1., ; m 2 o <.a.i q ! 5.HXHXSXZXGXIXHXFXHXiXx.G.G.G.G.G.G.n.",
"C.&.M.m.n.m.m.m.n.b.K.HXHXHXHXHXHXPXHXPXSX2.a.a.a.a.;.  b b   <.a.a.uXi O +.2 + a.2.a.a.a.a.DXHXHXPXPXHXHXHXPXmXx.n.m.m.m.m.m.m.",
"XXXX( ^ ^ ^ ^ ^ ^ ^ ( =X=X=X=X=X=X=X=X=X=X@X@X@X@X@X&X5     : T.V.V.T.N.X .   x @X@X@X@X@X@X=X=X=X=X=X=X=X=X=X@X~ ^ ^ ^ ^ ^ ^ ^ ",
"vXvX-.*.*.*.*.*.*.*.` L.P.P.P.P.P.P.P.P.U.Q.Q.Q.Q.Q.Q.!.x h G.m.m.m.m.m.z.h D ~.U.U.U.U.Q.U.P.U.P.P.P.P.P.P.P.A.$.*.*.*.*.*.*.*.",
"vXcX-.` ' ' =.=.' =./ U.!.!.!.!.!.!.!.!.!.!.!.!.!.!.!.!.K.J.G.G.G.G.G.G.J.J.E.I.!.!.!.!.Q.Q.!.!.!.!.!.!.!.!.~.A.` =.=.=.=.=.=.' ",
"vXcX-.` =.=.=.=.=.=./ I.Q.!.!.!.!.!.!.!.!.!.!.!.!.!.!.!.H.n.G.G.G.G.G.G.G.v.L.!.!.!.!.Q.Q.Q.Q.!.!.!.!.!.!.!.~.A.` =.=.=.=.=.=.=.",
"vXcX-.` =.=.=.=.=.=.` I.!.!.!.!.!.!.!.!.!.!.!.!.!.!.!.!.H.n.n.G.G.n.n.n.G.n.L.!.Q.!.!.!.!.Q.Q.!.!.!.!.!.!.!.~.C.` =.=.=.=.=.=.=.",
"vXcX-.` =.=.=.=.=.:.` I.!.!.!.Q.!.!.Q.!.!.!.!.!.!.!.!.!.H.n.G.G.G.G.G.G.G.n.L.!.Q.!.!.!.!.Q.I.!.!.!.!.!.!.!.~.C.*.=.=.=.=.=.=.=.",
"nXvX-.` ` ` ` ` ` ` / I.~.!.Q.Q.Q.Q.Q.Q.Q.Q.Q.Q.!.!.!.~.G.x.v.b.n.v.x.x.v.x.L.!.Q.Q.Q.Q.Q.Q.Q.Q.Q.Q.Q.Q.!.Q.~.A.! ` ` ` ` ` ` ` ",
"*X*X X X X X X X X X|.C.F.F.F.Z.F.F.F.F.F.F.F.F.F.F.Z.Z.D.W.W.I.I.I.I.I.@XW.F.F.Z.F.F.F.F.F.F.F.F.F.F.F.F.F.Z.C. X X X X X X X X"
};
