/* XPM */
static char *_6cbb01e6fb14d3bc7f4377fec7bf308cLoxdv91yhFFNWYI[] = {
/* columns rows colors chars-per-pixel */
"64 64 256 2 ",
"   c #150117",
".  c #260118",
"X  c #36031A",
"o  c #270625",
"O  c #380427",
"+  c #351432",
"@  c #2B2033",
"#  c #500519",
"$  c #470428",
"%  c #461739",
"&  c #540D30",
"*  c #6F0C2D",
"=  c #4A2636",
"-  c #6E2839",
";  c #3B2943",
":  c #391D40",
">  c #520E48",
",  c #730C4D",
"<  c #4E324C",
"1  c #6F3453",
"2  c #5D2173",
"3  c #704857",
"4  c #525467",
"5  c #784967",
"6  c #685769",
"7  c #765972",
"8  c #704C6B",
"9  c #5E687A",
"0  c #776778",
"q  c #6C777C",
"w  c #737A7E",
"e  c #7C7D7E",
"r  c #74747C",
"t  c #70676C",
"y  c #685655",
"u  c #464D51",
"i  c #931C28",
"p  c #CE171C",
"a  c #D8261D",
"s  c #D6312C",
"d  c #F03533",
"f  c #E33121",
"g  c #F34E1D",
"h  c #FB731B",
"j  c #F14B2D",
"k  c #F76F34",
"l  c #CC4528",
"z  c #8F0F49",
"x  c #B60C4F",
"c  c #8C314E",
"v  c #AA305F",
"b  c #CC124D",
"n  c #F42B50",
"m  c #D60A72",
"M  c #EB1872",
"N  c #F32978",
"B  c #DF2359",
"V  c #8F4C51",
"C  c #885B77",
"Z  c #874F6D",
"A  c #866676",
"S  c #837C7C",
"D  c #937075",
"F  c #A55E6F",
"G  c #F34C4D",
"H  c #FE6F49",
"J  c #F74C73",
"K  c #DA646A",
"L  c #6C8D76",
"P  c #67B17B",
"I  c #56A57B",
"U  c #69CD7D",
"Y  c #76F07C",
"T  c #FE8D1C",
"R  c #FDAE1B",
"E  c #FC9230",
"W  c #FDB72A",
"Q  c #FDAD35",
"!  c #CE9C3D",
"~  c #FCCD37",
"^  c #FEE63C",
"/  c #85837D",
"(  c #948A75",
")  c #9CA769",
"_  c #F99546",
"`  c #FEAF45",
"'  c #F4B070",
"]  c #D7AA67",
"[  c #93F47C",
"{  c #B0CF74",
"}  c #FECC47",
"|  c #FED846",
" . c #FADC59",
".. c #FEE547",
"X. c #FEE655",
"o. c #FFF757",
"O. c #FFF44C",
"+. c #F0CF71",
"@. c #FEFC68",
"#. c #FFFD76",
"$. c #FBE96C",
"%. c #D0E675",
"&. c #BF9338",
"*. c #61399F",
"=. c #1253B9",
"-. c #2C4FB9",
";. c #2065BC",
":. c #6E7A82",
">. c #6A7684",
",. c #737D84",
"<. c #7A7E82",
"1. c #737C86",
"2. c #6C6B94",
"3. c #6258A3",
"4. c #125DC4",
"5. c #1871C7",
"6. c #2E62C4",
"7. c #6165D5",
"8. c #423DB7",
"9. c #F6328B",
"0. c #E12097",
"q. c #967589",
"w. c #9C60A1",
"e. c #FC4894",
"r. c #F64D90",
"t. c #D47193",
"y. c #FC7294",
"u. c #F657A8",
"i. c #FD76AA",
"p. c #FD6EB0",
"a. c #D458A0",
"s. c #A224D2",
"d. c #9662D4",
"f. c #E36FD8",
"g. c #9C23A8",
"h. c #3C9FAC",
"j. c #6D858B",
"k. c #758185",
"l. c #7B8184",
"z. c #748389",
"x. c #7A848A",
"c. c #778A8C",
"v. c #719394",
"b. c #73A9A7",
"n. c #75B2B0",
"m. c #6A97A3",
"M. c #76EF88",
"N. c #62D397",
"B. c #0E97CC",
"V. c #07AED1",
"C. c #2C91D5",
"Z. c #6AA4E6",
"A. c #09CCD7",
"S. c #1AEDE5",
"D. c #27F2ED",
"F. c #1BDADD",
"G. c #75CBCE",
"H. c #53F0FC",
"J. c #5AD3EC",
"K. c #848382",
"L. c #8B8B8B",
"P. c #888886",
"I. c #948C85",
"U. c #938D8B",
"Y. c #998B87",
"T. c #9C948C",
"R. c #97928B",
"E. c #899694",
"W. c #9C9692",
"Q. c #9D9993",
"!. c #979898",
"~. c #908D93",
"^. c #A3958B",
"/. c #A4998D",
"(. c #AA9A8D",
"). c #A79687",
"_. c #A58A97",
"`. c #A49C94",
"'. c #A99D93",
"]. c #A29D99",
"[. c #A8979A",
"{. c #AB9191",
"}. c #99A69A",
"|. c #8FA89D",
" X c #ACA49B",
".X c #A7A39A",
"XX c #B1A59B",
"oX c #B3A79B",
"OX c #B4B195",
"+X c #A89AA3",
"@X c #BE9ABB",
"#X c #97A9A3",
"$X c #86B5A8",
"%X c #99B6AA",
"&X c #8CAFAA",
"*X c #AAA6A3",
"=X c #ADAAA4",
"-X c #A8A8A7",
";X c #B5ADA6",
":X c #A8B6A9",
">X c #B5B2AC",
",X c #BBB4AC",
"<X c #B8B6AA",
"1X c #AAB9B5",
"2X c #B5B5B5",
"3X c #BAB6B3",
"4X c #B5BAB4",
"5X c #BCB9B5",
"6X c #B5BBBB",
"7X c #BBBCBB",
"8X c #B4B7B9",
"9X c #ADACB1",
"0X c #9490AC",
"qX c #F78E94",
"wX c #FC88B6",
"eX c #FB8DAB",
"rX c #C1BEBA",
"tX c #C1BBB4",
"yX c #C1B5A8",
"uX c #F8ACAE",
"iX c #D3AF91",
"pX c #99FF89",
"aX c #8BF887",
"sX c #ACFD86",
"dX c #93C6B5",
"fX c #B6C3BB",
"gX c #ABCCB9",
"hX c #D4F892",
"jX c #FEFA87",
"kX c #FEFD94",
"lX c #EFF093",
"zX c #C4C8B9",
"xX c #FDFDAE",
"cX c #E4CF96",
"vX c #A69FE2",
"bX c #FD90CB",
"nX c #FDB8D8",
"mX c #FBABD0",
"MX c #FDB1E6",
"NX c #E194D7",
"BX c #ABCAC4",
"VX c #B4CAC3",
"CX c #AAD8C8",
"ZX c #B6D7C7",
"AX c #B4DED2",
"SX c #B3ECD6",
"DX c #B6F9EA",
"FX c #92D7E1",
"GX c #C8CDC9",
"HX c #FDD0D6",
"JX c #FDCFEB",
"KX c #FEF9ED",
"LX c #FFFEF2",
"PX c #FEFAFC",
"IX c #FDE9F0",
"UX c #D6EEDC",
/* pixels */
"l.>X8X8X3XP.x.k.Q.5X8X7X'.k.x.x.l.XX7X8X3XY.x.x.k.T.5X8X8X5XI.x.l.,.'.7X8X8X,X,X8X8X3XP.k.x.x./ x.x.l.=X7X8X,XP.x.,.R.5X2X7X`.:.",
"w >X7X7X5XK.,.w T.rX5XzX'.w k.k.w XX7X7XtXI.:.k.:.R.rX5X7XtXK.,.,.w  XzX5X7XyX5X7X7XtXK.,.,.<./ ,.,.w ;X7X7XtX/ ,.:.Y.rX7XzX'.>.",
"`.^.W.W./.'.].].(.Q.W.W.(.].].Q.].).W.Q./.(.].].].(.W.W.W./.'.Q.].].(.Q.`.Q.).T.Q.W.`.'.}.Q.].'.Q.].'.).Q./././.Q.Q.(./.W.W.).Q.",
",X/ ,.,.e >X7XrX'.q ,.q /.7X8X7XrXY.>.,.w oX7X5X7X Xq ,.,.e ;X7X7X7XR.q ,.,.S w ,.,.<.,X6X6X5X,X6X8X5XP.:.,.e >X8X7X Xq ,.:.T.rX",
">XK.x.x.K.;X8X7X'.,.x.,./.8X2X2X3XR.,.x.l.XX8X2X8X X,.x.x.l.=X8X2X5XT.,.l.x./ l.x.z.P.>X6X6X4X;X8X2X3XI.k.x.l.;X2X8X X<.x.,.T.5X",
",X/ ,.,.e ;X7XrX'.w l.,./.7X3X3XtXY.,.<.w oX5X3X7X Xw <.,.e ;X7X3X7XT.,.l.,./ l.z.z.x.>XfXfXfXyX7X7XtXI.,.,.e ;X7X7XXXw <.w T.rX",
"Y.XX*X*XXXY.L.L.).=X X=X(.L.U.L.L.'.=X*X X).L.U.L.^.*X*X*X XY.L.L.L.(.*X*X-XXX=X-X1XfXgXgX1X4XQ.L.L.I.XX=X*XXXY.L.L.^. X X=X(.L.",
"<.>X6X8X3XK.,.,.T.7X8X7X`.:.,.,.,. X7X8X7XI.:.k.:.R.7X8X8X5XK.:.,.:.'.6X8X6X4XfXAX1XA 6 x.BXBXE.j.z.w ;X6X6X5XK.,.:.U.7X8X7X'.:.",
"<.>X7X5X,XK.,.,./.tX3XrX`.w <.,.w  X7X8X5XI.,.l.,.R.5X5X7X5XP.,.k.,..XfX6XVXfXZX~.# & * # < CX|.v.c.k.;X7X7X5XK.,.,.Y.5X8X7X`.q ",
" XY.U.U.U. X*X*X(.U.U.U./.*X*X*X*X).U.~.U.'.-X*X-X'.U.~.~.R. X-X-X-XQ.~.E.E.}.}.# V cX+.K # t gX1X%X:XT.~.L.U. X X*X(.U.U.U.).*X",
",XK.,.,.<.>X7X7X'.q ,.:.Q.7X8X8X7XU.,.,.w oX6X8X7X X:.z.j.k.>XfX6XfX~.:.c.j.$Xt * cXkX@.Q * % AXSXCXVXE.j.j.,.>X7X7XXXw ,.:.W.7X",
",XK.,.,.e >X7X7X'.,.,.:.`.7X8X7X5XR.,.l.<.=XfX6XfX Xk.z.z.c.4XVXfXVX}.j.v.v.dX1 1 $.o.@.} l O ZXDXSXSX|.j.z.l.>X7X7X Xw ,.:.T.7X",
" XR.~.~.U.'..X X/.~.~.~./..X.X X X(.!.!.Q.XX-X-X-X.X|.|.|.|.:X:X:X:X}.|.&X$XgX- V  ...o.} l X = % < e dX|.E.!..X.X*X(.~.~.~./.*X",
"e ,X7X7X3X/ ,.q T.rX3XrX`.w <.l.P.;XGXfXzXT.c.c.c.}.ZXZXAXAX$Xb.n.b.gXSXAXSXSX& V } ~ | ` d * 1 V 1 X t SXBXfXK.:.:.Y.tX5X7X'.q ",
"K.;X8X2X,XP.x.k.T.8X2X7X`.,.P.L.Q.+.cXVXzX.XE.E.v.dXDXSXAX1XP.,.x.c.%XSXDXDXSX% F ` Q } _ d _ jXxX' c O CXCXgXE.c.z.R.5X2X7X'.,.",
"e ;X5X5X,XK.,.w T.5X3XrX(.e P.!.OX$.+.GXGXOX|.%XdX:XD c * * * * * * & & 3 !.DX= V H k ` H k o.@.jX' b O gXSXgXE.c.z.R.5X3X7X'.:.",
"XXI.P.P.I.XX=X=X(.P.L.P./.>X;X+.$.xXjX .] zXUX;Xc * i v K a.r.r.r.r.N v z # % + V J G H d Q o.o..._ b O $XFXdXgX1X1X XL.L.P.^.=X",
",X/ ,.1.<.>X8X7X'.w k.,.Q.VXtXQ W #. .R ] UXF i c t.eXy.e.e.e.9.N N N N 9.a.i X + b n n j Q | } ` H b   @ @ ; P.AXZX=X,.x.:.T.7X",
",X/ ,.,.e >X7X7X.Xq k.,.Q.fXfXGX' R E fXBXi i K uXeXy.i.mXwXi.i.p.r.e.N M s g g i   z b j E Q _ H n b c z z , . y AX:Xk.x.:.W.7X",
"XXR.~.~.U.XX*X*X(.~.~.~./.=X;X<XVXh ' BXi c uXHXHXKXIXnXIXnXbXbXwXi.p.u.G h g g g l . $ n H H G B J eXnXJXwXu.w.. E.gX~.E.~./.=X",
"L >X7X7X5XK.,.w T.7X8X7X`.,.x.E.|.iXzX* c uXHXLXLXLXLXJXJXIXJXmXbXbXbXJ R W E h g g g # & n b b y.mXnXnXbXmXr.e.O 4 %X5X8X7X'.q ",
"l.;X8X8X3XP.x.,.W.8X2X8X`.k.L.E.&XZX- c uXHXLXLXLXLXKXJXPXPXIXmXnXMXJ W ^ ~ W R h g j j + $ x e.i.wXwXi.p.u.M r.$ 4 %X8X2X7X'.,.",
"S ;X3X3X,X/ <.w T.5X8X7X`.k.c.E.dXV * uXeXLXLXLXLXLXIXIXPXIXMXJXMXK | O.| | ~ W R h g s D @ * M N 9.e.e.9.M m a.O 9 :X3X3X5X'.,.",
"=XI.P.L.I.XX;X;X(.P.L.P.`.:X1XCXQ.# {.y.nXLXLXLXLXIXMXIXJXMXJXmX_ $.#.@.X...| ~ W T f D D L   z m m 0.0.0.u.f.w.. q .X,X>X5X(.e ",
"3XK.,.,.<.>X7X7X].:.z.:.}.VXCXSX1 c eXr.HXLXLXLXKXnXmXMXMXJXbXqXjXkX#.#.@.X.| ~ W k ) I S ( u O w.w.f.@X@X0X2.o + j.R.5X2X7X`.:.",
",XK.,.<.l.>X7X7X'.,.z.z.}.VXSX#X# qXe.wXHXIXIXHXmXbXmXMXMXp.uXxXkXjXjX#.@.X...~ k { Y U L D v.o   o o o o . o < :.z.R.5X2X7X'.,.",
",XK.<.<.S ;X3XtX'.k.x.k.}.ZXSX3 , p.9.HXHXi.wXbXbXbXmXbXp.cXxXxXkXjXjX#.@.O.^ E cX[ Y U P D v.u + b.v.E.|.&X1XE.c.k.Y.,X3X5X'.,.",
"K.=X>X>X;XI.K.K.^.>X:X1X}.b.$X$ F e.e.wXmXi.bXbXbXmXbXi.lXkXxXxXkX#.#.#.o...` hX[ sXaXM.U L / 2.. dXDXdX$Xb.E.=X:X>X XK.P.K.^.>X",
"e >X7X8X3XK.1.,.Q.fX1XVX#Xb.j.# a.9.u.HXLXbXa.c 1 1 K jX@.#.kXjX#.o.o.o.X.' cXy 3 < P aXU L C d.+ q DXn.m.v.c.4X6X6X Xw x.,.T.7X",
"e >X8X8X3XP.,.,.Q.fX1XVX#Xn.6 & u.9.wXHXnXa.1 GXIX1 X ! @.#.#.o.o.o.o.| ' hX3 @XIXZ X L N.I *.d.2 < DX$Xm.v.c.>X6X6X Xw l.,.T.7X",
"/ oX>X>X;XI.K.K./.4X:XfX#X$X< 1 p.M u.u.p.v Z PXPXZ O - o.o.O.O.O.o.| ' xX) 1 PXPXD X = N.2.8.d.2.+ SXdXb.v.L.;X>X>XXXK.P.l.^.,X",
";X/ ,.<.e ;X3X3X.Xk.c.c.#XSX< 1 p.M e.u.p.1 $ q.g.> & & | ......O.~ cXhXhXD $ D w., & O h.C.-.d.w.O n.gXBXgX4XP.k.,.Y.,X>X3X'.,.",
",XK.1.1.<.;X8X7X.Xj.c.j.%XSX< 5 p.m 9.e.u.c O > 2 3.2 & ~ | ....W cXhX%.hX( O > 2 3.*.> h.V.;.7.2.O n.CXCXBX4XP.z.:.U.5X8X7X'.,.",
"yXS ,.,.w >X7XrX.X:.z.j.%XDX< 3 f.m 9.9.9.v z s.d.DXZ.V ^ ..^ Q cXhX%.hXhX{ , s.s.DXvX2 A.V.;.7.m.O b.ZXZXVXfXK.:.:.Y.rX7XrX'.q ",
"`.`.!.!.Q./.Q.Q./.#X#X&XdXCX< 1 bXm M 9.9.y.mXy.i.vXF ~ ! &.W +.sX%.hX) { sX( s.NXqXuXeXb.V.;.7.m.O dXgX&X#X`.Q.!.!./.`.Q.W.).!.",
"e ,X7X7X5XK.:.>.!.VXCXAXdXG.4 = MX0.m M eXIXnXuXJ G ~ ~ &.# ] ) X ) %.& ) sXpX) J qXmXJXuX2.4.Z.j.O CX$Xv.j.l.>X6X7X Xw ,.q T.rX",
"K.;X8X2X,XP.x.k.}.BXCXCXdXG.>.O mX0.m M J eXy.y.e.J ~ ~ Q V = * v * = y sXsXaX{.N y.y.eXy.w.4.Z.9 % SX|.v.c.x.;X1X8X Xl.x.,.T.8X",
"e >X7X5XtXK.,.k.}.ZXCXSXgXG.n.. @Xu.m B j n N r.r._ ~ T ] sX[ { K ] [ sXpXpXN.FXa.u.u.a.d.5.4.J.< 4 SXE.j.z.l.>X8X7XXXw k.:.T.7X",
"XXY.L.L.R. X:X:X:X&X$XdXCXSXDX+ 7 MX0.s g h E E Q W T ! pX[ pXpX[ pXpXpXaXG.FXH.D.D.F.V.5.=.C.G.O E.AX:X%X:X*XR.~.L.^.=X*X-X/.P.",
"oXI.x.x.P.=X1XfXgXG.FXFXSXDXUXE.+ JXa.a f g h T E T k aXY aXaXaXaXaXaXM.G.FXH.D.D.S.V.B.4.4.J.>.O CXgXfXfXfX5XI.x.x.R.>X;X>X`.l.",
"K.;X8X8X3XE.v.n.$Xq 6 3 1 3 6 0 . 0XK p f f g g h g ) U M.M.M.M.M.M.N.J.H.D.D.D.S.V.B.5.=.C.J.$ 4 dXb.:XfX1X<X,X8X5X Xw l.,./.5X",
"l.<X6X6X5XE.b.c.$ # * - - - * & O @ l p a a f g f F P P N.N.N.M.M.h.J.H.S.S.D.S.A.B.5.=.5.H.9 O n.n.b.fXVXfX4X3X6X7X X:.1.>.W.7X",
"U.'..X.X.X#X&X$ 1 cXlX$.X.} ` H B O & f p a a a p A L L P N.N.N.h.F.S.F.F.F.A.V.B.5.=.5.H.n.. v.FXdX%X:X-X}..X.X.X.X(.~.~.~./..X",
",X/ ,.z.c.ZX~.X iX+.kX@.@.@.| ` G x   i d p a p v t t q L L j.C.A.A.A.A.A.V.V.B.5.4.5.H.G.X 6 UXSXSXZXE.j.k.e e ,.:.Y.rX5XrX'.q ",
">XK.z.c.c.ZX6 % qXk X.X.X.} Q j j G x   i d p b Z t t t t 3.C.B.B.V.V.V.B.B.5.5.4.C.H.G.+ < DX$.$.DXAX|.c.z.l.K.z.x.R.8X2X7X'.,.",
",X/ ,.z.x.gX6 % i.d g k k k j _ | ` H z   i j v 0 y t 8 8.6.;.;.5.5.5.5.5.4.6.7.Z.H.n.O ; ZXhXkXjXhXzXE.z.k.e / l.,.Y.5X8XrX'.:.",
"Y.XX*X-X=X%Xq . w.r.N n n s ` kXX.} _ n z   & F G.k.*.8.-.=.-.-.-.-.-.-.8.7.vXvXFX9 . y AX+.R $.$.R ] :X:X=XoXoX X=X(.I.~.L./.=X",
"e >X6X6X5XE.b.< . O $ $ z d $.$.} ` H b m x O o j.Z.vX7.6.-.-.8.*.*.d.d.vXFXFXj.+ O 6 ZXAXAXyXW W }.n.1XBXfX4X3X8X7X Xw x.:.W.7X",
"e >X7X7X5XE.b.n.v.,.>.; $ n ` Q Q E n b r.N m &   + 4 m.Z.Z.Z.Z.vXvXvXvXm.4 O o < >.L.4XVXZXSX_ ! G.b.:XVX6X5X5X7XfXXXw ,.:.T.7X",
"'.^.!.!.Q..X%XdXgXCXDXq $ M j k j d b y.wXr.M > ; 3 + . o : < < < < : o o % 5 q.!.W.T.T.!.!.#XiXOX1X:XQ.!.!.T.^.W.W.)..X.X.X(.R.",
",XK.,.,.l.>XVXZX:Xb.dX9 o r.N M M b B mXwXr.9.> ; q._.q.7 1 % % % > 1 7 q._._._._.[.[.0 >.1.1.:XBXfXfXP.:.:.e e ,.:.Y.rX7X7X`.q ",
",XK.,.k.l.>XBXVX:Xm.b.m.o > v v z x r.JXwXr.9.+ < C q.q.q.q.7 8 8 8 q.q.q.q.D q._._._.0 r :.:. X1X1X4XP.:.,.<.e ,.:.U.7X8XfX'.,.",
"'.R.~.!.W..X-X-X.X|.&X&XK.+ o o   , r.mXi.e.a.+ < Z Z Z Z Z Z 5 5 5 Z Z Z Z Z C A q.q.D q.L.U./.!.!.].^.~.R.R.T.~.~.). X.X.X^.S ",
"K.>X7X8X3XK.:.,.!.1X1X9X>X-X~._.+ , N e.e.9.w.o 5 Z 1 1 1 1 Z C C C Z 3 8 8 5 8 8 6 7 _.+X9X>XK.:.,.w oX7X7X5X,X8X7X Xq ,.,.S x.",
"<.>X7X8X5XP.z.x.U.#X!.~.Y.!._._.: > 0.M M 0.8 o C Z 1 8 8 5 C q.q.q.Z 8 8 8 5 7 7 7 0 [.-X9X>XP.:.,.w oX7X7X5X,X8X7X Xq ,.,.S ,.",
"'.T.R.R.T.( / S Y..X!.W.D C 7 C > + u.0.0.f.; % 5 Z C C C C C C A A D q.q.q.q.q.Y._._.D P.U.Y.(.+X*X X).R.T.^.).U.R.)..X+X.XXX*X",
",XK.,.,.<.e ,.,.U.-X+X+XD 6 6 8 < . 8 f.f.2.. < 3 5 q.q.q._.C 7 0 7 q.+X+X+X[.+X-X9X;XS :.1.w XX7X8X5XI.,.,.e S ,.,.U.5X8X8XyX3X",
",XK.,.x.l.e ,.,.R.9X-X-XY.0 0 7 8 < . o o . > 8 8 A _._.+X+XA 0 0 0 _.-X*X9XXX;X9X9X;Xq.,.<.<.XX8X8X5XI.,.k.L / x.,.U.5X8X8X,X2X",
"oXI.P.L.I.I.P.P.^.=X*X=X).q.q.S A C 5 1 1 1 5 Z C D _.[.[.[.I.K.P.q.(.;X;X;XoX X=X=XXXI.P.L.P.'.=X=X;XY.P.P.I.I.P.P.T.=X=X=XoX,X",
"/ ;X8X3X,X,X3X7X'.w l.,./.3X9X-X*XD 0 A 0 q._._.+XY.r w <.e oX3X2X2XyX3X>X3XXX<.l.<.S ;X8X3X3XI.,.l.<.oX5X3X,X,X3X3XXXw l.,.^.5X",
"e >X7X7X5X5X7XGX'.>.,.>.T.7X5X8X5XI.r r 0 [.9X9X2X'.r 1.,.w ;X7X8X7XyX7X7X7X Xw ,.,.e >X7X8XrXI.:.,.,.=X7X7X5X,X6X7X Xq 1.>.T.zX",
"^.(.].].'.(.].'.).T.Q.Q.).`.`.`.`.).W.W./.).Q.`.`.(./.Q.W./.(.].`.`.(.`.`.].(.T.T.T.^.(.`.`.'.).Q.Q./.(.].`.'.(.].].(.T.T.W.).'.",
",XS ,.,.e e ,.:.T.rX5XrX/.q ,.,.w  X7X7XtXI.:.,.,.R.rX7X7XtXK.,.,.,.S ,.,.,.Y.tX7X7X5XK.,.,.w oX7X8XtX( ,.,.e S ,.,.Y.rX7XfX'.:.",
",XK.x.x.K.K.x.,.T.7X8X7X`.,.x.x.k. X8X8X5XY.x.x.k.R.5X8X8X3XI.x.x.x./ x.x.k.R.5X8X8X,XP.z.x.<.XX8X2X3XI.x.x.K./ x.,.Y.5X8X7X'.<."
};
