/* XPM */
static char *a6783d57610b453aa1bf18443738b7edcXH302LZwCp5Itar[] = {
/* columns rows colors chars-per-pixel */
"64 64 256 2 ",
"   c None",
".  c #150117",
"X  c #260118",
"o  c #36031A",
"O  c #270625",
"+  c #380427",
"@  c #351432",
"#  c #2B2033",
"$  c #500519",
"%  c #470428",
"&  c #461739",
"*  c #540D30",
"=  c #6F0C2D",
"-  c #4A2636",
";  c #6E2839",
":  c #3B2743",
">  c #520E48",
",  c #730C4D",
"<  c #4E324C",
"1  c #6F3453",
"2  c #5D2173",
"3  c #704857",
"4  c #525467",
"5  c #784967",
"6  c #685769",
"7  c #765972",
"8  c #704C6B",
"9  c #5E687A",
"0  c #776778",
"q  c #6B767C",
"w  c #737A7E",
"e  c #7D7D7D",
"r  c #74747C",
"t  c #70676C",
"y  c #685655",
"u  c #464D51",
"i  c #922B2F",
"p  c #931626",
"a  c #CE171C",
"s  c #D8261D",
"d  c #D6312C",
"f  c #F03533",
"g  c #E33121",
"h  c #F34E1D",
"j  c #FB731B",
"k  c #F14B2D",
"l  c #F76F34",
"z  c #CC4528",
"x  c #8F0F49",
"c  c #B60C4F",
"v  c #8C314E",
"b  c #AA305F",
"n  c #CC124D",
"m  c #EE1755",
"M  c #F42B50",
"N  c #D60A72",
"B  c #EB1872",
"V  c #F32978",
"C  c #D0305C",
"Z  c #8F4C51",
"A  c #885B77",
"S  c #874F6D",
"D  c #866676",
"F  c #837C7C",
"G  c #937075",
"H  c #A55E6F",
"J  c #F34C4D",
"K  c #FE6F49",
"L  c #F74C73",
"P  c #DA646A",
"I  c #6C8D76",
"U  c #67B17B",
"Y  c #56A57B",
"T  c #69CD7D",
"R  c #76F07C",
"E  c #FC9230",
"W  c #FDB72A",
"Q  c #FDAD35",
"!  c #F09D24",
"~  c #FCCD37",
"^  c #FEE63C",
"/  c #85837D",
"(  c #948A75",
")  c #9CA769",
"_  c #F99546",
"`  c #FEAF45",
"'  c #F4B070",
"]  c #D7AA67",
"[  c #93F47C",
"{  c #B0CF74",
"}  c #FED846",
"|  c #FDD04C",
" . c #FEE547",
".. c #FEE655",
"X. c #FFF757",
"o. c #FFF44C",
"O. c #F0CF71",
"+. c #FEFC68",
"@. c #FFFD76",
"#. c #FBE96C",
"$. c #D0E675",
"%. c #BF9338",
"&. c #61399F",
"*. c #1253B9",
"=. c #2C4FB9",
"-. c #2065BC",
";. c #6E7A83",
":. c #6B7685",
">. c #737D84",
",. c #7A7E82",
"<. c #737C86",
"1. c #6C6B94",
"2. c #6258A3",
"3. c #125DC4",
"4. c #1871C7",
"5. c #2E62C4",
"6. c #6165D5",
"7. c #423DB7",
"8. c #F6328B",
"9. c #E12097",
"0. c #997988",
"q. c #947289",
"w. c #9C60A1",
"e. c #FB4588",
"r. c #FC4894",
"t. c #F35194",
"y. c #D47193",
"u. c #FC7294",
"i. c #F657A8",
"p. c #FD76AA",
"a. c #FD6EB0",
"s. c #D458A0",
"d. c #A224D2",
"f. c #9662D4",
"g. c #E36FD8",
"h. c #9C23A8",
"j. c #3C9FAC",
"k. c #6D858B",
"l. c #758185",
"z. c #7B8184",
"x. c #748389",
"c. c #7B848A",
"v. c #778A8C",
"b. c #719394",
"n. c #73A9A7",
"m. c #75B2B0",
"M. c #6A97A3",
"N. c #6BD48A",
"B. c #76EF88",
"V. c #5BD3A3",
"C. c #0E97CC",
"Z. c #07AED1",
"A. c #2C91D5",
"S. c #6AA4E6",
"D. c #09CCD7",
"F. c #1AEDE5",
"G. c #27F2ED",
"H. c #1BDADD",
"J. c #75CBCE",
"K. c #53F0FC",
"L. c #5AD3EC",
"P. c #838382",
"I. c #8B8B8B",
"U. c #888886",
"Y. c #948C85",
"T. c #938D8B",
"R. c #998B87",
"E. c #9C948C",
"W. c #97928B",
"Q. c #899694",
"!. c #9D9993",
"~. c #979695",
"^. c #908D93",
"/. c #A3958B",
"(. c #A4998D",
"). c #AA9A8D",
"_. c #A79687",
"`. c #A58A97",
"'. c #A49C94",
"]. c #AA9D93",
"[. c #A59A99",
"{. c #AB9191",
"}. c #99A69A",
"|. c #8FA89D",
" X c #ACA49C",
".X c #A7A39A",
"XX c #B1A59B",
"oX c #B4A79A",
"OX c #B4B195",
"+X c #A89AA3",
"@X c #BE9ABB",
"#X c #97A9A3",
"$X c #86B5A8",
"%X c #99B6AA",
"&X c #8CAFAA",
"*X c #AAA6A3",
"=X c #ADAAA4",
"-X c #A8A8A7",
";X c #B5ADA6",
":X c #A8B6A9",
">X c #B5B2AC",
",X c #BBB4AC",
"<X c #B7B6AA",
"1X c #AAB9B5",
"2X c #B5B5B5",
"3X c #BAB6B3",
"4X c #BCB9B4",
"5X c #B5BBBB",
"6X c #BBBCBB",
"7X c #B5B9B6",
"8X c #ADACB1",
"9X c #9490AC",
"0X c #F78E94",
"qX c #FC88B6",
"wX c #FB8DAB",
"eX c #C1BDBA",
"rX c #C1BBB5",
"tX c #C1B4A7",
"yX c #F8ACAE",
"uX c #D3AF91",
"iX c #92FB88",
"pX c #ACFD86",
"aX c #93C6B5",
"sX c #B6C3BB",
"dX c #ABCCB9",
"fX c #D4F892",
"gX c #FEFA87",
"hX c #FEFD94",
"jX c #EFF093",
"kX c #C5CCB7",
"lX c #FDFDAE",
"zX c #E4CF96",
"xX c #A69FE2",
"cX c #FD90CB",
"vX c #FDB8D8",
"bX c #FBABD0",
"nX c #FDB1E6",
"mX c #E194D7",
"MX c #ABCAC4",
"NX c #B4CAC3",
"BX c #AAD8C8",
"VX c #B6D7C7",
"CX c #B4DED2",
"ZX c #B3EAD5",
"AX c #B2EDD6",
"SX c #B7FAE6",
"DX c #B4F6F3",
"FX c #92D7E1",
"GX c #C8CDC9",
"HX c #FDD0D6",
"JX c #CAEFCD",
"KX c #FDCFEB",
"LX c #FEF9ED",
"PX c #FEFCF6",
"IX c #FDE9F0",
"UX c #E2ECEB",
/* pixels */
",X/ >.>.e ;X4XeX].w z.>.(.4X2X2XrXR.>.,.w oX4X3X6X Xw ,.>.e ;X6X2X6XW.>.z.>./ z.c.x.c.7XsXsXsXtX6X6XrXY.>.>.e ;X6X6XXXw ,.w E.eX",
"R.XX*X*XXXR.I.I.(.=X X=X).I.T.I.I.].=X*X X_.I.T.I./.*X*X*X XR.I.I.I.).*X*X-XXX=X-X1XsXdXdX1X7X!.I.I.Y.XX*X*XXXR.I.I./. X X=X).I.",
",.>X5X5X3XP.<.<.E.6X2X6X'.;.>.<.>. X6X5X4XY.;.l.;.W.6X5X5X4XP.;.>.;..X5X5X1X4XsXCX1XD 6 c.MXBXQ.k.k.w ;X5X5X4XP.<.;.T.6X5X6X'.;.",
",.,X6X4X,XP.>.>.E.rX2XeX(.w ,.>.w  X6X2X4XY.>.z.>.W.4X4X6X4XP.>.>.>..XsX5XNXsXVX~.$ * = $ < BX|.b.v.l.;X6X6X4XP.>.>.R.4X2X6X'.w ",
" XR.T.T.T.XX*X*X).T.T.I.(.*X*X*X*X(.T.^.T.].-X*X-X].I.^.^.W..X-X-X=X(.I.Q.Q.}.|.$ Z zXO.P $ t dXaX:X:XE.I.T.T.XX*X*X).T.T.T.(.*X",
",XP.;.<.,.,X6X6X'.w >.;.!.6X2X5X4XT.>.>.>.XX5X7X6X.X;.x.k.l.>XsX5XsX~.k.k.k.$Xt = zXhX+.Q p & CXZXBXNXQ.k.k.,.>X6X6X Xw >.;.!.6X",
",XP.>.<.e ,X6X6X].>.>.;.'.6X5X6X4XW.>.z.,.=XsX5XsX*Xl.x.x.v.7XNXsXNX}.k.b.b.aX1 1 #.X.+.| z + VXSXAXAX|.k.x.z.>X6X6X Xw >.>.E.6X",
" XW.^.^.W.]. X X(.^.^.^.(..X.X.X X).~.~.~.XX-X-X-X.X|.|.|.|.:X:X:X:X.X&X&X$XdX; Z .. .X.| z o - & < e aX|.Q.~..X.X*X).T.^.^.(.*X",
"e ,X6X6X3X/ >.w E.eX2XeX'.w ,.z.P.;XGXsXkXE.c.v.b.}.VXVXCXCX$Xn.m.n.dXZXCXZXZX* Z | ~ } ` f = 1 Z 1 o t ZXMXsXU.;.;.R.eX4X6X].w ",
"P.;X2X2X,XU.c.l.E.2X2X6X'.l.U.I.!.O.zXNXkX.XQ.Q.n.aXSXAXCX1XU.>.l.v.%XZXSXDXSX& H ` Q ~ ` f _ gXlX' v + BXBXdXv.v.x.W.4X2X6X'.<.",
"F ;X4X4X,XP.>.w E.4X3XeX).e U.~.OX#.O.GXGXOX|.%XaX%XG v = = = = = = = * 3 ~.AX- Z K E ` l l o.+.gX' n + dXAXdXQ.v.x.W.4X3X6X'.;.",
"XXY.U.U.Y.XX=X=X).U.I.U.(.>X;XO.#.lXgX..] kXJX;Xv p p b P s.t.t.e.e.C b , $ & @ Z L k K f Q X.X. ._ n o $XFXaXdX1X1X.XU.I.U.(.=X",
",X/ >.<.,.>X5X6X'.w l.>.!.NXrXQ W @...! ] JXH p v y.wXu.r.r.e.8.V V V V 8.s.i $ @ n M M k Q | | ` K n . # # < U.CXVX=X<.x.;.E.6X",
",X/ >.>.e ,X6X6X'.w l.>.'.sXsXGX' W ! sXdXi p P yXwXt.p.bXqXp.p.a.t.e.V B d h h i X x n k E ` _ K M n v x x ; X y CX:Xl.x.;.!.6X",
"XXW.^.^.T.XX*X*X).I.^.I.(.=X;X<XNXj ' MXp i yXHXHXLXIXvXIXvXcXqXqXp.a.i.J j h h h z X % M K K J m L wXvXKXqXi.H X Q.dX^.Q.^.(.=X",
"I ,X6X6XrXP.>.w E.6X7X6X'.>.c.Q.|.uXkX= v yXHXPXPXPXPXHXKXIXKXbXcXqXcXL ! W E j h h h $ * M n n u.bXvXvXcXbXt.t.+ 4 %X4X7X6X].w ",
"z.;X5X2X,XU.x.>.E.5X2X5X'.l.Q.Q.&XVX; v yXHXPXPXPXPXLXKXPXPXIXbXvXnXL W ^ ~ W ! j h k k @ % c e.p.qXqXp.a.i.B t.% 4 %X2X2X6X'.<.",
"/ ;X4X2X,X/ w w E.4X2X6X'.l.v.Q.aXZ = yXwXPXPXPXPXPXIXIXPXIXnXKXnXP } X.} } ~ W ! j h d G # = B V 8.e.r.8.B N s.+ 9 :X3X3X4X].,.",
"=XY.U.U.Y.XX=X;X).U.I.U.'.:X1XBX!.$ {.u.vXPXLXLXPXLXvXIXKXnXKXbX_ #.@.+... .} ~ W E g G G I . x N N 9.9.9.i.g.w.X q .X,X,X4X).e ",
"3XP.<.<.,.>X6X6X[.;.x.;.}.NXVXZX; v wXe.HXPXLXPXLXvXbXnXnXKXcX0XgXgX@.@.+...} ~ W l ) U e ( u + w.w.g.@X@X9X1.O @ k.W.4X2X6X'.<.",
",XP.>.>.z.>X5X6X'.<.c.x.}.NXZX#X$ y.r.qXHXIXLXHXbXcXnXnXnXa.yXlXhXgXgX@.+... .~ l { R T I G b.O . O O O X X O < ;.x.W.4X2X6X'.<.",
",XP.,.,.F ;X3XrX].l.c.l.}.VXAX3 , a.8.HXHXp.qXcXcXcXnXcXa.zXlXlXhXgXgX@.+.o.^ E zX[ [ T U G b.u @ n.b.Q.|.#X1XQ.v.l.W.3X3X4X].>.",
"P.=X>X>X;XY.P.P./.>X:X1X}.n.$X% H r.r.qXbXp.cXcXcXbXcXp.jXhXlXlXhX@.@.@.X. .` fXpXpXiXR U / / 1.O aXSXaX$X|.Q.=X:X8X.XP.U.P./.>X",
"e >X6X5X3XP.<.<.~.sX1XNX#Xn.k.$ s.8.i.HXLXcXs.v 1 1 P gX+.@.hXgX@.X.X.X...' zXy 3 < U B.T I D f.@ q SX$XM.b.v.7XsX5X Xw x.>.E.6X",
"e >X6X5X3XU.>.>.~.sX1XNX#Xm.6 * i.8.qXHXvXs.1 GXIX1 o ] +.@.@.+.X.X.X.} ' fX3 @XIXS o I N.Y &.f.2 < SX$XM.b.v.<X5X5X Xw z.>.E.4X",
"/ oX>X>X;XY.P.P.(.<X:XsX#Xm.< 1 a.B i.i.a.b S PXPXS + ; X.o.o.o.o.X.} ' lX) 1 PXPXG o - N.2.7.f.1.@ AXaXn.b.U.;X>X3XXXP.U.z./.,X",
";X/ >.,.e ;X3X4X.Xl.c.x.#XAX< 1 a.B r.i.a.1 % q.h.> * * ^  . .o.o.~ zXfXfXG % q.w., * % j.A.=.f.w.+ m.BXMXdX7XU.l.>.R.,X>X3X'.>.",
",XP.<.<.,.;X5X6X.Xk.v.b.%XSX< 5 a.B 8.r.i.v + > 2 2.2 * ~ ^  . .W zXfX$.fX( + > 2 2.&.> j.Z.-.6.1.+ m.BXBXMX7XU.x.<.T.4X2X6X'.<.",
"tXF >.>.e ,X6XeX.X;.x.k.%XSX< 3 g.N 8.8.8.b x h.f.DXS.Z ^  .^ Q zXfX$.fXfX{ , d.d.DXxX2 D.Z.3.6.M.+ n.VXVXMXsXc.;.;.R.eX6XeX'.;.",
"(.'.~.~.!.(.!.!.(.#X#X%XaXBX< 1 cXN B 8.8.u.bXu.y.xXH ~ %.%.W O.pX$.fX) { $.( d.mX0XyXwXn.Z.3.6.M.+ aXdX&X#X}.!.~.~.(.'.!.!.(.~.",
"e ,X6X6X4XP.;.;.~.NXBXCXaXJ.4 & nX9.N B wXIXvXwXL J ~ ~ %.$ ] ) o ) $.* ) pX[ ) L wXbXKXyX1.3.S.M.+ BX$Xb.k.l.<X5X6X Xw >.q E.eX",
"P.;X5X2X,XU.x.l.}.MXBXBXaXJ.:.+ bX9.N B L wXu.u.e.L ~ ~ Q Z - = b = - y pXpXiX{.V u.u.wXu.w.3.S.9 & AX|.b.v.c.=X1X5X Xz.c.>.E.2X",
"e ,X6X6XrXP.l.l.}.VXBXZXdXJ.m.X @Xi.N C k M V e.e._ ~ E ] pX[ { P ] [ pXiXiXV.FXs.i.i.s.f.4.3.L.< 4 AXQ.k.x.z.>X5X6XXXw l.;.E.6X",
"XXR.I.I.T. X:X:X:X&X$XaXBXAXSX@ 7 nX9.d h j E E Q W E ] iX[ pXiX[ pXiXiXiXV.FXK.G.G.H.Z.4.*.A.J.+ Q.CX:X%X-X*XW.^.I./.=X*X-X(.U.",
"oXY.c.c.U.=X1XsXdXJ.FXJ.AXDXUXQ.@ KXs.s g h j E ! E l iXR [ iXiXiXiXiXB.J.FXK.G.G.F.Z.C.3.3.L.:.+ BXdXsXsX7X,XY.c.c.W.>X=X>X'.z.",
"/ ;X2X7X3XQ.b.m.$Xq 6 3 1 3 6 t X 9XP a g g h h j h ) T R B.B.B.B.B.V.L.K.G.F.G.G.Z.C.4.*.A.L.% 4 aXn.:XsX1X<X,X3X4XXXw z.>./.4X",
"z.,X5X5X4XQ.n.k.% $ ; ; ; ; = * + # z a s s g h g H U T N.N.N.B.B.V.L.K.F.F.F.H.D.C.4.*.4.K.9 + m.m.n.sXNXsX7X4X5X6X X;.<.;.!.6X",
"W.]..X.X.X#X&X% 1 zXjX#...| ` K C + $ g a s s s a D I I b.N.N.V.j.H.F.H.H.H.D.Z.C.4.3.4.K.m.X b.AXaX%X:X#X}..X].[..X).^.^.^.(..X",
",X/ <.x.v.VXQ.o uXO.hX+.+.+.} ` J c . i f a s a b t t q I I j.A.H.D.D.D.D.Z.Z.C.4.3.4.L.J.o 6 JXJXSXVXQ.k.l.e F <.;.R.eX4XeX'.q ",
">XP.x.v.v.VX6 & 0Xl ......| ` k f J c . i f a n S y t t t 2.A.C.C.C.Z.Z.C.C.4.4.3.A.K.J.+ < SX#.#.DXCX|.k.x.z.P.c.x.W.2X2X6X'.<.",
",X/ <.x.v.VX6 & p.f h l l l k _ | ` K x . i J C 0 3 t 8 7.=.-.-.4.4.4.4.4.3.5.6.S.K.m.+ : VXfXjXgXfXkXQ.x.>.e / z.>.R.4X7XeX'.;.",
"R.XX*X-X*X%Xq X w.t.M m m d ` hX..| _ M x . * H J.,.&.7.=.*.=.=.=.=.=.=.7.6.xXxXFX:.X y CXO.W #.#.W ] :X:X*XoXoX X=X).Y.T.I.(.=X",
"e >X5X5X4Xb.n.< X + % % x M #.#.| ` K n N c + O k.S.xX6.5.=.=.7.7.6.f.f.xXFXFXk.@ O 6 VXCXCXtXW W }.m.dXMX1X7X3X5X6X Xw l.;.!.6X",
"e ,X6X5X4XQ.n.m.v.>.;.: % M ` Q ` E M n r.V N * . @ 4 M.S.S.S.S.xXxXxXxXM.4 + O < :.Q.7XNXNXZX_ %.J.n.1XNX5X4X,X6XsXXXw >.;.E.6X",
"]./.~.~.!..X%XaXdXBXSXq % B k l k f n u.wXe.B > : 3 + X O : < < u < : O O & 5 0.~.~.R.R.~.!.#XuXOXaX:X}.~.~.E./.E.E._..X[..X).W.",
",XP.<.<.z.<XNXVX:Xn.aX9 O t.V m m n C bXqXt.8.> : 0.`.q.7 1 > & & & 1 7 q.`.`.`.`.[.[.r :.<.>.:XMXsXsXI.;.<.e e >.;.R.eX6X6X'.q ",
",XP.<.l.z.1XMXNX:XM.n.M.O > b b x c t.KXqXt.8.@ < A q.q.0.0.7 8 8 8 G 0.q.q.G 0.0.`.`.0 r ;.>. X1X1X7XI.;.<.,.e <.;.R.6X5X6X'.>.",
"].W.^.~.~..X-X-X.X|.|.&XP.@ O O . , r.bXp.r.s.@ < S S S S S S 5 5 5 S S S S S A D q.0.G q.I.T./.~.!.[./.~.W.W.E.T.^.(..X.X*X/.F ",
"P.,X6X5X3XP.;.<.~.1X1X8X>X-X~.~.@ , V r.r.8.w.O 5 S 1 1 1 1 S A A q.5 8 8 8 5 8 6 7 7 `.+X-X>XU.;.>.w XX6X5X4X,X5X6XXXr >.>.F x.",
",.,X6X6X4XU.c.c.W.#X~.^.E.[.`.`.- > 9.B B 9.8 O A S 1 8 8 5 A q.q.q.S 8 8 8 5 7 7 7 0 {.-X8X>XU.;.<.w XX6X6X4X,X5X6XXXw <.<.F >.",
"].E.W.W.E.( / F R..X!.~.G A 7 A < @ i.9.9.g.: & 5 S A A A A A D D D G q.q.q.G 0.R.`.`.G U.T.R.).+X+X X_.W.W./._.W.W.(..X*X.XXX*X",
",XP.>.<.,.e >.>.T.-X+X+XG 6 6 8 < X 8 g.g.1.X < 8 5 0.0.0.`.D 7 0 7 0.+X[.+X].+X-X8X;XF ;.<.w XX6X2X4XU.>.>.e F <.>.T.4X2X2XtX4X",
",XP.>.x.z.e <.;.W.8X-X-XR.0 0 7 8 < X O O X > 8 8 A `.`.+X+XD 0 0 0 `.-X*X8XoX;X8X8X;XF >.,.,.XX5X2X4XY.<.l.I / x.>.T.4X2X5X,X2X",
"XXY.U.U.Y.Y.U.U./.=X*X=X/.q.q.F D A 5 1 1 1 5 7 A G {.[.[. XY.P.U.q.].;X;X>XoXXX=X-XXXY.U.I.U.].;X=X;XR.U.U.Y.Y.U.U.E.=X=X=XoX,X",
"/ ;X2X3X,X,X2X4X].w ,.>./.3X8X-X*XG 0 D 0 0.`.`.+XR.r ,.,.e oX3X2X2XtX3X>X2XXX,.z.>.F ;X2X3X3XY.>.z.,.oX4X2X,X,X3X4XXXw z.>./.4X",
"e ,X6X6X4X3X6XGX'.q <.:.E.6X7X2X4XY.r r 0 {.8X8X2X].r <.>.w ;X6X5X2XtX6X6X6XXXw <.>.e >X6X5XeXY.;.<.>.;X6X6X4X,X6X6X Xq <.:.E.kX",
"/.).[.[.].).[.'._.E.!.!._.'.'.'.'._.!.!./._.!.'.'.).(.!.!.(.).[.'.'.).'.'.[.).E.E.E./.).'.'.'._.!.!./._.[.'.].).[.[.).E.E.!._.'.",
",XF >.>.e e <.;.E.eX4XeX(.w >.>.w  X6X6XrXY.;.>.>.W.eX6X6XrXP.>.>.>.F >.>.;.R.rX6X6X4X/ <.<.w XX6X5XrX( >.<.e F <.;.R.eX6XsX].;.",
",XP.c.c.P.P.c.>.E.4X2X6X'.>.c.c.,. X6X2X4XR.x.c.>.W.4X2X5X3XY.x.c.c./ c.c.x.W.4X5X5X,XU.x.c.,.XX5X2X2XY.x.c.P./ c.>.R.4X2X6X].>.",
"                                                                                                                                ",
"                                                                                                                                ",
"                                                                                                                                ",
"                                                                                                                                ",
"                                                                                                                                "
};
