/* XPM */
static char *_cfa04d1ab994f3cd9c4af53ed2c01c3rnVWXgqh7Pihr466[] = {
/* columns rows colors chars-per-pixel */
"64 64 235 2 ",
"   c None",
".  c #030202",
"X  c #0A0507",
"o  c #0A060A",
"O  c #0B0A0B",
"+  c #060808",
"@  c #10070B",
"#  c #130B0B",
"$  c #190D0E",
"%  c #0D0912",
"&  c #130C15",
"*  c #180D17",
"=  c #141113",
"-  c #1B1314",
";  c #1B151B",
":  c #181B1A",
">  c #16140F",
",  c #240E15",
"<  c #24111C",
"1  c #261716",
"2  c #321C1C",
"3  c #381C1B",
"4  c #162119",
"5  c #37221D",
"6  c #1D1725",
"7  c #231C24",
"8  c #281C28",
"9  c #361C27",
"0  c #2C1C39",
"q  c #331E38",
"w  c #292326",
"e  c #352829",
"r  c #2D2335",
"t  c #2D213B",
"y  c #372937",
"u  c #39373A",
"i  c #2B3629",
"p  c #40231F",
"a  c #441C29",
"s  c #501F2E",
"d  c #452728",
"f  c #57262C",
"g  c #57372B",
"h  c #472A37",
"j  c #552C32",
"k  c #453639",
"l  c #5A3535",
"z  c #48332C",
"x  c #69373A",
"c  c #6E3638",
"v  c #314432",
"b  c #46403B",
"n  c #59443D",
"m  c #73453F",
"M  c #3A2B4A",
"N  c #362A44",
"B  c #3D344A",
"V  c #3F3152",
"C  c #473947",
"Z  c #57394B",
"A  c #483A58",
"S  c #522F49",
"D  c #5C3E53",
"F  c #4A4748",
"G  c #57474A",
"H  c #435B44",
"J  c #5C534B",
"K  c #4A455A",
"L  c #584858",
"P  c #585457",
"I  c #674547",
"U  c #754A46",
"Y  c #624455",
"T  c #695958",
"R  c #7B5656",
"E  c #6F504F",
"W  c #746558",
"Q  c #69715E",
"!  c #4D4463",
"~  c #524967",
"^  c #554C6B",
"/  c #59546B",
"(  c #5A5372",
")  c #684C6B",
"_  c #71496A",
"`  c #655864",
"'  c #74596A",
"]  c #71557A",
"[  c #686464",
"{  c #776767",
"}  c #7C726B",
"|  c #746C78",
" . c #79717B",
".. c #4D6750",
"X. c #85483E",
"o. c #874944",
"O. c #9A5C47",
"+. c #855658",
"@. c #8F5751",
"#. c #AA5857",
"$. c #B5535B",
"%. c #8A625E",
"&. c #A66958",
"*. c #B0735C",
"=. c #805D75",
"-. c #8A5466",
";. c #866668",
":. c #966867",
">. c #89776C",
",. c #987469",
"<. c #876874",
"1. c #8A777A",
"2. c #977779",
"3. c #91667F",
"4. c #A87669",
"5. c #AA6973",
"6. c #AA7B77",
"7. c #BB7673",
"8. c #B66C69",
"9. c #C66B6B",
"0. c #6F886D",
"q. c #98877C",
"w. c #849C7B",
"e. c #8D867C",
"r. c #A98677",
"t. c #B48576",
"y. c #BB9374",
"u. c #87A07F",
"i. c #765A86",
"p. c #786687",
"a. c #756B86",
"s. c #8D6782",
"d. c #986886",
"f. c #84748D",
"g. c #977987",
"h. c #897595",
"j. c #93799D",
"k. c #866C93",
"l. c #A57E8D",
"z. c #967AA2",
"x. c #877CA4",
"c. c #868587",
"v. c #968B86",
"b. c #978998",
"n. c #928C99",
"m. c #A98A8A",
"M. c #B98D87",
"N. c #BA9783",
"B. c #A78898",
"V. c #B09797",
"C. c #95AB8A",
"Z. c #B8A29B",
"A. c #A4B896",
"S. c #AFA18D",
"D. c #9E84AA",
"F. c #9A85A6",
"G. c #9B95A6",
"H. c #8F86AF",
"J. c #A38AAD",
"K. c #A187A8",
"L. c #A597A9",
"P. c #BA98A6",
"I. c #AB95B3",
"U. c #B29DB7",
"Y. c #BCA7A2",
"T. c #B5A8B9",
"R. c #B2AEB2",
"E. c #C69588",
"W. c #D49488",
"Q. c #D09289",
"!. c #C6A998",
"~. c #D8A796",
"^. c #DAB29D",
"/. c #CFA692",
"(. c #E5AC99",
"). c #E7B19B",
"_. c #C7AAA7",
"`. c #C8AAB3",
"'. c #CBBCB9",
"]. c #D4BBBA",
"[. c #D0B7AA",
"{. c #EBBAA6",
"}. c #F2BCA3",
"|. c #D9C4BA",
" X c #DDC8AD",
".X c #E8C4AC",
"XX c #E4C7B7",
"oX c #F4CDB3",
"OX c #EED4BC",
"+X c #FCDCBB",
"@X c #F6D5B8",
"#X c #F5C7AA",
"$X c #FFE1BE",
"%X c #B7AAC5",
"&X c #BDB4C6",
"*X c #B3B0D1",
"=X c #C7B8CB",
"-X c #C2BCD4",
";X c #C9B6C8",
":X c #CAC6CB",
">X c #DAC8C4",
",X c #CDC3D3",
"<X c #C7C4DB",
"1X c #D4CCDC",
"2X c #D3C7D8",
"3X c #DAD7D8",
"4X c #DFD3C8",
"5X c #E4CFC7",
"6X c #E5D3CB",
"7X c #E6D5C9",
"8X c #FADEC0",
"9X c #F5DCC4",
"0X c #E8DBD6",
"qX c #FEE3C2",
"wX c #FBE7CA",
"eX c #EDE4DC",
"rX c #F3E4DA",
"tX c #F7E8D6",
"yX c #FCF5DB",
"uX c #D9D6E4",
"iX c #D0CFE6",
"pX c #E2DBE5",
"aX c #E2DDE9",
"sX c #E5E2EB",
"dX c #E9E6EC",
"fX c #ECEAED",
"gX c #EEE5E1",
"hX c #F3EBE9",
"jX c #EEEDF3",
"kX c #E3E2F0",
"lX c #F0EFF3",
"zX c #F4F3F5",
"xX c #FDFDFD",
"cX c #F6F6F9",
"vX c #F7F5ED",
/* pixels */
"                                                                                                                                ",
"                                                                                                                                ",
"                                                          w | c.c.c.c.c.P O                                                     ",
"                                                7 w 8 & C L.fXxXcXzXzXzX3X[ u w                                                 ",
"                                            C L b.I.j.L G.=XuXzXxXxXxXzXzXdXfXT.P 7                                             ",
"                                          P :XaX,XT.K.j.I.1XlXxXxXxXxXxXxXxXxXxXzXb.;                                           ",
"                                        P ,XjXdXfXfX;Xz.J.=X1XcXdX:X:X3XxXxXxXxXxXjXL.y                                         ",
"                                      L ,XjXzXfXjXzXpXj.z.D.I.%Xh.A A K ,XxXxXxXxXlXjXG.w                                       ",
"                                    [ :XsXzXxXzXjX;XP.`.`.V.g.<._ _ _ D ) T.lXxXxXxXdXfXL.u                                     ",
"                                    G.xXpXxXxXxXb.M.^.@XwXyXyXwX^.!.!.t.4.-.b.zXxXxXfXzXxXP                                     ",
"                                  F :XpXpXxXxXcX1.^.8XwXqXwXwXqXqXqX$X@X}.Q.-.;XxXxXzXpXzXb.7                                   ",
"                                  ` uX,XpXjXxXpXm.@XwXwX$X$X$X$X$X$X$X$X+XoX7.=.pXcXdX,XfXT.7                                   ",
"                                ; f.=X%XpXfXlXL.6.@XqX$X+XqXqXqX$X$X$X$X$X+X~.<.U.dXsX=XdXT.7                                   ",
"                                ; h.I.I.pXdXlXb.6.+X$X$X$XqX$X$X$X$X$X$X$XqX@X7.d.1XsX=X1XK.w                                   ",
"                                ; h.D.I.,X1XfXB.E.+X$X$X$X$X$X$X$X$X$X$X$X$X$X~.-.J.pX&X=XJ.A                                   ",
"                                ; f.F.D.J.,X,X-.).+X$X8X9X8X$X$X$XqX$X$X$X+X9X@X5.K.=XJ.J.J.k.y                                 ",
"                                ; ^ i.K.D.,XU.:.#X$X+X0XpXeX9XqX$X$XqX8X9XpXaX0X/.s.J.D.D.F.h.L X                               ",
"                                O ; ) F.F.I.3.Q.@XqX|.G.R.:X<X5X$X$XqX5X<X:XR.R.[.-.p.J.J.j.r                                   ",
"                                  . A k.j.i.5.).@XN.{ P u 6 | XX$XqXqX!./ K B k W ,.] h.D.j.7                                   ",
"                                  . A i.p.] 5.#X!.T '.:Xu . - T +XqXOXT L.:X` + X 8 ' ] z.j.7                                   ",
"                                    r k k 8 +.^.W v.:XF . . k T S.+Xq.} 3Xv.O . = k N A p.A =                                   ",
"                                    z !..XT w k e [.F . . . W q.w J w Y.v.O . . 1 } % & & e w                                   ",
"                                    >.oX7.E.t.!.F _.e . . O e.e.J S.b Z.} . . . u } * 9 x ~.J                                   ",
"                                  . e.(.$.@.8.oX{ { w . O F  .Y !.yXq.` T . . w ` C j $.9..XJ                                   ",
"                                  . >.{.8.$.8.(. XJ O . u K k 6.OX@XXXT 8 . : K C k @.W.Q.^.e                                   ",
"                                    l ~.W.Q.W.~.$X XW n G P L.hXrXXXrX0Xb.C G J S.r.+..X~.U #                                   ",
"                                    X l M.(.4.t.+X$X+XOX=XuXxXxXcXuXzXxXxX1X=XOXqXr.1 e 2 @                                     ",
"                                        1 e - n (.}.}.;XlXxXzXsX<XU.-XkXzXxXjX;X{.%.X                                           ",
"                                              1 l 8.7.U.iXuX*X-XuXxXuX-X*XiXiXB.%.e                                             ",
"                                                X - y p.x.%XiXlXxXcXcXjX-XH.a.7 #                                               ",
"                                                      * 7 ( h.H.<X*XH.x.a.N %                                                   ",
"                                                      O ; 9 q C 3.d.Z y q < o             O 4 4 : 4 >                           ",
"                                                    8 Y Y S C n.2.7.<.f.C S Z y           O ..0.w.0.v .                         ",
"                                                  w { V.l.R | aXR.G &X1X` +.V.<.w         + Q A.C.A.i .                         ",
"                                                  1.>X5X!.%.` &Xa.p.a.G.G ,.|.|.1.        + 0.u.C.0.v .                         ",
"                                                1.lX0XrX_.:.S L F.%Xn.B I r.5X6XfX{ X 7 P : 0.w.w.C.v .                         ",
"                          $ 2 2 2 $           P 3XxX0XrX[.:.Z c.uX<XsX` E 6.5X6XgX'.n.T XXi H C.A.C.v .                         ",
"                        e &.&.#.&.@.2     O [ R.vX0X5X0X5X;.Y b.sXjXdX{ I ,.7XY.].vXR.t.N.e v.} H H i .                         ",
"                      d N.&.f a s o.@.e b c.:XhXgX|.m.|.rXT Y b.,X=X1X' Z v.rXg.Y.gX[ 4.E Z._.XXb X +                           ",
"                    1 y.t., . . b I >.0X|.V.0X4XgX].;.|.tX[ Y  .%X%X%X` G v.rX1.V.>XT x >. X/./.t.#                             ",
"                    1 *.m X     :.6.q.wXoX,.v.6X|.'.' |.0XT Y a.&X1X-X` Z e.rX<.g.`.G $ r.E.~.#.l @                             ",
"                    - o.x X   X ,..Xt.4.m x L >X[.<.Z >X5XG h L f.b.p.C h 1.rX{ w =.T y k R j l @                               ",
"                    X , , X   . U ~.:.2 $ 1 k ].B.y g.rXV.e h z &.4.j 9 e { rXV.- & e e ; . .                                   ",
"                      . .       n {.~.j @ 8 L ' e e P.rXv.8 9 , f f , < 8 { rX_.w                                               ",
"                                # d j a # y C ; o ' ].eXT 6 r r r t 0 r 8 u 4X>XT =                                             ",
"                                  . 2 x @ . .   ; s.6XeXL N ( ( A ! ~ ( A y >X6X<.*                                             ",
"                                    g O.$       Z B.6X7XG N ~ ~ A M ! ^ V y '.6Xl.C                                             ",
"                                    g O.$     y =.`.0X|.L M N q 0 0 0 M M y _.6XP._ 7                                           ",
"                                    g O.#     Z d.`.7X_.L ~ K *   o 6 ~ ! y M.].P.s.y                                           ",
"                                    g O.#     - y m._.m.L ^ B +     O K ~ y 2.Z.1.8 =                                           ",
"                                    d X.#       . = ; 7 B ( t o     o N ^ N ; - = .                                             ",
"                                    z o.#           % 0 ! ( t +     o t ( A 0 o                                                 ",
"                                    d X.#           & A ( ! 6         7 ~ / N o                                                 ",
"                                    d X.#           & M ( A %         % A / N o                                                 ",
"                                    d c @           & t K M %       X & B A 0 o                                                 ",
"                                    5 c @           o * ; * X         + * * * .                                                 ",
"                                    p c @         # 1 $ 2 9 X         o d 9 $ 1 #                                               ",
"                                    3 l @       X l N.R j 9 .         X d l U N.I o                                             ",
"                                    < s o       o j +.U d < .         o < a m R l @                                             ",
"                                    @ , X       X < d h 9 O           . O 9 h d < X                                             ",
"                                      .                                                                                         ",
"                                                                                                                                ",
"                                                                                                                                ",
"                                                                                                                                "
};
