/* XPM */
static char *_f2f53271bf64259ef1dd78e66c4e821VxAJPmbNUzvZycqO[] = {
/* columns rows colors chars-per-pixel */
"64 64 235 2 ",
"   c None",
".  c #020202",
"X  c #0A0507",
"o  c #0A060A",
"O  c #0B0A0B",
"+  c #070608",
"@  c #10070B",
"#  c #130B0C",
"$  c #190D0E",
"%  c #0D0912",
"&  c #130C15",
"*  c #180D17",
"=  c #141113",
"-  c #1B1314",
";  c #1B151B",
":  c #1A181D",
">  c #1C120E",
",  c #240E15",
"<  c #261518",
"1  c #321C1C",
"2  c #381C1B",
"3  c #37221D",
"4  c #1D1725",
"5  c #231C24",
"6  c #281C28",
"7  c #361C27",
"8  c #2C1C39",
"9  c #331E38",
"0  c #2A2327",
"q  c #352729",
"w  c #2D2335",
"e  c #2D213B",
"r  c #372937",
"t  c #39373A",
"y  c #28372A",
"u  c #192218",
"i  c #40231F",
"p  c #441C29",
"a  c #501F2E",
"s  c #462728",
"d  c #56272B",
"f  c #46332C",
"g  c #56392B",
"h  c #472A37",
"j  c #552C32",
"k  c #453639",
"l  c #593636",
"z  c #69373A",
"x  c #6E3638",
"c  c #3A4737",
"v  c #59443D",
"b  c #43403D",
"n  c #73453F",
"m  c #3A2B4A",
"M  c #362A44",
"N  c #3D344A",
"B  c #3F3152",
"V  c #473947",
"C  c #57394B",
"Z  c #483A58",
"A  c #522F49",
"S  c #5C3E53",
"D  c #4A4748",
"F  c #564749",
"G  c #465744",
"H  c #5A554B",
"J  c #4A455A",
"K  c #584858",
"L  c #575459",
"P  c #674547",
"I  c #744945",
"U  c #624455",
"Y  c #685858",
"T  c #7A5656",
"R  c #6C5650",
"E  c #5B6A54",
"W  c #546650",
"Q  c #74655A",
"!  c #6A6C5D",
"~  c #4D4463",
"^  c #524967",
"/  c #554C6B",
"(  c #59546B",
")  c #5A5372",
"_  c #684C6B",
"`  c #71496A",
"'  c #655864",
"]  c #74596A",
"[  c #71557A",
"{  c #686464",
"}  c #776767",
"|  c #7B746C",
" . c #746C78",
".. c #737571",
"X. c #85483E",
"o. c #874944",
"O. c #9A5C47",
"+. c #855658",
"@. c #8F5751",
"#. c #AC5756",
"$. c #B5535B",
"%. c #87645D",
"&. c #A66958",
"*. c #B0735C",
"=. c #805D75",
"-. c #8A5466",
";. c #856667",
":. c #966867",
">. c #88766C",
",. c #987469",
"<. c #876874",
"1. c #8A787A",
"2. c #977779",
"3. c #91667F",
"4. c #A87669",
"5. c #AA6973",
"6. c #AA7B77",
"7. c #BB7673",
"8. c #B66C69",
"9. c #C66B6B",
"0. c #74896C",
"q. c #76896E",
"w. c #8B8578",
"e. c #97867B",
"r. c #85997B",
"t. c #A98677",
"y. c #B48576",
"u. c #BB927A",
"i. c #765A86",
"p. c #786687",
"a. c #756B86",
"s. c #8D6782",
"d. c #986886",
"f. c #84748D",
"g. c #977987",
"h. c #897595",
"j. c #93799D",
"k. c #866C93",
"l. c #A57E8D",
"z. c #967AA2",
"x. c #877CA4",
"c. c #868587",
"v. c #978A86",
"b. c #978998",
"n. c #948E95",
"m. c #A98A8A",
"M. c #B98D87",
"N. c #A89586",
"B. c #BA9784",
"V. c #A78898",
"C. c #B0969A",
"Z. c #8CA282",
"A. c #92A786",
"S. c #BCA59A",
"D. c #AFA18D",
"F. c #9E84AA",
"G. c #9A85A6",
"H. c #9B95A6",
"J. c #8F86AF",
"K. c #A38AAD",
"L. c #A187A8",
"P. c #A597A9",
"I. c #BA98A6",
"U. c #AB95B3",
"Y. c #B29DB7",
"T. c #BCA7A2",
"R. c #B5A8B9",
"E. c #B2AEB2",
"W. c #D49488",
"Q. c #CC9389",
"!. c #C6A998",
"~. c #D8A896",
"^. c #DAB29D",
"/. c #CFB198",
"(. c #E5AC99",
"). c #E7B19B",
"_. c #C6AAA8",
"`. c #C8AAB3",
"'. c #CBBCB9",
"]. c #D4BBBA",
"[. c #D0B7AA",
"{. c #EBBAA6",
"}. c #F2BCA3",
"|. c #D8C4BA",
" X c #DCC4A8",
".X c #E8C4AC",
"XX c #E4C7B7",
"oX c #F4CDB3",
"OX c #EED4BC",
"+X c #FCDCBB",
"@X c #F6D5B8",
"#X c #F5C7AA",
"$X c #FFE1BE",
"%X c #B7AAC5",
"&X c #BDB4C6",
"*X c #B3B0D1",
"=X c #C7B8CB",
"-X c #C2BCD4",
";X c #C9B6C8",
":X c #CAC6CB",
">X c #DAC8C4",
",X c #CDC3D3",
"<X c #C7C4DB",
"1X c #D4CCDC",
"2X c #D3C7D8",
"3X c #DAD7D8",
"4X c #DFD3C8",
"5X c #E4CFC7",
"6X c #E5D3CB",
"7X c #E6D5C9",
"8X c #FADEC0",
"9X c #F5DCC4",
"0X c #E8DBD6",
"qX c #FEE3C2",
"wX c #FBE7CA",
"eX c #EDE4DC",
"rX c #F3E4DA",
"tX c #F7E8D6",
"yX c #FCF5DB",
"uX c #D9D6E4",
"iX c #D0CFE6",
"pX c #E2DBE5",
"aX c #E2DDE9",
"sX c #E5E2EB",
"dX c #E9E6EC",
"fX c #ECEAED",
"gX c #EEE5E1",
"hX c #F3EBE9",
"jX c #EEEDF3",
"kX c #E3E2F0",
"lX c #F0EFF3",
"zX c #F4F3F5",
"xX c #FDFDFD",
"cX c #F6F6F9",
"vX c #F7F5ED",
/* pixels */
"                                                                                                                                ",
"                                                                                                                                ",
"                                                          0 ..c.c.c.c.c.L O                                                     ",
"                                                5 0 6 & V P.fXxXcXzXzXzX3X{ t 0                                                 ",
"                                            V L b.U.j.K H.=XuXzXxXxXxXzXzXdXfXR.L 5                                             ",
"                                          L :XaX,XR.L.j.U.1XlXxXxXxXxXxXxXxXxXxXzXb.;                                           ",
"                                        L ,XjXdXfXfX;Xz.K.=X1XcXdX:X:X3XxXxXxXxXxXjXP.r                                         ",
"                                      L ,XjXzXfXjXzXpXj.z.F.U.%Xh.Z Z J ,XxXxXxXxXlXjXH.0                                       ",
"                                    { :XsXzXxXzXjX;XI.`.`.C.g.<.` ` ` S _ R.lXxXxXxXdXfXP.t                                     ",
"                                    H.xXpXxXxXxXb.M.^.@XwXyXyXwX^.!.!.y.4.-.b.zXxXxXfXzXxXL                                     ",
"                                  D :XpXpXxXxXcX1.^.8XwXqXwXwXqXqXqX$X@X}.W.-.;XxXxXzXpXzXb.5                                   ",
"                                  ' uX,XpXjXxXpXm.@XwXwX$X$X$X$X$X$X$X$X+XoX7.=.pXcXdX,XfXR.5                                   ",
"                                : f.=X%XpXfXlXP.6.@XqX$X+XqXqXqX$X$X$X$X$X+X~.<.Y.dXsX=XdXR.5                                   ",
"                                ; h.U.U.pXdXlXb.6.+X$X$X$XqX$X$X$X$X$X$X$XqX@X7.d.1XsX=X1XL.0                                   ",
"                                ; h.F.U.,X1XfXV.Q.+X$X$X$X$X$X$X$X$X$X$X$X$X$X~.-.K.pX&X=XK.Z                                   ",
"                                : f.G.F.K.,X,X-.).+X$X8X9X8X$X$X$XqX$X$X$X+X9X@X5.L.=XK.K.K.k.r                                 ",
"                                ; / i.L.F.,XY.:.#X$X+X0XpXeX9X$X$X$XqX8X9XpXaX0X!.s.K.F.F.G.h.K X                               ",
"                                O ; _ G.G.U.3.Q.@XqX|.H.E.:X<XOX$X$XqX5X<X:XE.E.[.-.p.K.K.j.w                                   ",
"                                  . Z k.j.i.5.).@XB.} ( t 4  .XX$XqXqX!.( J N k Q ,.[ h.F.j.5                                   ",
"                                  . Z i.p.[ 5.#X!.Y '.:Xt . - R +XqXOXR P.:X' + X 7 ] [ z.j.5                                   ",
"                                    w k k 6 +./.Q v.:XD . . V Y D.+Xe.| 3Xn.O . = k M Z p.Z =                                   ",
"                                    f !..XR 0 k q [.D . . . ! e.0 H 0 T.v.O . . < | % & & q 0                                   ",
"                                    >.oX7.Q.y.!.D _.q . . O w.w.H D.b S.| . . . t | * 7 z /.H                                   ",
"                                  . w.(.$.@.8.oX} } 0 . O D  .U !.yXe.' Y . . 0 ' V j #.9..XF                                   ",
"                                  . >.{.8.#.8.(. XH O . t J k 6.OX@XXXY 6 . : J V k @.W.W.^.q                                   ",
"                                    l ~.W.Q.W.~.$X XQ v F L P.hXrXXXrX0Xn.V F H N.t.+..X~.I #                                   ",
"                                    X l Q.(.4.y.+X$X$XOX=XuXxXxXcXuXzXxXxX1X=XOXqXt.< q 1 @                                     ",
"                                        < q - v (.}.}.;XlXxXzXsX<XY.-XkXzXxXjX;X{.%.X                                           ",
"                                              < l 8.7.Y.iXuX*X-XuXxXuX-X*XiXiXV.@.q                                             ",
"                                                X - r p.x.%XiXlXxXcXcXjX-XJ.a.5 #                                               ",
"                                                      * 5 ) h.J.<X*XJ.x.a.M %                                                   ",
"                                                      O ; 7 9 V 3.d.C r 9 < O                                                   ",
"                                                    6 U U A V b.2.7.<.f.V A C r                       y                         ",
"                                                  0 } C.l.T  .pXE.F ;X1X' +.C.<.0             c c G W G c                       ",
"                                                  1.>X5X!.%.' &Xa.p.a.H.F ,.|.|.1.      >.1.! H E ..q.0.E c                     ",
"                                                ..lX0XrX_.:.A K G.*Xb.N P t.5X6XfX} # F w.N.w...q.r.Z.Z.0.G                     ",
"                          $ 1 1 1 >           L 3XxX0XrX[.:.S c.uX<XsX' T 6.5X6XhX|.n.Q |.S.N.r.Z.Z.A.A.q.W                     ",
"                        q &.&.#.&.@.1     o { E.vX0X5X0X5X;.U n.sXjXdX} P ,.7XT.|.vXE.y.B.N.w.q.Z.r.r.r.! G                     ",
"                      f B.&.d p a o.@.q k c.:XhXgX|.m.|.rXY U n.,X=X1X] C v.rX2.T.gX{ &.R   H E q.0.! E G y                     ",
"                    < u.y., . X v P >.0X|.C.0X4XgX].;.|.tX{ U  .%X%X%X' F v.rX1.C.>XY z ;.S.%.R E G c c                         ",
"                    < *.n X     :.6.e.wXoX,.v.6X>X'.] |.0XY U a.&X1X=X' C e.rX<.g.`.F $ t.u.t.I f u                             ",
"                    - o.z X   X ,..Xy.4.n z K 4X[.<.C >X5XF h K f.b.p.V h 1.rX} 0 ] Y r k T d d O                               ",
"                    X , , .   X I ~.:.1 $ < k ].V.r g.rXD.q h f &.4.j 7 q } rXC.; # q q ; . .                                   ",
"                      . .       v {.~.j @ 6 K ] q q I.rXv.6 7 , d d , , 6 } rX_.0                                               ",
"                                # s j p # r V ; o ] ].eXY 4 w w w e w w 6 t 4X>XY =                                             ",
"                                  . 1 z @ . .   ; s.6XeXK M ) ) Z ~ ^ ) Z r >X6X<.*                                             ",
"                                    g O.$       C V.6X7XF M ^ ^ B m ~ / B r '.6Xl.V                                             ",
"                                    g O.$     r =.`.0X|.K m M 9 8 8 8 m m r _.6XI.` 5                                           ",
"                                    g O.#     C d.`.7X_.K ^ J *   o 4 ^ ~ r M.].I.s.r                                           ",
"                                    g O.#     - r m._.m.K / N +     O J ^ r 2.S.1.6 =                                           ",
"                                    s X.#       . = ; 5 N ) e o     o M / M ; - = .                                             ",
"                                    f o.#           % 8 ~ ) e +     o e ) Z 8 o                                                 ",
"                                    s X.#           & Z ) ~ 4         5 ^ ( M o                                                 ",
"                                    s X.#           & m ) Z %         % Z ( M o                                                 ",
"                                    s x @           & e J m %       X & N Z 8 o                                                 ",
"                                    3 x @           o * ; * X         + * * * X                                                 ",
"                                    i x @         # < $ 1 7 X         o s 7 $ < #                                               ",
"                                    2 j @       X l B.T j 7 X         X s l I B.P o                                             ",
"                                    < a o       o j +.I s < X         o < p n T l @                                             ",
"                                    @ , X       X < s h 7 O           X O 7 h s < X                                             ",
"                                      .                                                                                         ",
"                                                                                                                                ",
"                                                                                                                                ",
"                                                                                                                                "
};
