/* XPM */
static char *ee1258b7491c4ca7f7d6a3d0b963fb08WHFlCvwej9EsvAs9[] = {
/* columns rows colors chars-per-pixel */
"64 64 256 2 ",
"   c None",
".  c #340C33",
"X  c #222C33",
"o  c #501C3B",
"O  c #263744",
"+  c #39324B",
"@  c #37306C",
"#  c #181A62",
"$  c #493453",
"%  c #683653",
"&  c #4A366D",
"*  c #712F6F",
"=  c #531B5A",
"-  c #34464A",
";  c #3A4A54",
":  c #354C51",
">  c #394A6C",
",  c #3E6076",
"<  c #454958",
"1  c #455559",
"2  c #4F4454",
"3  c #485B64",
"4  c #485477",
"5  c #58597B",
"6  c #4D4569",
"7  c #764F71",
"8  c #4B6369",
"9  c #566973",
"0  c #596E77",
"q  c #63676B",
"w  c #686979",
"e  c #727A7C",
"r  c #70717C",
"t  c #6E5151",
"y  c #AE6C36",
"u  c #91562E",
"i  c #8D3973",
"p  c #A7336F",
"a  c #912C5D",
"s  c #EC287C",
"d  c #984F55",
"f  c #98704E",
"g  c #AE704E",
"h  c #8F5071",
"j  c #B25277",
"k  c #8F6D6C",
"l  c #AE6A64",
"z  c #B16E66",
"x  c #B66D6B",
"c  c #A95356",
"v  c #C34B7C",
"b  c #D05073",
"n  c #D67075",
"m  c #EE7579",
"M  c #D37149",
"N  c #913919",
"B  c #7AAB7F",
"V  c #B48F4A",
"C  c #B18F72",
"Z  c #B9B173",
"A  c #8E8C70",
"S  c #C99045",
"D  c #D5B356",
"F  c #D69970",
"G  c #FB887A",
"H  c #FC9678",
"J  c #EB8F6A",
"K  c #DAB46F",
"L  c #FBBB6B",
"P  c #FBA677",
"I  c #FFBB78",
"U  c #E7B56F",
"Y  c #E49F51",
"T  c #ECCE58",
"R  c #FDD66A",
"E  c #FFDA7A",
"W  c #F6CB6D",
"Q  c #FEEB68",
"!  c #FEF466",
"~  c #FEEA78",
"^  c #FFF875",
"/  c #FDEA5F",
"(  c #B78339",
")  c #2B3689",
"_  c #1B3992",
"`  c #523487",
"'  c #5F2D96",
"]  c #365293",
"[  c #2B53AF",
"{  c #3170B9",
"}  c #545394",
"|  c #775B9D",
" . c #6C5490",
".. c #526B91",
"X. c #666787",
"o. c #767B85",
"O. c #7B7594",
"+. c #6C6F91",
"@. c #7159AB",
"#. c #4F77AE",
"$. c #757CAA",
"%. c #7969B9",
"&. c #706AAE",
"*. c #565AB8",
"=. c #387BCA",
"-. c #5767C5",
";. c #4978CB",
":. c #5376CC",
">. c #6C71CA",
",. c #7558CC",
"<. c #963283",
"1. c #AA3C98",
"2. c #965385",
"3. c #8F518C",
"4. c #BC5892",
"5. c #B34F85",
"6. c #987C94",
"7. c #8E6D90",
"8. c #AE678F",
"9. c #8777A5",
"0. c #8666B5",
"q. c #8C71AA",
"w. c #A967AD",
"e. c #BA5FA0",
"r. c #C35A94",
"t. c #D1538E",
"y. c #CF6F8F",
"u. c #ED57A6",
"i. c #F76BB1",
"p. c #DD6696",
"a. c #8A75C5",
"s. c #A76BDC",
"d. c #FF77C1",
"f. c #22A3B6",
"g. c #77868B",
"h. c #708B8E",
"j. c #79AA83",
"k. c #73B397",
"l. c #528BB2",
"z. c #7292B1",
"x. c #7CBBA3",
"c. c #6AA5B5",
"v. c #71B3B2",
"b. c #59ADB3",
"n. c #7BC5B8",
"m. c #75C2A1",
"M. c #40C0AF",
"N. c #3B86D2",
"B. c #4A8AD5",
"V. c #4896D6",
"C. c #5499DA",
"Z. c #548CCB",
"A. c #7289CF",
"S. c #5CA5CA",
"D. c #5CBAD9",
"F. c #52A7D6",
"G. c #68B2D3",
"H. c #55AAE4",
"J. c #5AB6E6",
"K. c #4FBAEC",
"L. c #5F9EEC",
"P. c #70C5E8",
"I. c #65CED7",
"U. c #83878C",
"Y. c #878A97",
"T. c #998496",
"R. c #929294",
"E. c #AD958E",
"W. c #84B791",
"Q. c #8B99AA",
"!. c #999AA6",
"~. c #888AB7",
"^. c #8D95BB",
"/. c #928EAE",
"(. c #A88EAE",
"). c #9AA5B5",
"_. c #8FAEAF",
"`. c #A6A5AD",
"'. c #AFADB2",
"]. c #CF8C8F",
"[. c #FD8884",
"{. c #FE978D",
"}. c #D6AD91",
"|. c #FAB788",
" X c #EFB094",
".X c #CD93A3",
"XX c #F691B6",
"oX c #CDB4B4",
"OX c #EEBAA7",
"+X c #8AC896",
"@X c #ABD999",
"#X c #B1E599",
"$X c #87C4A6",
"%X c #97C8A9",
"&X c #90D3AC",
"*X c #A4D1A8",
"=X c #B1F1AB",
"-X c #91E099",
";X c #F5D988",
":X c #F1CA8B",
">X c #FCE98A",
",X c #FDF196",
"<X c #F4CFB1",
"1X c #FDF7B7",
"2X c #FDF1AC",
"3X c #D1C5A9",
"4X c #9486C6",
"5X c #9190C9",
"6X c #A88ECF",
"7X c #99B7D4",
"8X c #8FB1C7",
"9X c #B6A9C9",
"0X c #B6B7C6",
"qX c #B6B4D8",
"wX c #A8B9D4",
"eX c #9A9CE5",
"rX c #898EF0",
"tX c #AD96E6",
"yX c #98ADEF",
"uX c #AEB2EC",
"iX c #CFB2CE",
"pX c #EFB8CD",
"aX c #CD96F1",
"sX c #C5B9F9",
"dX c #D997C9",
"fX c #A9C8D8",
"gX c #B3C5DC",
"hX c #AACCCC",
"jX c #93C8EA",
"kX c #AAC5E4",
"lX c #B1C4E3",
"zX c #BCC7E8",
"xX c #B1D3EE",
"cX c #B9EAFB",
"vX c #86D3C4",
"bX c #CAC6C6",
"nX c #CFCCD1",
"mX c #E9CDCE",
"MX c #FEF4C6",
"NX c #FFFBDA",
"BX c #FEEACF",
"VX c #C8D6E9",
"CX c #D6DAF9",
"ZX c #CECFF4",
"AX c #EADCEB",
"SX c #D7E9E5",
"DX c #C9EAFE",
"FX c #D7E6F9",
"GX c #D9F7FE",
"HX c #C9E6F2",
"JX c #FFFFE7",
"KX c #EBE9F7",
"LX c #E6FAFF",
"PX c #FEFEFE",
"IX c #F9FAF9",
"UX c #EEEBEA",
/* pixels */
"                                                                                                                                ",
"                                                                                                                                ",
"                                                                  ,X                                                            ",
"                                                                D 2XD                                                           ",
"                                                                D 2XW                                                           ",
"                                                                Q ,X^                                                           ",
"                                                              V ^ ,X^ S                                                         ",
"                                                  OXmXmXmXmX3X:XQ ,XQ W OX<X<X<X<X                                              ",
"                                               XMXNXJXPXIXJXJXMX~ ,X~ MXJXJXJXPXIXNXMXOX                                        ",
"                                                c H I :X<X2X2X1X1X,X2XMX1X1X<X:XI H g                                           ",
"                                                  t j [.P |.OX<XMXPXBX<X<X|.P H n d                                             ",
"                                        Z         q X o 5.G H L ~ JX>XL H H y.a                                                 ",
"                                                  e W.^.*.p E ! >X|.;X! Q j ' 4X`.                              >X              ",
"                    E PX                        nXFX8Xl._ x ! ~  XG {.~ ! n _ Z.8XCXnX                        PXW               ",
"                    T JXPXPXPXJX            bXLXfX$X&XZ.) H ! P [.H G H ! P ` l.%X$XhXLXnX            JXPXPXPXJXT               ",
"                y D Q ,XPXPX1XD           IXHX_.#X%XhXzX2.W W [.p.t.p.[.I R 2.gXhX%X#X_.HXUX          D 1XPXPX,XQ T             ",
"              L ~ ~ R E MX~ T           PXfX@X@X7XHXLXkXj E [.b t.u.t.b m :Xx 7XLXFXhX*X@XfXSX          T ~ MXE R E ~ W         ",
"                J G G H L Q T         SXfX+X%XlXLXCXZX  n J     u.u.u.    n G } rXxXLXzX%X+XhXSX        T Q L H G H P           ",
"                  N G P I I ~ f     hXxXx.&XVXLXqX6X            t.i.t.      d % -.,.a.DXVX&Xm.jXhX    V ~ I I P G               ",
"                    G I g f F f     DXn.&XzXGXuX                b i.b             6 ,.rXDXVXn.v.cX    g F S Y I H               ",
"                    H g           hX8Xv.fXGXyXeX                  XX              k   >.rXHXfXb.G.wX          S {.              ",
"                    u             qX8Xz.GXxXeX                    {.            E.NXC   >.eXFXz.8X0X                            ",
"                        K Z     AXoXiX9XuXuX                                    }.JXOX    L.A.iXiXiXAX      Z                   ",
"            2X          K :X  oXoXW :XoX(.                                         X        T.}.>XK mX`.  :XU         MXK       ",
"          y 2XPX2X            oXiXm y.y.{.h                                               a {.y.m n iX(.    C     :XMXPXD       ",
"        Y W ~ JX1XD             ZX9XiX9.h                                                 % = z.9XiXuX/.          >XNX1XQ D     ",
"        J [.P Q T           SX).` 6X9.(.                                                    &.@.~.4X@ xX'.        S ! W H H M   ",
"          M :XR R       C <XR.z.p y.}.x                                                     % }.}.t.i k.C <Xf     V Q R {.      ",
"          Y Y   (       J :Xk k.* j x                                                         d x <.w j.n <Xd     V     F       ",
"                        % 3.+.+X` wXiX                                                        7 gXa.9 &X& 2.                    ",
"                      R.FXl.=X+X%.KXKX                                                        (.IXsXX.=Xx.7XnX                  ",
"            <X<XC   bXFX8X#X+Xj.5XPXPX                                                        '.PXFXh.+X+X&XwXCXoX  oXoX        ",
"          BXBXmXBX'.wX_.#Xh.] W.5XPXPX                                                        oXPXFXh.x._ W.*X8X0X3XBX<XUX].    ",
"          NXU ,XOX}.j.%X] [ S.W.5XPXPX                                                        oXPXFXh.$XN.[ ..&XA 3XU ,X}.dX    ",
"          IX}.F pX].+Xl.N.P.S.B ^.PXPX                                                        oXPXFXh.x.V.J.{ $XA pX}.J pXy.    ",
"           XpXdXXX$ k.vXP.J.S.B 5XPXPX                                                        bXIXFXh.W.N.P.P.&X, j dXiXdXc     ",
"            t..Xk > c.n.K.J.S.B ^.KXPX                                                        bXPXFXh.W.V.J.D.$X{ $ .Xp.a       ",
"            p.F C ] c.n.K.H.S.j.&.CXPX                                                        bXPXZX+.$XV.J.D.$XB.q K t.<.      ",
"              7.2 N.c.n.K.H.S.B ^.PXPX                                                        bXPXZXh.W.V.J.J.$XC...h 7.=       ",
"            zXLXQ.N.c.n.H.H.S.j.^.PXPX                                                        bXPXFXh.x.V.J.J.$XC.#.VXDX|       ",
"            CXPX'.N.c.v.H.C.S.j.^.PXLX                                                        bXPXFXh.x.B.H.H.$XV.l.UXGX|       ",
"            CXLX'.N.c.v.H.C.S.j.^.PXFXnXIX                                                  AX0XPXFXh.x.B.H.H._.V.#.UXGX|       ",
"            ZXLX'.=.c.v.C.B.Z.9.^.PXFX).IXIX                                              IXAX_.PXFXO.5XB.C.C.x.V.#.UXGX|       ",
"            ZXLX).=.z.z.;.B.A.q.^.PXFX!.U.  KXPX                                            oX_.PXFXO.5XB.B.Z._.B.#.UXGX|       ",
"            uXLX).=.4X4X;.B.A.q.~.CXHX!.`.X 0XnX0XAXAXbX'.        JX            PXPX9XbX'.  iXQ.FXsX| 5XB.;.:.6XB.#.SXGX|       ",
"            eXLX).[ a.4X:.;.>.5.4XIXFXY.KXiXKXq + /.(.9.9XKXnXT.E.1XE.6.bXKX9Xq.9X9X$ R.IXnXnXQ.IXZX3.e.=.:.>.(.-...SXDX|       ",
"            eXLX).[ w.w.:.:.>.j 4XPXHXR.6X@ Y.e w AXq O O o.0Xj |.R |.h '.o.O : q SXo.U.6.} '.Q.PXZX3.r.=.:.>.p.-...SXDX|       ",
"            eXLX).[ w.e.:.:.%.j a.IXVXQ.U.O R.R.O o.o.8 X.- VX&.. [.. X.SXO     o.r O !.R.2 `.Q.PXZX2.4.;.:.>.p.-.} SXDX|       ",
"          6 eXGX).[ w.4.%.-.%.v 0.VXVX/.Y.-       o.o.9 0 1 `.1 1 o 1 1 `.1     e e   Y.U.; `.^.GXtX2.4.;.>.0.p.-.} SXDX .      ",
"          $ eXGX).[ 3.4.%.*.%.v &.GXxXQ.o.- U.g.3 g.o.3 0 3 !.; 9 ; 9 3 !.1 0 3 e e   U.U.; !.~.GXuX3.r.-.%.0.t.*.} SXDX .      ",
"          $ eXGXQ.[ h 4.%.&.%.j q.FXuX/.o.: g.o.8 o.o.; 0 8 !.; 0 h.9 ; !.3 0 8 e o.  o.U.1 /.~.DXuXh r.-.%.0.v } ] VXDX}       ",
"          $ 6XxXX.] y.8. .*.%.v  .aXaX9.+.- 9 w ; w w 1 9 ; g.; 9 3 9 1 O.; 3 ; q w ; r 9 : ~.q.aX4X7 r.-.|  .y.7.) ~.xX .      ",
"          + s.sXz.] 5..X .*.0.v A.yX6X9.X.1 T.T.7.T.T.6.T.6.(.6.6.6.6.6.T.6.6.6.6.T.6.T.T.< z.q.eXyX3.r.-. .O.XX` ] 7XaX&       ",
"          + s.uXz.[ @ r.XX7.@.v &.cXa.$.4 7 f.f.-XM.x.;X;X;X;X;X;X;X;X;X;X;X;X;X;X|.s s t.w $.| uXxX7 r.} .XXX% [ ] 7Xs.`       ",
"          $ 4X8X7 q.3.5.1.XXh v | tXa.$.5 o  .4 k 5 7 z l z z z z z z z l z l l z l p p p $ $.+.6XtXh 5.7.i.1.4.7.3.7 kX`       ",
"          $ yXcX| 4.i.5.* d.* <.} rXkX$.X.- $ 2 2 $ & < < + & + < < < $ & + 6 < @ @ 1 > > - $.z.uXa.' i 5.u.= i.p.2.^.DX}       ",
"          o 8.'.t # @ t.i.5.. ' @.xXxX} } - > 4 1 4 4 1 9 - ..; 8 ; 8 1 ..O 9 8 4 4 ; 4 4 - } z.cXyX' ' . u.i.p # # E.E.*       ",
"          ].}.OXF X.8X8XgX_._.7X5XfXxX+.5 U.Y.Y.U.Y.Y.U.Y.U.Q.U.Y.Y.Y.U.Q.U.Y.Y.Y.Y.U.Y.Y.o.6 7XxX7X8X7X_.7XgX8Xc.k  X X}.f     ",
"        y |.].U W g.D.b.I.S.G.G.l.G.G.l.+.uXwXlXlXlXlXlXlXlXgXlXlXlXlXlXgXlXlXlXgXlXlXgXuXtX4 S.S.D.l.I.S.D.D.S.S.V R ].].J     ",
"        y |.y.P L     fXjXG.G.G.D.D.P.#./.qXqXqXqXqXqXqXqXqXqXqXqXqXqXqXqXqXqXqXqXqXqXqXqXqX+.S.P.P.P.jXjXkX      z W y.].J     ",
"          g y u y                       w X.5 X.X.5 5 X.X.5 5 X.X.5 5 5 X.+.5 5 +.+.X.+.O.O.                                    ",
"                                                                                                                                ",
"                                                                                                                                ",
"                                                                                                                                "
};
