/* XPM */
static char *b0ef4a6edc03436ca9c7bd54d55f42f7vJ0d6mANpbkxDnXi[] = {
/* columns rows colors chars-per-pixel */
"64 64 189 2 ",
"   c #35664C",
".  c #366C4E",
"X  c #3B6E4C",
"o  c #37704C",
"O  c #3D724D",
"+  c #3E7B4F",
"@  c #366E55",
"#  c #3B6C51",
"$  c #347155",
"%  c #3C7553",
"&  c #3F7A54",
"*  c #3C7258",
"=  c #41734D",
"-  c #427353",
";  c #437A54",
":  c #4C7E54",
">  c #467D58",
",  c #4F7F5B",
"<  c #4C844D",
"1  c #5D904E",
"2  c #468253",
"3  c #4C8454",
"4  c #468A54",
"5  c #4E8A54",
"6  c #45845D",
"7  c #4C8659",
"8  c #4D8B5B",
"9  c #518555",
"0  c #548B56",
"q  c #5A8D56",
"w  c #558558",
"e  c #548C5A",
"r  c #5B8D5A",
"t  c #569155",
"y  c #5C9455",
"u  c #5D9957",
"i  c #55925A",
"p  c #5B945A",
"a  c #5D9A5B",
"s  c #639455",
"d  c #639B56",
"f  c #6B9D55",
"g  c #62955B",
"h  c #649C5B",
"j  c #6A9E5B",
"k  c #72A64F",
"l  c #74A94F",
"z  c #65A256",
"x  c #6DA456",
"c  c #6FA956",
"v  c #65A15A",
"b  c #6BA45B",
"n  c #6DA959",
"m  c #71A656",
"M  c #75AB56",
"N  c #7AAD56",
"B  c #73A65B",
"V  c #79A55B",
"C  c #74AA59",
"Z  c #72A95D",
"A  c #75A95D",
"S  c #76AA5E",
"D  c #77AC5E",
"F  c #79AB59",
"G  c #7CAB5A",
"H  c #78AC58",
"J  c #7CAE58",
"K  c #7AAA5D",
"L  c #7BAE5E",
"P  c #7AB056",
"I  c #7EB155",
"U  c #7DB156",
"Y  c #79B158",
"T  c #7DB159",
"R  c #7DB05A",
"E  c #7CB458",
"W  c #5F9661",
"Q  c #619B60",
"!  c #6AA060",
"~  c #6CA161",
"^  c #6DA261",
"/  c #6FA560",
"(  c #71A760",
")  c #71A563",
"_  c #74A461",
"`  c #73A960",
"'  c #76A962",
"]  c #7AAD60",
"[  c #7BAC62",
"{  c #7CAD61",
"}  c #76A56A",
"|  c #7EB161",
" . c #85B34F",
".. c #8DBA4F",
"X. c #95BE4F",
"o. c #81AF55",
"O. c #82AE5B",
"+. c #80B256",
"@. c #84B455",
"#. c #8AB654",
"$. c #86B955",
"%. c #8CBA53",
"&. c #84B25B",
"*. c #8BB55B",
"=. c #87B859",
"-. c #8DBA5A",
";. c #94B757",
":. c #93BD54",
">. c #9ABE55",
",. c #93B65C",
"<. c #99B45B",
"1. c #93BB5A",
"2. c #9BBD5B",
"3. c #A3BE5C",
"4. c #83AC61",
"5. c #89AF60",
"6. c #8DAD6B",
"7. c #81B260",
"8. c #84B161",
"9. c #85B663",
"0. c #80B065",
"q. c #86B565",
"w. c #8BB362",
"e. c #8FB765",
"r. c #8EBA64",
"t. c #83B169",
"y. c #8FB569",
"u. c #94B763",
"i. c #9BB664",
"p. c #93BC62",
"a. c #9ABD62",
"s. c #94B76A",
"d. c #91BB6A",
"f. c #99BB6A",
"g. c #9BBB6D",
"h. c #96BD73",
"j. c #A2BF61",
"k. c #9CC24F",
"l. c #96C053",
"z. c #9CC253",
"x. c #95C25A",
"c. c #9CC15A",
"v. c #A2C54F",
"b. c #A9C44F",
"n. c #A9C94F",
"m. c #A3C653",
"M. c #A9C655",
"N. c #A6C952",
"B. c #ABCA54",
"V. c #A4C35B",
"C. c #AAC65A",
"Z. c #A7C859",
"A. c #ADCA5A",
"S. c #B2CE55",
"D. c #BACD55",
"F. c #B2C75C",
"G. c #B3CC5A",
"H. c #B9CE5C",
"J. c #B5D155",
"K. c #BBD556",
"L. c #BED956",
"P. c #B6D159",
"I. c #BCD45B",
"U. c #BFD859",
"Y. c #97C466",
"T. c #9EC065",
"R. c #9BC963",
"E. c #9FC36E",
"W. c #A5C262",
"Q. c #AAC562",
"!. c #ADC961",
"~. c #A7C66A",
"^. c #A8C56A",
"/. c #ABCA69",
"(. c #B4C960",
"). c #B9CD65",
"_. c #B3CC68",
"`. c #BFCF68",
"'. c #BDD261",
"]. c #B7D270",
"[. c #C1DA56",
"{. c #C0D75C",
"}. c #C2DA59",
"|. c #C2D561",
" X c #C8D666",
".X c #C4D863",
"XX c #C4D568",
"oX c #C8D969",
"OX c #C4D672",
/* pixels */
"i p a p v v v v a a h v z v z d ~ b b c b h h b n Z Z b d b ` n n b v d ` D C n v h v b n n v d b b n n v h h v b b h i p a a i ",
"+ t b ( v v b b v v b b Z Z c b Z Z B M B B H Y M M M M c S S S S Z Z D S Z Z C n b b Z Z n B S Z n n Z b v ! / / b b b v v a 8 ",
"o t Z ] v b b b n c c Z L D Z D D D D D D H E E M M H H H F K K K H T 7.S D M H H H S D D Z D L H M Z Z Z b b ( Z v Z | ` b y 2 ",
"; t v b v b Z Z Z M M Z D Z M H H M H H J H H H H H L 7.H H H K F H P H H H Y H H D S S D D D M M M M M Z B b b b v S q.S b u 2 ",
"; t v b b b 0.h.{ D M H H q.9.H H H H J &.T H P H u.g.s.J U N G J +.+.U U T J T U H M D H H H J H T 9.w.D D Z Z B B b v v h p w ",
"@ e v b Z Z ] t.S D F H K w.w.F H H H H T J L J H 8.w.8.N U +.J +.+.+.=.+.J H U U J L H H H O.8.H &.y.s.K D Z Z B B Z D b h 0 - ",
"@ i b b Z B b b Z D H L K 8.&.F H H H H M F O.O.U G G N +.+.+.+.@.+.+.*.+.J N U U O.4.J T T &.8.H O.6.6.K M M M Z B D T Z v e * ",
"7 a n b Z x d x D H H H H F F D P U U N +.N G G +.+.+.&.-.&.+.+.@.@.+.O.G +.@.@.@.O.O.J U U H M H F V V L H M P D m b b h v a 8 ",
"a b n n M c c M H H H N H J J H U @.@.+.+.+.+.+.@.+.&.w.u.*.@.@.@.@.@.+.@.@.@.@.@.@.+.+.&.+.+.U U F F 4.&.H H P M Z c x v v h a ",
"a b Z b Z D D D H H N N U J J U @.@.@.@.@.@.$.$.#.@.&.8.*.*.#.#.#.$.$.%.$.%.%.#.#.@.@.@.&.+.+.@.@.U N J J H H H H D Z Z C b v u ",
"0 j D n D D F H O.+.U U =.+.U @.@.@.@.*.@.$.-.:.$.#.#.@.+.#.%.%.%.%.l.x.x.1.:.$.#.@.@.@.+.+.@.%.$.@.U F F N T M H D H Y Y C v i ",
". y Z L D D B H p.r.=.T -.=.@.$.$.%.@.=.@.%.%.%.%.%.%.:.:.:.:.:.%.:.x.R.Y.-.$.%.%.#.#.#.#.@.@.@.+.+.+.+.+.-.$.H D D M M c M v 8 ",
"O y Z S 7.8.L M &.+.T U &.=.-.-.#.$.%.#.$.%.:.l.l.:.:.1.:.:.:.;.:.:.:.p.w.&.#.%.%.%.%.#.#.#.#.@.%.$.@.@.+.+.+.H H M F S B M u & ",
"= y B B L O.O.H N U U U +.$.-.-.#.%.%.%.%.:.:.:.:.:.:.1.:.:.:.;.:.:.:.-.*.&.#.:.%.%.%.%.%.#.-.1.1.%.@.@.@.o.N N N H F V B m u ; ",
"O y Z M m m F +.+.+.@.@.@.$.$.@.$.%.:.:.:.:.:.:.:.:.:.:.:.2.1.:.:.>.:...#.%.:.:.:.1.-.%.%.%.1.T.a.*.@.@.@.O.O.U U T L K B B d : ",
"; u Z L 8.&.T +.+.&.&.@.$.$.$.%.%.....%.:.:.:.:.z.z.z.z.z.>.>.z.2.~.~.>.l.l.l.:.%.w.w.:.:.%.#.O.O.@.#.#.&.4.4.N U &.7.{ Z M u ; ",
"7 d Z D L J U @.@.@.&.@.$.$.%.%.%.@. .%.:.:.:.z.z.z.z.z.z.z.z.z.>.j.3.:.z.z.z.l.:.*.*.:.:.:.%.#.#.#.#.#.@.O.O.U U J K D M c d 8 ",
"p b H H H N +.@.@.*.*.*.$.%.%.%.%.#.%.:.:.z.z.z.z.z.z.z.z.m.m.m.z.>.>.z.z.z.z.z.z.:.:.l.l.:.:.%.%.-.#.$.$.@.@.+.+.J F M H H b a ",
"b H T @.U @.$.%.@.1.a.*.$.%.:.:.:.z.z.z.z.z.m.N.z.m.m.m.m.m.m.Z.Z.m.m.m.m.m.z.k.z.z.z.z.z.:.:.:.:.%.%.%.$.%.#.=.&.&.U +.p.&.S v ",
"0 b &.=.U @.$.$.%.,.u.*.%.:.:.:.:.Q.!.Z.z.m.Z.m.m.m.N.N.Z.m.m.C.C.M.M.M.M.M.N.m.v.z.m.V.!.c.:.:.:.:.%.%.$.%.#.=.w.&.U N u.w._ g ",
"; d T U @.@.$.%.%.%.-.%.:.:.l.l.:.V.V.m.m.m.m.m.N.N.N.m.m.N.N.C.C.B.B.B.M.M.N.N.m.m.Z.!.V.>.>.>.:.:.:.%.%.%.%.#.&.+.+.N O.O.j 3 ",
"& d H H $.%.%.#.%.%.%.:.:.:.l.z.>.>.>.m.Z.m.n.m.N.N.N.N.N.N.B.C.M.B.S.B.B.A.M.N.N.N.C.C.>.>.z.>.>.:.:.:.%.%.%.-.@.@.@.U M M d < ",
"t x P @.-.x.x.@.%.%.:.:.:.:.>.z.z.z.z.m.m.N.N.B.B.N.N.B.S.F.F.A.B.S.S.S.S.P.G.M.n.N.Z.3.>.z.z.X.>.:.:.:.:.%.#.#.#.#.@.@.U M f s ",
"# d P @.@.@.#.#.:.a.1.:.:././.x.z.m.m.N.N.Z.C.C.B.S.S.J.J.F.F.S.S.G.G.S.S.S.B.B.M.C.V.z.z.z.V./.c.>.:.:.:.:.%.%.$.#.-.f.&.M d : ",
"# y M N U @.@.%.1.u.u.:.x.~.~.2.m.m.N.N.B.C.V.C.S.J.J.J.J.S.S.J.J.G.G.J.J.S.S.S.B.V.V.m.N.z.V.^.c.z.z.z.:.:.%.%.%.$.*.u.J M d ; ",
"> d M k U @.%.%.-.,.,.:.c.T.a.>.m.N.M.N.B.M.C.A.J.J.S.J.P.J.J.J.K.J.J.J.J.J.J.J.B.C.Z.N.B.m.z.j.c.z.z.z.:.1.-.%.%.%.@.O.F M z 5 ",
"u c M N @.@.@.#.%.:.:.z.z.>.>.m.A.G.A.N.B.S.S.J.P.B.b.M.F.P.K.K.K.L.K.P.G.J.J.J.J.S.B.B.B.N.N.k.m.z.z.z.x.2.1.%.%.#.@.@.N M c n ",
"h M T +.@.@.@. .:.l.z.z.z.z.m.m.M.B.B.B.B.S.J.J.J.J.S.S.J.K.L.L.}.L.L.K.G.J.K.J.J.J.S.G.A.B.N.N.N.m.z.z.V.W.2.#.%.%.%.@.H M c z ",
"0 m @.@.#.#.@.#.x.z.z.z.m.V.m.m.M.B.B.B.B.S.P.I.J.K.K.K.L.I.I.L.}.}.L.K.P.I.I.K.P.J.G.G.A.M.M.A.Z.m.z.z.c.2.1.#.%.%.%.@.@.U c y ",
"O d +.@.-.%.%.:.c.c.z.z.V.V.Z.m.B.G.G.G.B.G.P.I.K.K.K.L.L.I.I.L.}.}.L.I.|.XX|.K.P.P.G.G.A.M.A.A.Z.m.m.z.:.-.-.:.:.%.%.%.%.@.x 3 ",
"% y N #.a.1.:.%.1.:.z.z.z.m.m.M.M.A.F.G.S.S.J.J.L.I.I.U.}.I.I.I.U.L.L.I.).G.G.P.H.H.G.J.S.B.M.m.m.m.m.z.z.l.:.:.%.%.%.1.$.N d ; ",
"X s G &.u.u.1.:.:.:.z.z.m.m.Z.N.M.M.B.S.J.J.J.K.K..XoX.X}.}.{.'.I.I.P.G.G.S.'.OXH.G.J.J.J.S.B.M.Z.N.m.z.z.z.:.:.%.%.%.*.U N s ; ",
"= s J &.*.*.1.:.:.:.z.m.V.Z.M.C.C.M.B.S.J.J.K.K.K.|. X|.}.}.{.I.}.I.P.P.K.K.'.OXH.J.P.P.G.S.B.A.Z.N.N.z.z.2.1.:.%.%.*.*.&.N s ; ",
": f J +.o.#.%.:.1.,.2.m.m.Z.Z.V.j.A.S.J.J.K.K.L.L.K.D.K.}.{.I.}.}.}.I.I.}.I.G.A.S.J.P.G.G.S.B.M.Z.N.N.z.>.,.;.:.:.%.#.e.f.&.d ; ",
"0 m &.@.#.%.:.:.:.1.>.z.m.N.M.Z.V.B.S.J.J.P.I.L.U.I.I.}.}.}.}.}.}.}.}.}.}.I.G.M.J.K.J.S.S.S.S.N.m.z.m.m.z.z.:.:.:.%.@.O.4.K x i ",
"h D +.@.#.%.:.l.:.z.c.m.m.N.N.M.M.B.S.J.S.G.G.K.U.U.}.}.}.}.}.}.K.J.K.U.}.I.K.J.K.K.J.J.S.S.B.N.v.k.z.m.z.z.l.:.:.%.@.U H H Z v ",
"v H *.*.#.%.:.l.:.c.V.m.m.N.N.B.B.S.S.J.S.B.S.K.L.}.}.}.}.}.}.}.P.S.J.I.I.L.L.L.K.K.K.J.S.S.B.N.v.v.m.m.z.z.z.:.:.-.%.@.U U S ( ",
"0 K 1.1.@.%.:.l.:.2.2.>.m.N.N.N.B.G.H.S.J.J.K.L.L.I.}.}.}.[.L.I.P.L.L.I.L.L.L.K.K.P.I.'.S.B.B.B.N.N.m.z.m.m.z.:.:.-.%.@.@.+.B g ",
"- j =.@.@.%.:.:.:.:.:.z.m.N.N.N.M.).`.G.S.J.K.L.K.L.L.I.L.L.L.I.L.L.}.}.{.L.K.K.J.H.'.'.N.B.B.n.!.Q.V.k.z.z.l.:.-.@.@.$.$.@.x 3 ",
": f U +.@.%.%.:.:.:.:.z.m.m.N.N.m.G.(.B.S.J.J.K.K.K.J.K.K.K.L.P.K.K.L.L.P.K.J.J.J.G.A.A.N.N.N.B.W.V.z.k.>.:.:.1.*.@.@.@.@.U x 0 ",
"9 f U @.@.%.%.:.:.:.l.z.z.Z.A.N.N.m.m.N.B.J.J.J.K.S.S.J.K.K.H.H.K.K.K.J.J.J.J.J.J.B.Z.m.N.N.M.C.3.>.>.z.:.:.:.2.*.@.@.@.+.F f r ",
"X 1 N *.,.%.%.:.,.:.z.z.c.].].Z.n.N.N.B.B.S.J.J.G.S.S.K.K.H.H.S.J.P.P.H.J.H.H.S.G.!.C.B.N.N.V.3.>.z.z.z.>.:.:.#.@.@.-.a.*.F s , ",
"X s H O.&.#.%.:.:.:.l.2.:.2.j.2.N.m.m.Z.B.C.V.C.C.F.S.J.J.S.S.S.J.H.(.G.J.G.A.B.B.3.3.M.N.m.z.>.>.z.z.z.:.*.&.#.#.@.&.O.J M u & ",
"3 j H O.o.@.%.%.:.:.:.:.:.:.2.2.m.m.m.m.N.Z.V.V.M.B.S.G.H.G.S.J.J.G.A.A.S.B.B.B.M.V.V.Z.N.m.z.>.z.z.l.l.:.*.#.#.%.@.O.G M M d 7 ",
"h Z H H U @.%.%.:.:.:.:.:.:.>.>.m.N.N.N.N.N.M.N.B.N.B.G.).G.S.J.J.B.B.B.B.B.B.B.N.N.N.N.Z.m.m.z.z.1.:.:.:.%.#.#.#.@.+.N H H b a ",
"h Z H N U @.%.%.%.:.:.:.X.:.>.>.m.N.N.m.m.N.N.N.M.m.m.V.3.M.B.B.B.B.B.N.M.N.N.N.N.N.N.N.V.3.z.k.:.*.-.:.:.%.%.#.#.@.+.J p.w.Z a ",
"< d H U @.@.%.%.%.%.:.:.>.:.:.>.m.N.m.z.m.m.N.B.N.m.m.Z.Z.N.B.B.A.B.n.n.M.B.B.N.N.m.m.m.>.z.z.k.:.:.%.:.%.1.1.@.=.&.o.G 5.4.b 0 ",
"O d H U $.@.@.@.%.%.%.:.2.:.:.X.z.z.z.z.z.z.N.N.N.m.m.m.N.N.M.A.C.N.N.B.A.A.M.m.m.m.z.z.>.z.z.z.:.:.%.%.%.-.*.+.+.N N G G F h 2 ",
"- p C H @.+.+.@.#.%.#.-.a.1.:.:.:.:.:.z.z.z.z.z.m.m.m.Z.Z.N.Z.Z.V.m.Z.!.Q.3.m.m.z.z.z.>.>.:.z.V.z.:.%.$.@.@.+.+.H H H G D M d : ",
"3 d Z H N F w.E.*.@.@.@.@.%.l.z.:.:.:.:.z.z.:.:.X.V._._.m.m.m.>.m.z.z.>.<.;.:.z.z.>.:.:.:.%.%.;.*.#.$.*.@.+.+.O.N H B V D c d 0 ",
"- r Z D M F 8.d.&.8.*.@.@.$.%.1.-.%.%.%.:.:.:.:.X.c.W.V.>.>.2.>.>.V.V.>.;.:.:.:.:.,.1.%.%.%.%.-.@.=.1.1.+.U U H M H F S B c t ; ",
"# r B B M O.&.7.K 4.O.+.@.$.@.@.@.#.#.@.@.#.%.:.%.:.2.:.:.1.>.>.>.j.j.:.:.:.:.:.:.,.*.%.%.#.-.1.@.=.-.-.J H M M M D K L Z b t % ",
"> p b c Z *.*.G B B F U @.@.@.@.@.@.@.@.@.*.*.*.%.#.#.%.:.:.:.:.:.;.;.-.:.:.:.:.%.#.#.#.#.@.&.i.&.U N M H M m m M Z S 0.L n u 4 ",
"p h b b c m B D M H H U U U @.U l M N @.@.+.+.@.%.%.%.%.:.:.:.:.%.%.%.%.%.%.:.%.%.#.#.@.@.@.N G o.U U H H M m x M M b j v v v a ",
"i b ] | Z B B M H H H P U U U U N N @.@.@.@.@.@.@.%.%.%.%.%.%.%.%.%.%.%.%.%.%.%.%.#.#.#.&.@.N N N U N H H M M m D M b v v v h a ",
"2 j 0.q.K D D M M H H H U U H H +.+.+.+.+.@.@.@.@.@.@. .%.%.#.-.*.%.%.%.#.@.#.$.#.@.@.&.O.o.U +.U N H M H H M M D B b n b v u 0 ",
"  0 b Z ( Z B D F F F J *.T H J J N N G J O.@.#.%.@.@.@.:.%.@.&.&.@.$.-.@.+.+.@.+.&.&.O.F F U =.@.N M m U N F m S b Z D n b u 3 ",
"O 0 v v S Z b B b S B B D M H H H H H F H H G G O.N N N o.@.o.O.O.+.+.+.=.*.*.+.J &.8.w.F M H H M M J *.F m B V j b v v b b y % ",
"X 0 h v ] ( b b b b B b m M T &.8.J M M M F F B V F H H N N N G F J J N +.w.&.H H H K K B B Z D L F L 8.B B b B j v v v v v 0 # ",
"  7 a h } ~ v v b b b b b M T 8.y.L M M D F F D m M M H J H M B M F F F H T L B F D B j b B B Z q.] Z S j b b v v j v b v h 0 # ",
"* e Q Q W W h v { ] b h b b b _ _ b b Z B K ] S B B B L p.&.Z Z m B B B Z b x B S ] ' v b b b j ` / v v v v v v j d j ' ~ h 8 $ ",
"6 8 7 : i a h h h h h h g d h h h h v j d q e p j v v j j h h v b h t 9 p d d d j h h d y g d d h h h d p 0 9 t h p t p p p i 6 ",
"e e 7 : e t p t p t t i e e p h p a p q t 0 3 0 p u u s g t t p u u 0 : 0 t t t u u p t 0 q g h u y t r e 9 3 9 t 0 0 r t t i 8 ",
"p t t y q 0 e e s s r 6 7 2 0 b p t 0 3 5 y y q 0 5 0 s f s 0 7 0 y p r 0 2 2 5 u d q 7 e e d Z q 0 9 : 9 p q : 9 3 9 s d q 9 3 "
};
