/* XPM */
static char *_a80c682a39a450ec1203fc30ae33349azCQthrAGLTFjWAH[] = {
/* columns rows colors chars-per-pixel */
"64 64 209 2 ",
"   c None",
".  c #000001",
"X  c #08060A",
"o  c #0E0D0D",
"O  c #090715",
"+  c #180818",
"@  c #191619",
"#  c #251417",
"$  c #301415",
"%  c #312717",
"&  c #180825",
"*  c #191426",
"=  c #0E1330",
"-  c #271928",
";  c #261836",
":  c #311130",
">  c #182A38",
",  c #292528",
"<  c #312B35",
"1  c #36283A",
"2  c #49291A",
"3  c #471431",
"4  c #512E31",
"5  c #6B3534",
"6  c #30433F",
"7  c #5E4929",
"8  c #0D1E48",
"9  c #351A4B",
"0  c #321552",
"q  c #112E50",
"w  c #372E4D",
"e  c #3D0E66",
"r  c #1B3370",
"t  c #302E6B",
"y  c #4C154E",
"u  c #690A58",
"i  c #45235A",
"p  c #4B3251",
"a  c #703251",
"s  c #43186B",
"d  c #761273",
"f  c #4A2769",
"g  c #552B6F",
"h  c #6A2F6E",
"j  c #26595E",
"k  c #514F55",
"l  c #6D5A56",
"z  c #52466B",
"x  c #6A5570",
"c  c #54706B",
"v  c #6E686E",
"b  c #A46335",
"n  c #91176E",
"m  c #952C63",
"M  c #8B4F56",
"N  c #A56D4D",
"B  c #A16154",
"V  c #905170",
"C  c #AD5676",
"Z  c #916D6B",
"A  c #AB7172",
"S  c #DA6C6F",
"D  c #1C9371",
"F  c #59847B",
"G  c #9F9167",
"H  c #AC897A",
"J  c #CAA048",
"K  c #FCDF65",
"L  c #1E3A8A",
"P  c #2B348B",
"I  c #721A88",
"U  c #513089",
"Y  c #6D3490",
"T  c #7B3AA7",
"R  c #274B97",
"E  c #3852B5",
"W  c #2D6BB3",
"Q  c #574E8D",
"!  c #72548F",
"~  c #765A8A",
"^  c #6E6F93",
"/  c #7D6896",
"(  c #5D58A9",
")  c #6C45B3",
"_  c #3758C7",
"`  c #3C69D4",
"'  c #3F75EC",
"]  c #5653CC",
"[  c #466ED6",
"{  c #4378E8",
"}  c #4378ED",
"|  c #93399F",
" . c #B43688",
".. c #8B3DAB",
"X. c #DD37A0",
"o. c #855C90",
"O. c #AE5287",
"+. c #847D88",
"@. c #8A6F90",
"#. c #87669E",
"$. c #836A98",
"%. c #8C44B7",
"&. c #B14BB4",
"*. c #9070AC",
"=. c #9A77B6",
"-. c #9D74BB",
";. c #BE6CB0",
":. c #CF4A93",
">. c #EA549C",
",. c #CD6F8F",
"<. c #F26F96",
"1. c #CE55B6",
"2. c #F354AC",
"3. c #D371BA",
"4. c #F16AAE",
"5. c #FA79A8",
"6. c #FC79B8",
"7. c #8949C7",
"8. c #9550D3",
"9. c #AE50CF",
"0. c #8D70C6",
"q. c #A77BC6",
"w. c #965BE8",
"e. c #A757E7",
"r. c #B559EA",
"t. c #B270E8",
"y. c #CC57CC",
"u. c #CA62D2",
"i. c #F67AC8",
"p. c #D175E4",
"a. c #368C82",
"s. c #689090",
"d. c #759694",
"f. c #6E8FAC",
"g. c #7AB2A4",
"h. c #369CCF",
"j. c #4D8AEF",
"k. c #6F99E2",
"l. c #57AAF2",
"z. c #71B3EA",
"x. c #6DD0F8",
"c. c #5CE5FF",
"v. c #6DEEFD",
"b. c #77E6FF",
"n. c #88858D",
"m. c #99899C",
"M. c #889094",
"N. c #98969B",
"B. c #AA8B97",
"V. c #B5AB90",
"C. c #8F8DAD",
"Z. c #9486B6",
"A. c #A794A8",
"S. c #8AB0AF",
"D. c #ABA5B1",
"F. c #BBB6B9",
"G. c #F78E95",
"H. c #CFB099",
"J. c #D78CAE",
"K. c #FB88AA",
"L. c #EA92AE",
"P. c #FE94AC",
"I. c #F698AC",
"U. c #FF9BAE",
"Y. c #FD87B6",
"T. c #FD99B6",
"R. c #CEB7A7",
"E. c #FDA6B6",
"W. c #F4B1B2",
"Q. c #D7C6A8",
"!. c #F4CFB8",
"~. c #FDDABE",
"^. c #EDE9A5",
"/. c #FDE7BD",
"(. c #9B90C4",
"). c #AA82C7",
"_. c #BA94CC",
"`. c #B28CD1",
"'. c #B7B7CD",
"]. c #B68AF8",
"[. c #B5B3EC",
"{. c #FE87C6",
"}. c #FA8ECE",
"|. c #CDB6D1",
" X c #FBB5CE",
".X c #D99BEC",
"XX c #C78FFD",
"oX c #F7B3E7",
"OX c #ABC2DD",
"+X c #85FDFF",
"@X c #ADF2F6",
"#X c #CCC6C5",
"$X c #CDCCCA",
"%X c #D4CAC9",
"&X c #D5D1CC",
"*X c #CDCCD3",
"=X c #F6CDCC",
"-X c #FBC5DC",
";X c #FDE8C5",
":X c #FFF5CB",
">X c #FCEED6",
",X c #D6CDE4",
"<X c #E6D6EA",
"1X c #FAD6F5",
"2X c #D6FCFC",
"3X c #FDFEE9",
"4X c #ECECF4",
"5X c #FCEBFB",
"6X c #FEFDFC",
/* pixels */
"                                                                                                                                ",
"                                                                                                                                ",
"                                                                                                                                ",
"                                                                                                                                ",
"                                                                                                                                ",
"                                                                                                                                ",
"                                                                                                                                ",
"                                                                                                                                ",
"                                                                                                                                ",
"                                                      w < < 1 v       k < < ;                                                   ",
"                                                1 . . o , : : X . o . + : < , o . .                                             ",
"                                              . X v F.-X X X6.X.n y  .2.{. X X=XD.k . .                                         ",
"                                          - . c &X-XT.K.5.5.5.4.>.X.2.5.5.5.5.K.T.-X%Xk . 1                                     ",
"                                        , o D.1XP.K.K.5.5.5.5.5.>.:.4.5.5.K.5.5.K.K.T.1XN.. 1                                   ",
"                                      , o *X X<.P.5.5.K.P.P.P.U.P.P.U.U.P.P.P.K.5.K.P.5. XF.. 1                                 ",
"                                    1 . $X3X=XE.<.<.P.P.P.P.P.P.P.P.P.P.U.P.P.P.P.5.<.E.=X3XF.. p                               ",
"                                    . N.-X:X3XE.K.E.P.P.E.P.P.U.U.E.U.U.P.U.E.P.P.E.K. X3X>X-XM..                               ",
"                                  . k }.>.T.L.T.3XW.P.K.P.E.P.P.E.E.U.P.P.E.K.K.K.=X3XI.E.Y.>.}.k X                             ",
"                                1 o _.2.6.:.>. X>XT.E.C =X3X>X=XE.U.E.=X>X3XW.C E.E.>XE.>.:.6.2.A.. p                           ",
"                                . k 1.5 m :.K.P.P.T.J.a E.=X=X>XE.P. X>X=X=XK.a K.P.P.P.K.:.a p 1.p .                           ",
"                                . &.d b 2 1.Y.P.P.T.O.y 6.K.5.P.U.U.P.K.5.K.4.: ,.T.T.K.Y.:.q a.d %..                           ",
"                              * O h 7 ^.G 5 C Y.K.i.h : y.Y.5.K.K.K.Y.5.5.6.&.X m 6.K.Y.C k S.@Xj f X <                         ",
"                              . ; 2 J K K 7 4 Y.5.y.* X &.1.4.5.Y.Y.Y.5.4.y.| . y y.5.6.1 W +X@Xh.q & X                         ",
"                              . g g & b 2 y ,.6.y.Y $ # Y y.9.4.Y.Y.Y.3.9.u.i 2 : | 1.6.O.3 r h.& g f .                         ",
"                            z . Y ..g $ 3 i.6.1.9.+ C M & r.9.9.}.}.i.9.9.&.. A M : 9.1.i.6.9 8 h %.h . x                       ",
"                            w . T ..i y O.i.1.9.i 5 !.~.# f r.9.9.u.9.9.r.; 2 ;X!.4 g 9.1.{.O.y f %.Y . p                       ",
"                            < X ..Y 9 9.3.9...i 4 A G V.H.X Y r.8.8.9.r.0 # R.V.G C 4 i ..9.y.8.9 T T . w                       ",
"                            - X %.9 i 8.7.9.g . + . . . 4 H X g e.r.8.0 # H @ . . . # . h 8.7.7.9 i %.. 1                       ",
"                            @ & T X ..8.i ; # @ o x 0 0 O k H.# & 0 O 2 R.6 k 0 0 ; . + + ; i e.T O T O ,                       ",
"                            o ; : O Y 9 X . . . n.6X$.e s ; /.!.Z 5 A :XV.n.6X~ e s 0 . . . X 9 Y X ; & @                       ",
"                            . i Y : + i &.y . i ! D.g s s f !.:X:X>X:X:XH.Q D.g e e U i . a &.y + : Y 1 X                       ",
"                          +.. @.&.h y y.V o . *.U e U U s f !.;X;X;X;X:XR.e e U U e Q $.. o O.y.y h &.o.. A.                    ",
"                          @ , }.2.h y i.J.: , $X! Q j.j.Q g !.:X;X;X;X:XR.U ( j.j.U / #X% 3 J.i.y m 2.Y.@ ,                     ",
"                        x . A.6.6.M h {.oXa H >Xz.v.x.x.+Xj.!.;X;X;X;X:X#Xl.+Xx.b.v.k.>XZ m oXi.y M 6.6.m.. @.                  ",
"                      v . v }.5.Y.a h {.oXa H 3Xx.c.+X+Xv.z./.;X:X:X:X;X;Xl.v.+X+Xc.OX3XA a oX{.f a Y.5.}.k . v g.              ",
"                    X . v -X XY.6.a g i.oXa A W.W.z.x.x.z.&X:XH l l l H.:X$Xx.c.c.k.W.!.Z a oXi.f a Y.Y. X-Xk . o c             ",
"                  X Z |.5X XY.5.{.a f u.oXx 4 !.G.G.&X&X/./.:XZ m <.m H.:X/.~.&X%XG.G.!.2 V oXr.s a {.5.T.-X5XF.v o d.          ",
"                  . 3.{.5.5.5.5.i.p 9 e.p.3.. B.;X;X;X/.;X/.;XR.B S B !.;X;X/./././.;XA . J.p.e.9 h {.K.5.5.5.{.;.. F           ",
"                c . T &.4.6.6.3.9.Y * e.8.p.* X C E.W.!.;X~.~.;XH.H Q.;X~.~.~.!.W.I.V X - p.8.8.+ Y 9.3.6.6.4.&.Y . F           ",
"                  . Y 7.7.8.8.%.7.%.X ) e.e.Y . X $ a C ,.J.L.L.I.I.I.L.J.,.,.C a $ . . T e.e.Y X 7.7.%.8.8.7.7.g . s.          ",
"                  o 9 8.7.8.Y f t.e.9 & w.w.w.9 O = X . + + @ # - 1 # # + + + . X = O 9 e.w.w.O i t.t.i Y 8.7.8.* @             ",
"                    . U w.8.; q..Xt.) + 9 w.w.w.f * X : n n n u h f.y u n n n 1 X * g w.w.8.; * 7.t..X-.; w.w.g . c             ",
"                    < . t ) ; XXXXXXw.) = & f Y ) ; . 4 S G.G.C i h.3 S G.G.S 3 . ; ) Y f O = ) w.XXXX].; ) t . 6               ",
"                      p . . * ].XXXXt.] [ P = O . $  .m 5 N b p z t z 4 N b 4 m  .- . O = P [ ] t.XX].t.* . . k                 ",
"                          1 X 0.].].k._ ` E P O ; B.B <.X.X 0 | `.| `.I 9 + 2.<.B m.> O P E ` _ k.].].0.. w =.                  ",
"                          O V.4Xz.x.b.x.[ r @ Z Z v *XB.n > D p Z Z a k D 8 n A.*Xx Z l @ r [ x.v.x.z.6XN.+                     ",
"                        p , 2X@Xb.b.b.z._ r % Q.!.Z N.(.O j D 5 N M 4 4 D q * '.n.B !.Q.# L [ x.b.b.v.@X2X@ p                   ",
"                        @ w l.x.b.x.l._ _ ` 8 . @ H . z y h k 3 4 5 3 3 z h y t X A O . 8 [ _ _ l.x.b.b.l.> -                   ",
"                        o q } { j.{ L _ ` _ = u u 3 + ; : _.6.2.-X X-X2.}.;.: ; X 3 u u = _ ` _ R { j.j.} 8 @                   ",
"                        , = } ` ' E * ` ` = u X.5.a ^ *XC.+.o.a B.A.@.h o.+.Z.OXQ a 4.X.y = { ` O _ ' ` { O 1                   ",
"                          . ` } } r . ` R +  .2.C w [.C.|.6X3X(.F.#XD.'.3X6XD.C.[.9 :.2. .* R E . r j.} E .                     ",
"                          @ = { j.q , = = 5 b K 5 X z O Q 4X*X*.6X6X4X$.<X,Xw * z X M K b a = = , r j.[ O -                     ",
"                            @ O R r 4 x . $ 5 b 4 @ . $ M z w * (.[./ O z p M o . @ 7 b 5 $ . x 4 r R X @                       ",
"                              l @ O @     O . $ - q.z @ H B # X * ; O . 2 A Z O #.-.% $ . @     @ @ # v                         ",
"                                            x w z ).x X a M O x =.#.=.< : M 3 O     p w                                         ",
"                                                    #.. n n . *.q.q.       .  @                                                 ",
"                                                        . .                                                                     ",
"                                                                                                                                ",
"                                                                                                                                ",
"                                                                                                                                ",
"                                                                                                                                ",
"                                                                                                                                ",
"                                                                                                                                ",
"                                                                                                                                "
};
