/* XPM */
static char *d0bac7f34bdc41aae73568ddca5e41e8lv4YHyUS0YSiI8v9[] = {
/* columns rows colors chars-per-pixel */
"64 64 256 2 ",
"   c None",
".  c #19000B",
"X  c #0A170C",
"o  c #280D15",
"O  c #172E07",
"+  c #360F30",
"@  c #2C2328",
"#  c #362D33",
"$  c #1B271F",
"%  c #511230",
"&  c #6E1135",
"*  c #4F2F32",
"=  c #753237",
"-  c #347A2A",
";  c #484835",
":  c #517639",
">  c #697838",
",  c #34134E",
"<  c #142F52",
"1  c #233548",
"2  c #343845",
"3  c #342849",
"4  c #0D3568",
"5  c #2C2F65",
"6  c #361463",
"7  c #570B46",
"8  c #750846",
"9  c #513E44",
"0  c #521474",
"q  c #6B1370",
"w  c #6C2E7D",
"e  c #37444D",
"r  c #314E53",
"t  c #0B7154",
"y  c #0E4A6F",
"u  c #0B6E6F",
"i  c #367778",
"p  c #2B6C69",
"a  c #27655F",
"s  c #4A565C",
"d  c #4F4A51",
"f  c #50556D",
"g  c #536973",
"h  c #6C6B6C",
"j  c #6D4A67",
"k  c #851736",
"l  c #8E153A",
"z  c #853039",
"x  c #8B5A3D",
"c  c #8D0D4B",
"v  c #A91250",
"b  c #972848",
"n  c #813E47",
"m  c #AA254B",
"M  c #B42B51",
"N  c #8E0C70",
"B  c #B8147A",
"V  c #B00C76",
"C  c #853478",
"Z  c #AD2672",
"A  c #CA3758",
"S  c #EC2D5E",
"D  c #C71A79",
"F  c #C8176E",
"G  c #D7277E",
"H  c #CF2D6E",
"J  c #E92B7E",
"K  c #E83679",
"L  c #F3377C",
"P  c #E62F6B",
"I  c #DA135A",
"U  c #8F5471",
"Y  c #B35370",
"T  c #926A64",
"R  c #AB6F4D",
"E  c #D24D57",
"W  c #EC4E5A",
"Q  c #D36258",
"!  c #EA675C",
"~  c #ED7352",
"^  c #D35170",
"/  c #EC4C70",
"(  c #FA6679",
")  c #F77166",
"_  c #CD776D",
"`  c #24973E",
"'  c #5B9139",
"]  c #6EAD2F",
"[  c #659F27",
"{  c #79D73A",
"}  c #72D235",
"|  c #6DD53E",
" . c #279448",
".. c #37B04B",
"X. c #229B6A",
"o. c #4EB547",
"O. c #54AE78",
"+. c #67BB72",
"@. c #519654",
"#. c #5CC94A",
"$. c #4FC952",
"%. c #68D649",
"&. c #6ED04D",
"*. c #75E546",
"=. c #74CA64",
"-. c #43CA74",
";. c #95B82C",
":. c #E5BD3C",
">. c #B6EF12",
",. c #8CD533",
"<. c #ADDC2D",
"1. c #99E93A",
"2. c #8BE432",
"3. c #A5E82A",
"4. c #B5EB27",
"5. c #BBF329",
"6. c #A6EA36",
"7. c #A8F434",
"8. c #B5F33A",
"9. c #B5EE32",
"0. c #97D113",
"q. c #CBF514",
"w. c #E9FF14",
"e. c #E4D738",
"r. c #C5F529",
"t. c #C5F737",
"y. c #D8F936",
"u. c #CFEA34",
"i. c #E0FE35",
"p. c #948F59",
"a. c #8FB441",
"s. c #ADAB75",
"d. c #FB9B56",
"f. c #F8914B",
"g. c #FCA748",
"h. c #FBA156",
"j. c #FCB65A",
"k. c #F9B349",
"l. c #FD8A69",
"z. c #F9956E",
"x. c #FEA56A",
"c. c #F6B176",
"v. c #C8AF41",
"b. c #8AD856",
"n. c #90D44D",
"m. c #9BE746",
"M. c #8AE449",
"N. c #A5EB47",
"B. c #B1F749",
"V. c #87D069",
"C. c #ADE26B",
"Z. c #D8DD4E",
"A. c #FBCD57",
"S. c #F9D859",
"D. c #F2CF48",
"F. c #F7F056",
"G. c #FCCE69",
"H. c #FDE371",
"J. c #13368F",
"K. c #153AAC",
"L. c #3636B4",
"P. c #20389F",
"I. c #4E1988",
"U. c #721393",
"Y. c #68249E",
"T. c #0E538B",
"R. c #067A87",
"E. c #12708B",
"W. c #1555B6",
"Q. c #176EA7",
"!. c #286199",
"~. c #4D7184",
"^. c #764FB4",
"/. c #4D5CA5",
"(. c #1A4AC8",
"). c #1C57D0",
"_. c #2952CD",
"`. c #186FD5",
"'. c #2671D4",
"]. c #1C7AE1",
"[. c #6C4EC5",
"{. c #4B5BCD",
"}. c #8F108F",
"|. c #BA1385",
" X c #A8178E",
".X c #AF2688",
"XX c #89369B",
"oX c #D52F88",
"OX c #EB3682",
"+X c #F93983",
"@X c #E92D81",
"#X c #D11A85",
"$X c #AE51A4",
"%X c #D84D85",
"&X c #FD4787",
"*X c #FB5886",
"=X c #ED538C",
"-X c #FA698D",
";X c #F76C93",
":X c #FC7894",
">X c #F37188",
",X c #0E8D8C",
"<X c #2B948B",
"1X c #14A994",
"2X c #08B08D",
"3X c #28A989",
"4X c #1691AD",
"5X c #1BABBD",
"6X c #29ADAF",
"7X c #2483A9",
"8X c #528F91",
"9X c #778D96",
"0X c #6F94A7",
"qX c #0DC08D",
"wX c #36C083",
"eX c #198BD4",
"rX c #269AD9",
"tX c #2DA4CB",
"yX c #1B94E4",
"uX c #1AA9E9",
"iX c #1BB5F1",
"pX c #2AB3ED",
"aX c #2697E3",
"sX c #4ABFE3",
"dX c #2DCACD",
"fX c #1AD6FD",
"gX c #19C5F8",
"hX c #26D7FD",
"jX c #2ED0F5",
"kX c #2BE5FA",
"lX c #37EDF8",
"zX c #1FE1FD",
"xX c #48D2F8",
"cX c #6AD4F2",
"vX c #48F6FC",
"bX c #5AF6FB",
"nX c #51E9F0",
"mX c #6EF0F6",
"MX c #6AE4CD",
"NX c #88A5B6",
"BX c #8CABB3",
"VX c #9BA4A3",
"CX c #D29591",
"ZX c #FA8899",
"AX c #F29191",
"SX c #F1AA9C",
"DX c #FB95A1",
"FX c #FCA3A9",
"GX c #F2CB8F",
"HX c #A6BCC6",
"JX c #B9CFD8",
"KX c #89F6F8",
"LX c #D3DCE4",
"PX c #F9F8FB",
"IX c #DDE6E9",
"UX c #ABC58E",
/* pixels */
"                                                                                                                                ",
"                                                                                                                                ",
"                                                                                                                                ",
"                                                                                                                                ",
"                                                                                                                                ",
"                                                                                                                                ",
"                                                                                                                                ",
"                                                                                                                                ",
"                                                                                                                                ",
"                                                                                                                                ",
"                                  * 9 * %                                                                                       ",
"                              * * T CXY b * s 8X<Xu                                                                             ",
"                          d p.R R AXSX( P U BXKXbXjX,X                                                                          ",
"                        * s.GXG.h.l.) ) K VXmXbXvXkXeXy X e a                                                                   ",
"                      @ x c.GXc.x.h.g.d.~ s.MXMXMXMX5Xu r 8XMXnX5XE.                                                            ",
"                    * T l.d.x.z.d.g.k.g.f.Z.C.C.B.V.3XX.6XcXKXbXjX4X4                                                           ",
"                  @ T SXAXd.d.d.h.j.G.h.j.S.Z.t.8.b.3X2XdXnXbXvXkXtXy 1 1                                                       ",
"                  % ^ AX) d.g.j.A.H.H.G.H.S.D.u.8.b.-.2X1XdXbXbXvXlX5X4X,Xa @                                                   ",
"                  % M K ) h.g.G.H.G.A.A.H.A.e.9.m.=.-.2X,XtXmXKXmXvXlXkXjX4Xy 2                                                 ",
"                  * b H W f.f.j.G.A.A.F.F.D.u.1.M.=.X.R.E.tXmXmXbXvXlXkXhXuX`.y e                                               ",
"                * T _ / ~ f.j.A.S.S.F.F.F.y.t.6.1.b.O.E.Q.xXbXvXvXbXmXxXhXgXyXT.<                                               ",
"                n CXAX( f.j.S.S.S.F.F.F.y.y.t.8.m.+.3X,X7XcXKXbXvXbXcXxXhXiX].W.4 1                                             ",
"                b >X( ( f.g.g.k.D.e.y.y.y.t.8.N.+.3X2X2XQ.sXmXvXlXkXjXpXgXyX].`.T.e                                             ",
"              # b K *Xl.g.g.g.A.D.u.t.t.t.N.N.b.O.1X2X,XQ.pXvXlXkXfXfXfXiXeXuXeXy s                                             ",
"                & v P ~ f.g.g.k.:.u.8.8.m.=.=.O.3X2XR.Q.'.jXkXkXzXfXfXiXeX].yXQ.< g                                             ",
"                @ % v S W ~ ~ v.<.N.m.N.b.V.n.+.<X,XT.Q.pXfXfXfXfXfXfXuX{.{.'.W.< e                                             ",
"                # @ & I S W E p.b.=.+.+.O.O.V.O.,XR.T.eXjXhXhXhXfXgXiXaX^.$X[._.J.1                                             ",
"              # * T Y H S S H h O.3X1X1X1X1X<XE.R.E.T.rXxXhXxXxXhXiXyX'.[.$X[._.J.1                                             ",
"              @ U CXZX=XH F V j <X2X2X,X,X,XR.E.!./.!.aXcXjXjXjXiXuXiXuX'.{.(.K.4 2                                             ",
"              % ^ DX:X-X%XH H Y ~.<X<X~.f p E.f w U./.pXpXiXiXyXeX].rXeX(.(.J.< 2                                               ",
"              & ^ *X-XZXDX;X;XZX$XU C Z Z C j C N XX{.pXuXyX`.`.).).).W.K.P.< e                                                 ",
"              * Z K *XZXFXZXDXFXZX=XOXOXOX%X%XG .X^._.'.'.).).).(.(.(.J.5 5 e                                                   ",
"              # % M / :X:X:X:XZX:X-X&X&X&X*X=X+XoXXX{._._.).(.P.J.J.J.5 s h                                                     ",
"              g 2 = ^ *X-X:X:X-X*X*X&X&X&X&X+XJ G .XY.L.L.L.J., + < 1 f VX                                                      ",
"              9Xd b / *X:XZX;X*X*X&X+X&X;X*XOXD V }.Y.I.q q % % % 2 ~.0X                                                        ",
"                d m / / -X;X=X&X&X&X+X+X&X+X#X X}.U.Y.0 c b & & * g NX                                                          ",
"                9 b P L L OXL +X+X+X+XJ J G |.}.U.I.6 % c m m & # 9XJX                                                          ",
"                r & F J L K L J G @XJ G oX.X}.}.0 , % % k m M b * g HX                                                          ",
"                e % c D D D D B B D B oX=X.X}.U.0 + % % & l M M z e 9X                                                          ",
"                  o % N V D G |.#X#X|. X.X}.q q , 2 s h h * m Q Q =                                                             ",
"                    @ 7 N B D B |.#X XU.U.I., # e 9XNXLXIX$ & c.~ . r JX                                                        ",
"                        + % % q }.}.U.I.0 6 s 9XBXJX,.a.<.O k x.! . [ <.,.UX                                                    ",
"                              7 U.U.I.3 3 f HXLXa.n.4.w.w.O k l.! . ;.w.q.;.a.                                                  ",
"                                  , 2 s h HX  VX0.q.5.4.r.O k z.! . ] r.3.i.q.n.                                                ",
"                                              >.q.q.5.2.2.O k l.! . ] 1.4.r.w.q.0.                                              ",
"                                            0.q.r.4.7.*.%.X l ) W o - *.1.5.5.y.>.                                              ",
"                                            0.5.4.{ ' > ; % M ! E l o : ' ,.1.r.>.                                              ",
"                                          3.4.4.7.: M W m m A W E M v E W = { r.3.>.                                            ",
"                                          } 2.2.1.' 7 & k ! A E A ! E & 7 ; &.6.9.,.                                            ",
"                                            3.t.6.*.$.; z.) v 8 c A x.x  .%.1.9.9.                                              ",
"                                          ] 8.,.2.7.' Q ^ 8 3 a r 7 M ) x { 4.,.,.7.                                            ",
"                                            o.3.9.*.: c 7 a $.%.#...3 c & #.1.5.{ `                                             ",
"                                             .| 6.6.&.: o.*.6.#.%.%.$.' ' 1.6.2...p                                             ",
"                                              o.2.2.6.M.%.{ 3.M.#.%.1.*.B.7.{ M.t                                               ",
"                                            PXi ..#.,.B.m.m.} 1.%.#.1.1.1.| $. .~.                                              ",
"                                            PXNXy t  .#.%.M.m.1.8.N.%.M.o.t y i                                                 ",
"                                                8X~.i i t o.#.....#.` t i BX                                                    ",
"                                                      NX~.p a u i 8XNXNXNX                                                      ",
"                                                          0X0XLX                                                                ",
"                                                                                                                                ",
"                                                                                                                                ",
"                                                                                                                                ",
"                                                                                                                                ",
"                                                                                                                                "
};
