/* XPM */
static char *a2f2f3797b1840dbd0e3c938f40e9c2fY9IBCRn2JZG7ioTh[] = {
/* columns rows colors chars-per-pixel */
"64 64 256 2 ",
"   c #321332",
".  c #272A3C",
"X  c #352B39",
"o  c #2E3539",
"O  c #182334",
"+  c #4F313A",
"@  c #52203B",
"#  c #4E443A",
"$  c #6C5139",
"%  c #706338",
"&  c #1F3657",
"*  c #293847",
"=  c #363847",
"-  c #273757",
";  c #373453",
":  c #2F2B47",
">  c #34376C",
",  c #1E1A5C",
"<  c #463947",
"1  c #503050",
"2  c #6B2F50",
"3  c #4A376F",
"4  c #712F6F",
"5  c #541C5E",
"6  c #37454C",
"7  c #2D4958",
"8  c #3B4C54",
"9  c #374956",
"0  c #3A5259",
"q  c #2C424A",
"w  c #364664",
"e  c #3B5563",
"r  c #3E5965",
"t  c #385665",
"y  c #314571",
"u  c #3E6172",
"i  c #48444A",
"p  c #464957",
"a  c #43525C",
"s  c #475558",
"d  c #554A4F",
"f  c #6B514A",
"g  c #73644B",
"h  c #435B66",
"j  c #4B5D64",
"k  c #445D6A",
"l  c #495E6A",
"z  c #455563",
"x  c #545C66",
"c  c #495576",
"v  c #555879",
"b  c #494868",
"n  c #71526E",
"m  c #46616D",
"M  c #4B626D",
"N  c #4A6468",
"B  c #52656C",
"V  c #58656C",
"C  c #4D6571",
"Z  c #4D6A74",
"A  c #4B6877",
"S  c #516671",
"D  c #546A74",
"F  c #596D76",
"G  c #546D79",
"H  c #5A6E79",
"J  c #5B6572",
"K  c #5B7177",
"L  c #55717B",
"P  c #5D727A",
"I  c #5C757C",
"U  c #666B77",
"Y  c #62757D",
"T  c #65797E",
"R  c #6B757A",
"E  c #74787B",
"W  c #6C6A6D",
"Q  c #903973",
"!  c #A8346F",
"~  c #913158",
"^  c #DE2F7C",
"/  c #8F4A4E",
"(  c #956A47",
")  c #8D5373",
"_  c #B25175",
"`  c #907471",
"'  c #B16E66",
"]  c #AF6E69",
"[  c #AE6956",
"{  c #C24C79",
"}  c #D46F71",
"|  c #E37373",
" . c #805A39",
".. c #7AAB7F",
"X. c #7A857F",
"o. c #B08A51",
"O. c #8C8C77",
"+. c #B09170",
"@. c #BBAC66",
"#. c #D4B658",
"$. c #D49A6F",
"%. c #FB877B",
"&. c #FC9677",
"*. c #E78E6F",
"=. c #D5B26F",
"-. c #FBA677",
";. c #FFBB78",
":. c #F0B86D",
">. c #EBCE58",
",. c #FDD66A",
"<. c #F6CE71",
"1. c #FEEB68",
"2. c #FEF466",
"3. c #FEEA78",
"4. c #FFF875",
"5. c #EBD66E",
"6. c #24378D",
"7. c #523487",
"8. c #602E95",
"9. c #365293",
"0. c #2B53AF",
"q. c #3170B9",
"w. c #55578F",
"e. c #695392",
"r. c #5D6586",
"t. c #5B7683",
"y. c #4A6897",
"u. c #657A82",
"i. c #6A7C83",
"p. c #657983",
"a. c #777B84",
"s. c #706F90",
"d. c #5955B3",
"f. c #6F58AD",
"g. c #4F77AE",
"h. c #736EB0",
"j. c #387BCA",
"k. c #6F58CA",
"l. c #4978CB",
"z. c #5571C9",
"x. c #6B6FCD",
"c. c #B23B93",
"v. c #963283",
"b. c #925289",
"n. c #B6538A",
"m. c #987C94",
"M. c #8C728F",
"N. c #AE678F",
"B. c #896FAC",
"V. c #AC65AB",
"C. c #CC5591",
"Z. c #CE6F8E",
"A. c #ED57A6",
"S. c #F76BAF",
"D. c #E36595",
"F. c #8A75C5",
"G. c #A76BDC",
"H. c #FF77C1",
"J. c #6B8388",
"K. c #78858A",
"L. c #728E91",
"P. c #76AD8B",
"I. c #518BB2",
"U. c #7292B3",
"Y. c #7BBBA5",
"T. c #6EACB3",
"R. c #59ADB3",
"E. c #7AC6B5",
"W. c #40C0AF",
"Q. c #3C88CF",
"!. c #4A8AD5",
"~. c #4896D6",
"^. c #5390D0",
"/. c #718CCD",
"(. c #5BA4CA",
"). c #5AB9D9",
"_. c #54AAD4",
"`. c #66AFD1",
"'. c #5AB6E6",
"]. c #54ADE6",
"[. c #689EEC",
"{. c #6BCAE1",
"}. c #22A3B6",
"|. c #82878C",
" X c #888998",
".X c #978597",
"XX c #908F96",
"oX c #A99093",
"OX c #86B792",
"+X c #8A99A6",
"@X c #9A9AA5",
"#X c #8D95BB",
"$X c #918DB0",
"%X c #A999AA",
"&X c #AD93AF",
"*X c #8FABB0",
"=X c #AEAAB2",
"-X c #B7A18A",
";X c #D1908F",
":X c #FD8F86",
">X c #D3B18F",
",X c #FAB788",
"<X c #F1B094",
"1X c #CB95A7",
"2X c #F592B6",
"3X c #D0AFB2",
"4X c #F1BEA6",
"5X c #8AC896",
"6X c #87C4A6",
"7X c #93CEAA",
"8X c #AAE0A1",
"9X c #F5D988",
"0X c #F3C988",
"qX c #FCED93",
"wX c #F3D4AD",
"eX c #FDF7B7",
"rX c #FDF5AB",
"tX c #DAC493",
"yX c #918CC9",
"uX c #A98ECF",
"iX c #95B6C6",
"pX c #99B7D4",
"aX c #8BABC5",
"sX c #B6B4D8",
"dX c #AFB3CF",
"fX c #9B9DE4",
"gX c #8C91F1",
"hX c #98AEED",
"jX c #AEB2E9",
"kX c #AD96E6",
"lX c #CDB4CE",
"zX c #EAB5CD",
"xX c #D3A1E4",
"cX c #A9C8D9",
"vX c #AFC8D5",
"bX c #AAC3E4",
"nX c #B2C5E3",
"mX c #B2D5ED",
"MX c #B9E9FC",
"NX c #97D1E4",
"BX c #D0CED7",
"VX c #EDCDD2",
"CX c #FEF4C6",
"ZX c #FFF9D8",
"AX c #FAE8CC",
"SX c #CED2EF",
"DX c #E9DAEA",
"FX c #CAEAFE",
"GX c #D7E6F9",
"HX c #D9F7FE",
"JX c #D2E7EA",
"KX c #FFFDE6",
"LX c #E7F9FE",
"PX c #FEFEFE",
"IX c #FAFCF9",
"UX c #EBE8EE",
/* pixels */
"t P T h r Y F e M i.C t K T r k u.P e M u.P T k e T K e M T D e M 6 S i.M e Y T e k i.F e M i.l e Y Y T D 0 D i.k e P P e k T M ",
"P M k F F k M P D k D Y M k K F k M P D M M k F P k M P D h M u.a ` p m F Y m k P F k M Y D h D P k k M S Y M h F Y k k P F h D ",
"u.M h P P h M T D r D T M h P K h M T F l l h F Y h l T D r B t.i rXf t K T k k Y P r M T D r D Y k k k D T M h F Y k k P F r D ",
"t P T k h T K e M u.C e F T h h T P e M P P T k r T P e M i.P - ( rXo.z D e Y Y e k u.H e M u.M e P P H C e D u.k e Y Y e h i.M ",
"C H P S C F D M D P D M D P C C H D M D P K F S C H F M D H P = #.rX5.< Z M F F C S P D M D P S C D F P D C D H S C H H M S P D ",
"p.D C Y T M S u.P M H i.D M Y Y M S P P T F k Y i.C D J.Y D G d 1.qX4.$ G J.D D u.T C D i.H M P u.M S T Y u.D M P Y C C u.P C F ",
"P D D H P S D P F S F P D D P P M D P F P F Z C B z z j z a * ( 4.qX4.o.* x a a j j z l P P C F P D D P P Y D C P Y D D P P D D ",
"M P T C C Y P M D Y D M P Y Y P C S T P M C d W a..X%X%X%X%X%X5.1.qX1.5.@X%X&X&X%X@XM.E d z u.S M Y P M D u.D C P Y Y P M C Y S ",
"k P T C C T P k S u.D k P T Y P k C u.P l M + ;XCXZXKXPXIXKXKXCX3.qX3.CXKXKXIXPXIXZXCX4Xf 0 i.S l Y P k D i.D k P Y P P M C u.S ",
"H D D H P S D P D D D H D D P P P F S C H F t . / &.;.0XwXrXrXeXeXqXrXCXeXeXwX0X;.&.[ + 0 O.D D P S D P D C D P F P D D P G D D ",
"T D M Y Y M S u.H C P u.D S P P T Y t E K.u W O.9 < _ :X-.,X4XwXCXPXZXwXwX,X-.&.} 2 6 Z D R R O.G M C u.F k F u.P H D D Y P C G ",
"D P Y D D Y P C D P = p u.P P P P L E =.=.H O.O.A k O @ n.%.&.;.3.KXqX;.&.&.Z.2 O e L P I H =.=.U P P M D Y P 8 = H Y P D D P P ",
"S P T S C Y P C P a +..X9 u.P D I P J $.+.F u.t = W OXU.d.Q <.2.qX<X9X2.1._ 8.U.OXU = h J.U +.$.S P P k D J.9 M.+.9 u.P D D Y P ",
"P B M P P B D P u.= #.PXn p x J p M L R H m q W BXGXaXI.6.' 2.3.<X%.:X3.2.| 6.!.aXGXBXE q C U R L k p n x p n PX5.i J.P m C T D ",
"Y M h P Y M D u.k X >.ZXIXDXIXZX( 7 i.P k 6 =XLXcX6X7X^.6.&.2.-.:X&.%.&.2.-.7.I.7X6XcXLX=X6 M t.u.7 f ZXIXDXIXZX>.X C p.k M u.M ",
"e F Y k k T D o % @.1.qXPXPXeX#.= L k e s DXJX*X8X7XvXmXb.<.<.:XD.C.D.:X;.,.b.vXvX7X8X*XJXDXs e V u.= #.eXIXPXqX1.#.% o D P r S ",
"h F Y k M H X =.3.3.,.3.CX3.>.# C P e 8 UXvX8X8XiXGXLXbX_ <.:X_ C.A.A._ | 0X' pXLXGXvX8X8XvXJX8 h Y C + >.3.CX<.,.3.3.$.X D k D ",
"Y h e Y T H 6 f } %.%.&.:.1.>.= C S 6 BXcX5X7XnXLXmXhXd.| | 1 O A.A.A.  X } %.w.gXmXLXnX7X5XvXBX9 M D = >.1.:.&.%.%.} f * k T M ",
"D M M F F D G t o + %.-.;.;.3.g r 6 *XmXY.7XSXLXyXk.x.1 / X E p { S.C.= K.= ~ 1 z.k.F.FXSX7XE.NX*X= h g 3.;.;.-.%.+ o e C M D B ",
"t P i.k h h M J.L X %.;.[ ( $.( * F MXT.6XmXHXgXk.b * d a t .Xj ~ S.! 8 .Xa.z p * > k.gXFXSX6XT.MXF . ( =.( [ ;.%.< u k T P e D ",
"D D D D D D D S D < &.( * 0 6 i * iX`.R.cXHXgXx.* 6 H P i.S .XM 2 S.2 r h 3X%XZ A g ; x.gXFXcXR.`.aXo i 6 7 * ( :X1 Z D D D D D ",
"Y C M P Y T P C D < + 9 P D u.S p dXaXU.HXhXx.: ` a.h Y .Xa.M D + D.1 r P =XM.t O.AXO.: x.fXGXU.aXdX= L t.k t.8 + < u.I M Z T D ",
"P D C P Y B < z P P h C @.O.C b DX3XlXdXhX[.; 8 oXa.O.>XD C D I 6 { < Z F D M l +.KX>Xs - [./.lXlXlXBX; C O.O.A M P L p i D D D ",
"t.D C P u.# wXM.9 D G z =.>X9 $X3X5.0X3X X3 * T F G >XtXJ u.P C z   j i.M h Y u.e ;Xa.t.* >  X>XqX=.VXh.a >X:.l P B ; 3X+.e P D ",
"k H T C & $ rXUX&X` 6 L V H O #XlX| Z.Z.:X2 7 R >XS F W C Y F C D M D P M l F H M J F H 7 ~ <XZ.| } lXh.. R ` C d oXlXIX#.X M G ",
"e P P + o.5.3.KXeXo.6 J.D 9 r.d.SXuXlXf.5 1 r oXZXO.t i.F e M Y P i.M t F i.t E -XA x oXD 1 5 U.uXlXjXf.x e G P # 9XZXeX1.#./ * ",
"Y M e + ' :X-.1.>.X D C j X mX/.7.uXh.k.y 0 t.J ` H D S S D D S B B D D C C D U J C P F C * d.d.$XyX> NX+X= C G 7 % 2.,.&.*./ * ",
"P M k L O _ ,X,.,.d G 6 ] wXXXL.! Z.tX] . D T l t p.P e M T F M M r D i.M e Y P t m u.U r h 1 >X>XC.) Y.+.wXf m 7 o.3.,.:X@ 0 G ",
"t H T M 7 / o.X  .i A : *.0X` P.4 _ ] + 9 k .X3XP k M P P T P M D Y D k H T k k T P x 3XK.L o / ' v.U P.} wX/ 7 z $ $ # *.< r S ",
"k D D M l o 6 A e l t.q 1 b.t.5X7.dXyX: C l 1XVXa.k M Y P H F B D P S M D P M M H S M.DXm.D 0 b nXF.J 7X3 b.: m P a r r o 8 Z C ",
"i.k e Y i.r 0 V S e 6 E GXU.8X5Xf.LXDXp T C l M.I k M i.F e M i.D e D i.l e T p.e k i.m.e Z B B.IXjXr.8XY.pXBXp 7 k x x 7 C i.M ",
"M D D C k < oX=XW p =XGXaX8X5XP.yXPXPXs h D D M C D D M S F D M S D S M D D C C D D C M D G 9 %XPXGXL.5X5X7XjXDXXXi oX=Xn 6 A M ",
"t P i.m X 3XAXVXAX-XpX*X8XL.9.P.yXPXPXs 0 D i.k r T P e M i.F e M i.M t F T h h T P t M i.P * %XPXGXL.Y.6.OX8XiXdX4XAXwXDX) q G ",
"P M M N n zX:.qX<X>XP.7X9.0.(.P.yXPXPXx K D e H P k m T F h M T D r D Y M h P P h M T F r D j %XPXGXL.6XQ.0.t.7XO.wX:.qX>X1X= I ",
"T M l Z 2 zX>X*.VX;X5XI.Q.'.(.P.#XPXPXx D D m D H M M P D M S P D k D P M k F F k M P D k D a %XPXGXL.Y.~.'.q.6XO.zX>X*.zXZ.= L ",
"e P u.m . n.zXxX2X1 P.7X{.'.(...yXPXPXa 7 D i.k e T Y t M i.F h S i.C t F i.h r i.Y e M i.P * @XIXGXL.6XQ.{.{.7Xu n.zXlX2X2 C S ",
"D S S F 0   c.1X) y T.E.'.'.(...#XGXLXj S S l D F M M K D M S F D M D F M M D D M M F D M D a @XPXGXL.OX~.'.).6Xq.< ;XD.~ . m S ",
"Y l e T B 5 c.$.+.9.T.E.'.].(.P.h.SXLXj K S e H Y h k T F r M T D e D T M r P P h k Y D r D j +XPXSXp.6X~.'.'.7XQ.W =.C.v.= m S ",
"e F T k k . 8.M.d Q.T.E.'.].(...#XPXIXa 0 D i.l h T P e M i.F h S u.M e F T k h Y P e M i.P * +XPXSXJ.OX~.'.'.6X~.y.) M.5 8 i.l ",
"m D H M Z ; yXLX+XQ.T.E.].].(.P.#XPXLXa m D F C M F D M S H D M S P S M D F M M D D M C F P 9 +XPXGXL.Y.~.'.'.6X~.g.BXFXw.0 u.M ",
"T M z Y T ; jXIX=XQ.T.T.].~.(.P.#XPXLXa p D h P T r k i.H e C i.D r D i.m t Y T r k i.P k k = +XPXGXL.Y.!.].].6X^.I.UXHXe.q u.S ",
"D D D D K ; fXLX=XQ.T.T.].~.(.P.#XPXGX+X=Xp h P D F F D D H D D D P D D D F D D F H H D 8 U =X*XPXGXL.Y.!.]._.OX^.g.UXHXe.8 P D ",
"C P T M S ; fXLX=Xj.T.T.!.!.^.B.#XPXGX+XlXlX.X9 0 Y u.C D i.P l D u.D k Y i.S D i.P 9 p %XBXBX+XPXGXs.yX!.^.^.Y.^.g.UXHXe.a D D ",
"C P Y S D ; fXLX=Xj.U.U.l.!./.B.#XPXJX@Xa.; lXBX Xx 8 z l Z D P F < V P D B M z 8 V @XDX&X: =X*XPXGXs.yX!.!.z.*X!.g.UXHXe.0 G D ",
"C P T C D ; fXLX=Xj.yXyXl.!./.B.$XGXJX@X=XO %X$XB.lXlX@XE p 8 M i 3Xp j 8 p R @XlXBXB.$Xa.8 lX+XGXSXs.yX^.l.z.uX!.g.UXHXe.0 G F ",
"Z F K D D ; fXLX*X0.F.yXl.l.x.n.yXIXJX XDXlXUXx = .X$XB.dXUXBX.XoXeX-Xm.BXUXsXB.$X X: U DXBXBX+XIXSXb.V.j.z.x.&Xz.y.JXFXe.0 P D ",
"T M h P T ; fXLX*X0.V.V.l.l.h._ yXPXJXXXuX> a.U U DXJ * * i.dX_ ,X,.,X) =Xa.* q W DXU R a.3 dX+XPXSXb.C.l.z.x.D.z.y.JXFXe.6 i.D ",
"F D D D K ; fXLX*X0.V.V.z.z.h._ F.IXSX@X|.o K.K.* a.a.M u.6 BXh.  :X  r.JX= Y N a.R * K.R o %X+XIXSXb.n.j.z.x.D.z.9.JXFXe.8 G D ",
"k P u.M M ; fXHX*X0.V.N.h.z.h.{ B.SXSX$X X7 a.i.7 a.a.D P a %Xa a @ a a %Xa Y D E E 7 a.E 9 %X#XHXkXb.n.l.x.B.D.z.y.JXFXe.a C D ",
"P D C H K ; fXHX*X0.b.N.h.d.h.{ h.HXmX+Xa.q a.a.h K.a.h G j @X8 D 0 D z @Xs F l E E 0 a.a.8 @X#XHXjXb.C.z.h.B.C.d.y.JXFXe.8 u.D ",
"P C C P T ; fXHX+X0.) n.h.h.B._ B.GXjX$Xa.6 K.a.M K.a.a P B @X9 H J.D 0 @Xj P M E a.0 a.K.a $X$XFXjX) C.z.h.B.{ w.9.BXFXe.8 u.D ",
"P D C H I ; uXmXw.9.Z.N.e.d.h.{ e.xXxXB.s.q J U 8 U U a S 6 K.8 S z S a a.8 j 8 J U 0 R J 9 $XB.xXyXn C.z.e.e.N.M.6.$XmXe.8 u.D ",
"T D C H T * G.SXU.9.n.1Xe.d.B.{ /.hXuXB.r.s .X.XM..X.Xm..Xm..Xm.m.m.m.m..Xm.m.m.m..Xm..X.Xp U.B.fXhXb.C.z.e.s.2X7.9.pXxX3 a u.F ",
"D D F C G ; G.jXU.0.> C.2XM.f.{ h.MXF.h.v n }.}.5XW.Y.9X9X9X9X9X9X9X9X9X9X9X9X9X9X,X^ ^ C.W h.e.jXmXe.C.y.1X2X2 0.9.pXG.7.8 u.D ",
"h P i.k m ; yXaXn B.b.n.c.2X) _ h.kXF.h.v @ r.c ` v n ' ' ' ' ' ' ' ' ' ' ' ' ' ' ] ! ! ! 1 h.s.uXkX) n.N.S.c.n.M.b.n bX7.6 i.F ",
"C D F M D : hXMXs.n.S.n.4 H.4 v.e.yXbXh.r.q 1 b i 1 3 p b ; 3 = p p p < 3 ; b p ; 3 s w w 6 h.U.jXx.8.Q n.A.5 S.D.b.#XFXw.8 p.D ",
"u.M h T B   N.=Xf , 5 C.S.n.  8.f.mXmXw.w.q y c s c c s D q y.8 M 0 M s y.* D N c c 8 c c 6 w.L.MXhX8.8.  A.S.! , , oX-X4 * k D ",
"F D F C # ;X>X4X$.p.iXiXnX*X*XpXaXcXmXs.v |. X X|. X X|. X|.+X|. X X X|.+X|. X X X X|. X Xa.b pXmXpXaXpX*XiXnXiXT.` 4X<X>X( 6 H ",
"M P i.t g ,X;X:.<.K.).(.{.(.).`.^.`.`.I.s.jXsXnXnXnXnXnXnXnXcXnXnXnXnXnXnXnXnXnXcXnXnXcXjXkXc _.(.).I.{.(.).).(.(.o.,.;X;X*.i L ",
"F D F k $ ,XZ.-.;.H _.`._.(.`._.).).{.y.$XsXsXsXsXsXsXdXsXsXsXsXsXsXsXsXsXsXsXsXsXsXsXsXdXsXr.(.{.)._._.`.`._.`.Q.' <.Z.;X*.= G ",
"i.M h P i f f f f = - - - w - & w w & * v r.c v r.c c r.r.c v r.v c v c r.r.c c r.r.c v r.r.; - w & - w w w - & - d f f g f * D ",
"M D F S C m k k m C B B B B B B B B B B h h N h h j j h N N j j N M N N h h j j h j N N h h B B M B S B N M B B B m m m k m D M ",
"e P T h e h M i.F e D i.k 0 Y P e k i.F e D i.l h u.P e M i.F e D i.T i.M e Y p.e k i.P e M i.k e u.P r h e D i.h e Y T t k i.M ",
"P M h D K P D h M Y M h D P k m P D k M Y S h D P l l Y D k M Y D m M k D P k k P F k M P D h D P k M P F P S h D P k k P F h S "
};
