/* XPM */
static char *_b10fc868bee412db1a209939299f16ay152F0nDaxVscOgX[] = {
/* columns rows colors chars-per-pixel */
"64 64 256 2 ",
"   c None",
".  c #19000B",
"X  c #0A170C",
"o  c #280D15",
"O  c #172E07",
"+  c #360F30",
"@  c #2C2328",
"#  c #362D33",
"$  c #1B271F",
"%  c #511230",
"&  c #6E1135",
"*  c #4F2F32",
"=  c #753237",
"-  c #347A2A",
";  c #484835",
":  c #517639",
">  c #697838",
",  c #34134E",
"<  c #142F52",
"1  c #233548",
"2  c #343845",
"3  c #342849",
"4  c #0D3568",
"5  c #2C2F65",
"6  c #361463",
"7  c #570B46",
"8  c #750846",
"9  c #513E44",
"0  c #521474",
"q  c #6B1370",
"w  c #6C2E7D",
"e  c #37444D",
"r  c #314E53",
"t  c #0B7154",
"y  c #0E4A6F",
"u  c #0B6E6F",
"i  c #367778",
"p  c #2B6C69",
"a  c #27655F",
"s  c #4A565C",
"d  c #4F4A51",
"f  c #50556D",
"g  c #536973",
"h  c #6C6B6C",
"j  c #6D4A67",
"k  c #851736",
"l  c #8E153A",
"z  c #853039",
"x  c #8B5A3D",
"c  c #8D0D4B",
"v  c #A91250",
"b  c #972848",
"n  c #813E47",
"m  c #AA254B",
"M  c #B42B51",
"N  c #8E0C70",
"B  c #B8147A",
"V  c #B00C76",
"C  c #853478",
"Z  c #AD2672",
"A  c #CA3758",
"S  c #EC2D5E",
"D  c #C71A79",
"F  c #C8176E",
"G  c #D7277E",
"H  c #CF2D6E",
"J  c #E92B7E",
"K  c #E83679",
"L  c #F3377C",
"P  c #E62F6B",
"I  c #DA135A",
"U  c #8F5471",
"Y  c #B35370",
"T  c #926A64",
"R  c #AB6F4D",
"E  c #D24D57",
"W  c #EC4E5A",
"Q  c #D36258",
"!  c #EA675C",
"~  c #ED7352",
"^  c #D35170",
"/  c #EC4C70",
"(  c #FA6679",
")  c #F77166",
"_  c #CD776D",
"`  c #24973E",
"'  c #5B9139",
"]  c #6EAD2F",
"[  c #659F27",
"{  c #79D73A",
"}  c #72D235",
"|  c #6DD53E",
" . c #279448",
".. c #37B04B",
"X. c #229B6A",
"o. c #4EB547",
"O. c #54AE78",
"+. c #67BB72",
"@. c #519654",
"#. c #5CC94A",
"$. c #4FC952",
"%. c #68D649",
"&. c #6ED04D",
"*. c #75E546",
"=. c #74CA64",
"-. c #43CA74",
";. c #95B82C",
":. c #E5BD3C",
">. c #B6EF12",
",. c #8CD533",
"<. c #ADDC2D",
"1. c #99E93A",
"2. c #8BE432",
"3. c #A5E82A",
"4. c #B5EB27",
"5. c #BBF329",
"6. c #A6EA36",
"7. c #A8F434",
"8. c #B5F33A",
"9. c #B5EE32",
"0. c #97D113",
"q. c #CBF514",
"w. c #E9FF14",
"e. c #E4D738",
"r. c #C5F529",
"t. c #C5F737",
"y. c #D8F936",
"u. c #CFEA34",
"i. c #E0FE35",
"p. c #948F59",
"a. c #8FB441",
"s. c #ADAB75",
"d. c #FB9B56",
"f. c #F8914B",
"g. c #FCA748",
"h. c #FBA156",
"j. c #FCB65A",
"k. c #F9B349",
"l. c #FD8A69",
"z. c #F9956E",
"x. c #FEA56A",
"c. c #F6B176",
"v. c #C8AF41",
"b. c #8AD856",
"n. c #90D44D",
"m. c #9BE746",
"M. c #8AE449",
"N. c #A5EB47",
"B. c #B1F749",
"V. c #87D069",
"C. c #ADE26B",
"Z. c #D8DD4E",
"A. c #FBCD57",
"S. c #F9D859",
"D. c #F2CF48",
"F. c #F7F056",
"G. c #FCCE69",
"H. c #FDE371",
"J. c #13368F",
"K. c #153AAC",
"L. c #3636B4",
"P. c #20389F",
"I. c #4E1988",
"U. c #721393",
"Y. c #68249E",
"T. c #0E538B",
"R. c #067A87",
"E. c #12708B",
"W. c #1555B6",
"Q. c #176EA7",
"!. c #286199",
"~. c #4D7184",
"^. c #764FB4",
"/. c #4D5CA5",
"(. c #1A4AC8",
"). c #1C57D0",
"_. c #2952CD",
"`. c #186FD5",
"'. c #2671D4",
"]. c #1C7AE1",
"[. c #6C4EC5",
"{. c #4B5BCD",
"}. c #8F108F",
"|. c #BA1385",
" X c #A8178E",
".X c #AF2688",
"XX c #89369B",
"oX c #D52F88",
"OX c #EB3682",
"+X c #F93983",
"@X c #E92D81",
"#X c #D11A85",
"$X c #AE51A4",
"%X c #D84D85",
"&X c #FD4787",
"*X c #FB5886",
"=X c #ED538C",
"-X c #FA698D",
";X c #F76C93",
":X c #FC7894",
">X c #F37188",
",X c #0E8D8C",
"<X c #2B948B",
"1X c #14A994",
"2X c #08B08D",
"3X c #28A989",
"4X c #1691AD",
"5X c #1BABBD",
"6X c #29ADAF",
"7X c #2483A9",
"8X c #528F91",
"9X c #778D96",
"0X c #6F94A7",
"qX c #0DC08D",
"wX c #36C083",
"eX c #198BD4",
"rX c #269AD9",
"tX c #2DA4CB",
"yX c #1B94E4",
"uX c #1AA9E9",
"iX c #1BB5F1",
"pX c #2AB3ED",
"aX c #2697E3",
"sX c #4ABFE3",
"dX c #2DCACD",
"fX c #1AD6FD",
"gX c #19C5F8",
"hX c #26D7FD",
"jX c #2ED0F5",
"kX c #2BE5FA",
"lX c #37EDF8",
"zX c #1FE1FD",
"xX c #48D2F8",
"cX c #6AD4F2",
"vX c #48F6FC",
"bX c #5AF6FB",
"nX c #51E9F0",
"mX c #6EF0F6",
"MX c #6AE4CD",
"NX c #88A5B6",
"BX c #8CABB3",
"VX c #9BA4A3",
"CX c #D29591",
"ZX c #FA8899",
"AX c #F29191",
"SX c #F1AA9C",
"DX c #FB95A1",
"FX c #FCA3A9",
"GX c #F2CB8F",
"HX c #A6BCC6",
"JX c #B9CFD8",
"KX c #89F6F8",
"LX c #D3DCE4",
"PX c #F9F8FB",
"IX c #DDE6E9",
"UX c #ABC58E",
/* pixels */
"                                                                                                                                ",
"                                                                                                                                ",
"                                                                                                                                ",
"                                                                                                                                ",
"                                                                                                                                ",
"                                                                                                                                ",
"                                                                                                                                ",
"                                                                                                                                ",
"                                                                                                                                ",
"                                                                                                                                ",
"                                                                                      % * 9 *                                   ",
"                                                                            u <X8Xs * b ^ CXT * *                               ",
"                                                                          ,XjXbXKXBXU P ( SXAXR R p.d                           ",
"                                                                  a e X y 5XkXvXbXmXVXK ) ) l.h.G.GXs.*                         ",
"                                                            E.5XnXMX8Xr u 5XMXMXMXMXs.~ d.g.h.x.c.GXc.x @                       ",
"                                                          4 4XjXbXKXMX6XX.3XV.B.C.C.Z.f.g.k.g.d.z.x.d._ T *                     ",
"                                                      1 1 y tXkXvXbXnXdX2XwXb.8.t.Z.S.j.h.G.j.h.d.d.d.AXSXT @                   ",
"                                                  @ a ,X4X5XlXvXbXbXdX1XqX-.b.8.u.k.S.G.G.H.H.A.j.g.d.) AX^ %                   ",
"                                                2 y 4XjXkXlXvXmXKXmXtX,X2X-.=.m.9.e.A.H.A.A.G.H.G.g.g.) K M @                   ",
"                                              e y `.uXhXkXlXvXbXmXmXtXE.,XO.=.M.1.u.D.F.F.S.A.G.j.f.f.W H b *                   ",
"                                              < T.yXgXhXxXmXbXvXvXbXxXQ.E.O.b.1.6.8.y.F.F.F.S.S.A.j.f.~ / _ T *                 ",
"                                            1 4 W.].iXhXxXcXbXvXbXKXcX7X,X3X+.m.8.t.y.y.F.F.F.F.S.G.j.l.( AXCXn                 ",
"                                            e T.`.].yXgXpXjXkXlXvXmXsXQ.2X2X3X+.N.8.t.y.y.y.e.D.k.g.g.f.( ( >Xb                 ",
"                                            s y eXuXeXiXfXfXfXkXlXvXpXQ.,X2X1XO.b.N.N.t.t.t.u.D.A.g.g.g.l.*XK b #               ",
"                                            g < Q.yX].eXiXfXfXzXkXkXjX'.Q.R.2X3XO.=.=.m.8.8.u.:.k.g.g.f.~ P v &                 ",
"                                            e < W.'.{.{.uXfXfXfXfXfXfXpX'.T.,X<X+.n.V.b.N.m.N.<.v.~ ~ W S v % @                 ",
"                                            1 J._.[.$X^.aXiXgXfXhXhXhXjXeXT.R.,XO.V.O.O.+.+.=.b.p.E W S I & @ #                 ",
"                                            1 J._.[.$X[.'.yXiXhXxXxXjXxXrXT.E.R.,X<X1X1X1X1X3XO.h H S S H Y T * #               ",
"                                            2 4 K.(.{.'.uXiXuXiXjXjXjXcXaX!./.!.E.R.,X,X,X2X2X<Xj V F H =XZXCXU @               ",
"                                              2 < J.(.(.eXrX].eXyXiXiXpXpX/.U.w f E.p f ~.<X<X~.Y H H %X-X:XZX^ %               ",
"                                                e < K.K.W.).).).`.`.eXuXpX{.XXN C w C Z Z C U $XZX;X;XDXZX-X*X^ &               ",
"                                                  e 5 5 J.(.(.(.).).).'.'._.^..XG oX%XOXOXOX=XZXFXDXZXFXZX*XK Z *               ",
"                                                    h s 5 J.J.J.P.(.)._._.{.XXoX+X*X*X&X&X&X-X:XZX:X:X:X:X/ M % #               ",
"                                                      VXf 1 < + , J.L.L.L.Y. XG J +X&X*X&X&X*X*X-X:X:X-X*X^ = 2 g               ",
"                                                        0X~.2 % % % q q I.Y.}.V #XOX*X;X&X+X&X*X*X;XZX:X*X/ b d 9X              ",
"                                                          NXg * & & c c 0 Y.U.}. X#X+X&X+X+X&X&X&X=X;X-X/ / m d                 ",
"                                                          JX9X# & m m c % 6 0 U.}.|.G OXJ +X+X+X+XL OXL L H b 9                 ",
"                                                          HXg * b M m k % % , 0 }.}..XoXG J @X@XJ L K L J F & r                 ",
"                                                          9Xe z M M l & % % + 0 U.}..X=XoXB D B B D D D D c % e                 ",
"                                                            = Q Q m * h h s 2 , 0 q }. X X|.#X#X|.#XD |.N 7 o                   ",
"                                                        JXr . ~ c.& $ IXLXNX0Xe # , I.U.U. X#X|.V D B N 7 @                     ",
"                                                    UX,.<.[ . ! x.k O <.a.,.JXBX9Xs 6 0 I.U.}.}.q % % +                         ",
"                                                  a.;.q.w.;.. ! l.k O w.w.4.n.a.LXHXf 3 3 I.U.U.7                               ",
"                                                n.q.i.3.r.] . ! z.k O r.4.5.q.0.VX  HXh s 2 ,                                   ",
"                                              0.q.w.r.4.1.[ . ! l.k O 2.2.5.q.q.>.                                              ",
"                                              >.y.5.5.1.*.- o W ) l X %.*.7.4.r.q.0.                                            ",
"                                              >.r.1.,.> : o l E ! M % ; > ' { 4.5.0.                                            ",
"                                            >.3.r.{ = W E v M E W A m m W M : 7.4.4.3.                                          ",
"                                            ,.9.6.%.; 7 & E ! A E A ! k & 7 ' 1.2.2.}                                           ",
"                                              9.9.1.%. .x x.A c 8 v ) z.; $.2.6.t.3.                                            ",
"                                            7.,.} 4.{ x ) M 7 r a 3 8 ^ Q ' 7.2.,.8.]                                           ",
"                                            ` { 5.2.#.& c 2 ..#.%.$.a 7 c : *.9.3.o.                                            ",
"                                            p ..2.6.1.o.@.$.%.&.#.3.*.o.: &.6.6.|  .                                            ",
"                                              t M.{ 7.N.*.1.&.#.M.3.{ %.M.6.2.2.o.                                              ",
"                                              ~. .$.| 1.1.1.#.&.1.| 1.m.B.,.#...i PX                                            ",
"                                                p y t o.M.%.N.B.1.M.M.%.#. .t y NXPX                                            ",
"                                                    BXi t ` #.....#.o.t i i ~.8X                                                ",
"                                                      NXNXNX8Xi u a p ~.NX                                                      ",
"                                                                LX0X0X                                                          ",
"                                                                                                                                ",
"                                                                                                                                ",
"                                                                                                                                ",
"                                                                                                                                ",
"                                                                                                                                "
};
