/* XPM */
static char *_bf8ce73407e4a1eea4412a517253344MaYhHjO2hTD6SeaU[] = {
/* columns rows colors chars-per-pixel */
"64 64 248 2 ",
"   c #06253F",
".  c #042945",
"X  c #033444",
"o  c #04354B",
"O  c #043C4B",
"+  c #0A3A4B",
"@  c #043B53",
"#  c #13364A",
"$  c #0B444D",
"%  c #07434B",
"&  c #15484C",
"*  c #18534D",
"=  c #0C4452",
"-  c #0C4B52",
";  c #044552",
":  c #134C53",
">  c #164755",
",  c #145454",
"<  c #1A5453",
"1  c #195956",
"2  c #0E5152",
"3  c #24584C",
"4  c #265A55",
"5  c #29495A",
"6  c #1D6258",
"7  c #37694C",
"8  c #3A724E",
"9  c #246354",
"0  c #2C6553",
"q  c #23645A",
"w  c #2B6B59",
"e  c #376956",
"r  c #2E7559",
"t  c #3B7353",
"y  c #347C5B",
"u  c #377758",
"i  c #2C664F",
"p  c #2C5666",
"a  c #325166",
"s  c #347A61",
"d  c #2E7165",
"f  c #155660",
"g  c #457A4C",
"h  c #447B55",
"j  c #487A56",
"k  c #577C58",
"l  c #4B6D52",
"z  c #456966",
"x  c #577566",
"c  c #527172",
"v  c #68787A",
"b  c #747E7B",
"n  c #60736C",
"m  c #455C69",
"M  c #3C825C",
"N  c #3A885B",
"B  c #3D9158",
"V  c #3B8662",
"C  c #2F8168",
"Z  c #4B8454",
"A  c #43845C",
"S  c #4C845C",
"D  c #458B5D",
"F  c #4B8B5C",
"G  c #498754",
"H  c #538C5A",
"J  c #568956",
"K  c #4A935C",
"L  c #549256",
"P  c #54935B",
"I  c #5B945B",
"U  c #5D9B5C",
"Y  c #5B9658",
"T  c #548A4E",
"R  c #649C56",
"E  c #639C5B",
"W  c #699E5B",
"Q  c #659657",
"!  c #6E9653",
"~  c #5AA05D",
"^  c #7AA74E",
"/  c #6DA556",
"(  c #65A25B",
")  c #6BA45B",
"_  c #6DAA5A",
"`  c #6CA856",
"'  c #72A555",
"]  c #75AB56",
"[  c #7AAD56",
"{  c #72A65A",
"}  c #74AA5A",
"|  c #7BAD5A",
" . c #7BA658",
".. c #7DB155",
"X. c #7CB25B",
"o. c #7AB75B",
"O. c #6EA44D",
"+. c #478B62",
"@. c #548C64",
"#. c #4A9363",
"$. c #599963",
"%. c #649B62",
"&. c #7C887C",
"*. c #6A8F64",
"=. c #57A263",
"-. c #63A362",
";. c #6AAB63",
":. c #68A663",
">. c #73A462",
",. c #78AA63",
"<. c #75B364",
"1. c #78B766",
"2. c #6BB363",
"3. c #7CC363",
"4. c #8BB94E",
"5. c #95BD4E",
"6. c #83AD5B",
"7. c #84AB57",
"8. c #84B454",
"9. c #8AB654",
"0. c #85B954",
"q. c #8CBA53",
"w. c #84B35A",
"e. c #8BB55B",
"r. c #8DBB5C",
"t. c #87B85F",
"y. c #93BD53",
"u. c #9ABE53",
"i. c #93B55C",
"p. c #94BB5A",
"a. c #9ABC5B",
"s. c #92B755",
"d. c #A3BC5C",
"f. c #A0BE4F",
"g. c #85AB66",
"h. c #83B462",
"j. c #8BB464",
"k. c #89BA67",
"l. c #96B965",
"z. c #98B26C",
"x. c #A2BD64",
"c. c #819D52",
"v. c #9CC24E",
"b. c #95C153",
"n. c #9BC353",
"m. c #9CC25B",
"M. c #93C15B",
"N. c #8BC95F",
"B. c #A7C84E",
"V. c #A3C652",
"C. c #A9C654",
"Z. c #A5C952",
"A. c #ABCB53",
"S. c #A4C45B",
"D. c #ABC55A",
"F. c #ADC95B",
"G. c #A4C95B",
"H. c #B2CE55",
"J. c #B3CC5B",
"K. c #B7CB59",
"L. c #B4D155",
"P. c #BAD555",
"I. c #BED855",
"U. c #BBD35A",
"Y. c #BFD859",
"T. c #B6D45B",
"R. c #ACD159",
"E. c #89C664",
"W. c #97C866",
"Q. c #9BD369",
"!. c #97D366",
"~. c #8FC372",
"^. c #A7C565",
"/. c #B5CB66",
"(. c #A6D76A",
"). c #BCD463",
"_. c #A8DB72",
"`. c #ADC975",
"'. c #B2E270",
"]. c #9CE16A",
"[. c #C3DB59",
"{. c #C1DA57",
"}. c #C9D870",
"|. c #5D7382",
" X c #6B778A",
".X c #757B92",
"XX c #6C728B",
"oX c #7C8785",
"OX c #7B8295",
"+X c #7E849C",
"@X c #798591",
"#X c #658386",
"$X c #7E82A1",
"%X c #828C88",
"&X c #869489",
"*X c #82869B",
"=X c #848A9C",
"-X c #868B99",
";X c #8B9399",
":X c #939A9C",
">X c #898DA2",
",X c #8589A2",
"<X c #8D92A4",
"1X c #8E93A9",
"2X c #9195A5",
"3X c #9295AA",
"4X c #959AAB",
"5X c #9A9DAC",
"6X c #949BA4",
"7X c #9A9DB1",
"8X c #9CA1AC",
"9X c #9DA2B2",
"0X c #A2A5B3",
"qX c #A6ABBA",
"wX c #AAAEBB",
"eX c #A6ABB5",
"rX c #ACB1BD",
"tX c #B1B4BE",
"yX c #A4A7AE",
"uX c #B3B6C1",
"iX c #B6B9C3",
"pX c #BBBEC8",
"aX c #AEB1C1",
"sX c #BDC1C9",
"dX c #C3C6CC",
"fX c #C5C9CE",
"gX c #CBCDD3",
"hX c #C5C8D1",
"jX c #CED1D5",
"kX c #CFD1D9",
"lX c #D1D4D6",
"zX c #D3D6D9",
"xX c #D5D9DA",
"cX c #DADDDE",
"vX c #DBDDE1",
"bX c #DFE2E2",
"nX c #E2E4E4",
"mX c #EAECEA",
"MX c #E6E9E8",
"NX c #EEF1EC",
"BX c #F2F4EE",
"VX c #EFF1F2",
"CX c #F3F5F2",
"ZX c #F6F9F3",
"AX c #F9FBF5",
"SX c #FEFEFC",
"DX c #DCE0DF",
"FX c #D0DE84",
/* pixels */
"qXAXCX9X+XsXSXnX<X*XjXSXNXCXNX4X=X>X-X4XNXAXtX+X0XZXCX0X+XuXSXmX4X=XsXSXMX<X=XjXSXzX=X<XnXSXiX=X;X;X;XnXSXgX=X2XmXSXpX*X9XBXAXqX",
"rXnXnXqX4XsXmXxX8X5XgXMXcXnXbX0X5X8X8X0XvXMXuX4XqXnXnXqX4XiXMXcX0X5XpXmXxX9X5XgXmXgX5X9XxXMXiX4X8X8X8XzXmXdX4X0XcXMXsX4XqXnXnXrX",
"jX<X2XcXAXsX*X5XmXCXrX=X<X>X2XnXBXmXBXbX<X=XdXAXzX>X>XcXAXfX=X2XnXZXdX=X4XMXZXrX*XeXBXmX4X*XfXZXmXNXmX5X=XiXZXMX4X=XdXAXcX<X<XlX",
"zX>X<XbXSXhX<XqXCXSXaX3X4X5X3XMXAXCXCXMX1X1XzXSXvX<X4XbXSXgX<X8XNXSXdX<X0XCXAXaX>XiXSXVX9X2XgXAXVXAXAXqX>XpXSXCX7X,XdXSXnX>X>XzX",
"uXxXlXwX-X%Xv -X;X%X&.oX8X5X&.%X%X&X&.:X&.b :X=XoXb yX%X-XoX%XeX-X@X%X-X&XoX&X&.oX;X@X&.%X;X%X&X%X*X;X6X&Xb :X;Xb b &.*X0XxXxXuX",
"qXSXSXv  .(.G.T g.^ T.e.e.! G.(.y. .l.p.R. .7.^ W.).c.l 6.^.`.>.j.O.G.W.| y.M.).m.k Q n.^.w.l.W./.e. .^ e.^.! g 0.m.W.9.n CXSXqX",
"iXlXuXk !.(.(.=.U | W.E.1.E k.W.k.1.@.W.Q.1.1.;.h.!.h.<.) k.Q.k.1.~.l.W.<.<.j.Q.h.<.k.(.(.E.<.~.(.1.<.<.W.W.E.<.;.!.E.!.Q 0XzXiX",
"zX=XXXe Y Y U V A A U K u F F $.K u A F W M M D M :.A h +.H Y r A #.L -.t I F U F r $.F U u A Y H $.r P F U #.r @.P Y 2.w XX>XlX",
"gX8X<X> H S u = 1 V D u o 9 M F u @ w @.j 4 % u D @., O A F w : * M N A $ * M F e O e D u < $ V D t o < A q 6 2 * D V +.> >X9XgX",
"wXNXSXc X r q : < < q - : : < 4 2 1 $ 1 1 % : $ q 1 = 2 - 9 < $ * & w - = : , 9 - * % 9 1 1 : : w = $ - < w - 1 , - y ; p mXNXrX",
"wXAXxXx * : ; 4 N 0 3 w y +.9 4 w y B 3 3 w A M 3 0 r B y 4 i r K r 3 0 y D 9 3 0 y y < 0 w N w 3 e y B 4 3 w u s 1 - + e lXSXqX",
"qXCXzXe L I h T L U I ( ( ) U U ) ( ) U >.) ` ) Q ) _ } _ Q ,._ _ ) U <.} _ ( U ) _ ) Q _ ) _ E %.( ) ) Y I -.P T U ~ Z e =XwXdX",
"qXSXVXx M.(.(.Y 7 ) h.W _ _ _ ` } X.} ] } { } { X.0.] [ ] [  .| | [ k.} ' [ ] ] } ' { g.| { } { W >.>.( <.) ( Z i r._.!.x $X+XxX",
"iXgX4XJ <.k.<.P h ( ) ) _ ) } / } } / } ] [ | | | [ ] | h.] ] | } ..| ] ..| ] >.} ] } ' [ ] / } { ) ) ) k.} ) Z $._ :.3.J 1XdXsX",
"zX=Xc y U H 2.-.h W ) _ { `.| ' [ | ~.] ] ] | t.| ..] `.z.] 8.| X.w.8...| ....[ [ | | w.[ j.l.} } } } { Q ( Q J E =.P 1.w fXSXeX",
"dXiX=X< u r I = 0 ) _ } { ) { ] | ,.l.| [ | ] ' ,.h.]  .] ..w.8.8.[ r.w.| ....g.| X.| j.] j.z.{ ] { { { k.} E 7 % E u q > 0XcXiX",
"qXAXAXm O w - & S _ _ _ R R ] | | ] [ } ..w.[ 8.|  .0...8.r.6.8.0.8.6.| 8.8.8.6.| ....] ]  .>.,.] ..} / ) W ) F & - , % p 3X*XzX",
"rXMXCX#X* * , 4 E } _ ' ' } | ] [ ] 6.| 8.8.8.8.0.0.9.8.j.l.w.9.0.0.8.8.0.0.0.8.8.j.w.8...] h.w.] ..' } ( ( ) E u < 4 & p 5X2XlX",
"gX3X7Xx R E.} j I ,.` } | | | | ..w.[ ..8.8.e.0.q.M.9.9.7.[ q.q.q.q.b.p.M.q.9.0.0.7.8.q.0.8.[ ' X.[ | } X.o.) Y g o.E.) z 3X2XjX",
"zX,X+Xk !.(.E.I 7 ` | } { ] l.r.| l.8.0.q.q.w.0.q.q.q.q.y.y.s.y.q.b.W.W.e.q.q.9.9.9.0.8.8.8.w.w.M.] } } ' ` } F i !.(.(.*..X-XzX",
"iXcXqXS -.-.( u g ' { j.j.] | ] ..] q.p.0.q.q.q.y.n.b.s.i.s.y.i.s.y.p.j.6.s.q.q.q.9.9.9.y.9.8.8.[ [ ] ] ,.{ ' t D $.:.;.j 0XcXiX",
"qXSXjX0 F :.-.q 8 _ ' ' { ..8.8.0.0.q.0.q.b.y.y.y.y.s.y.y.y.a.y.y.y.y.8.y.y.s.p.q.q.9.^.W.8.0.8.6.....X.,.{ ' j A -.S :.1 dXSXeX",
"qXNXnX5 < s q f h _ | j.| 8.8.j.0.q.q.q.q.4.q.y.p.y.n.u.b.b.y.b.a.`.a.b.b.b.9.g.s.y.q.6.7.9.q.7.g.[ ..h.,.' ` h - u d s , eXzXiX",
"rXBXAXc % 1 - < H ] { } [ 8.8...0.q.q.q.9.[ q.b.b.n.n.n.n.n.V.n.u.a.y.n.b.b.b.q.y.b.y.q.q.9.q.0.8.8...| ' ` ` P * , q % 5 3X,XzX",
"rXNXCX#X* 4 < 9 _ X.0...0.q.8.^.r.q.y.y.y.n.n.b.n.Z.n.V.V.V.V.Z.Z.V.V.V.V.v.b.b.n.u.y.y.y.q.q.q.q.e.w.8...l.| ) t 9 : : e >X4XjX",
"gX4X7Xx / W.X.j G X.t...0.q.q.l.9.y.y.b.y./.G.n.Z.V.V.Z.Z.Z.Z.D.F.C.C.C.A.Z.V.n.^./.y.u.y.s.q.9.q.w.j.8.[ l.g.I g h.Q.<.e gXNXrX",
"zX>X*Xl E.(.!.S e [ ] 8.0.q.q.9.q.y.b.b.a.a.n.C.B.V.Z.Z.Z.Z.A.D.C.H.A.A.C.Z.V.F./.y.y.a.y.y.y.9.y.q.8.8.8.' | g r N.W.W.*.vXSXqX",
"tXnXtXJ U ( U ;.L ] ..r.W.8.q.q.y.y.y.n.b.b.V.Z.Z.A.A.Z.A.H.J.F.A.H.H.J.).C.B.Z.^.u.n.5.b.p.y.y.q.9.9.8.8.../ Q 1.#.D 1.h +XqXfX",
"eXSXjX: A E ;.r 7 ..0...8.4.p.l.y.a.'.m.V.Z.Z.Z.^.D.A.L.L.L.F.H.L./.H.H.Z.A.F.x.v.Z.u.`.m.y.n.y.y.q.q.8.`.w./ h w ;.I I 1 XX=XxX",
"sXiXtXa & 0 9 @ t ] O.8.q.q.i.z.y.W.^.p.V.Z.Z.A.S.D.L.L.L.U.L.L.P.L.L.L.L.L.A.x.Z.Z.u.x.a.n.b.y.e.q.q.0.6.' o.A O i y $ & wXfXpX",
"xXOX2X|.O o - < R [ [ 0.0.8.y.y.n.n.u.v.F.J.Z.A.H.H.T.B.C.J.P.P.P.I.U.K.L.L.L.H.A.A.Z.v.V.n.b.m.p.q.q.8.8.] ' _ 1 - < X z AXSXqX",
"fXeXuXc 8 S 7 t W w.0.9.8.^ y.n.b.n.V.Z.Z.C.A.H.L.T.L.P.P.P.I.I.{.I.P.H.P.P.L.L././.Z.Z.Z.V.b.^.^.8.y.q.0.] [ R Z A F i z gXzXiX",
"qXAXVXx o.Q.W.I 8 0.8.9.q.y.^.n.v.D.S.V.A.J.J.A.T.U.P.P.I.I.).I.{.I.I.[.}.P.T.T.J.F.C./.V.V.n.y.9.s.y.q.q.q.8.T 8 N._.!.l ,X=XzX",
"qXZXdXJ 1.k.<.F t ' 9.l.p.q.e.y.n.n.V.Z.C.F.J.L.H.L.{.T.Y.[.U.Y.[.{.U./.C.U.K.J.L.L.A.B.Z.Z.n.n.b.y.q.q.M.0.[ h +._ <.E.I +X9XhX",
"qXAXjXe +.I ;.F 7 | w.l.l.y.y.b.n.S.Z.A.C.Z.A.L.L.P.L.}.}.I.[.).Y.T.J.H.H.FXH.L.T.H.H.F.G.Z.n.b.n.y.q.q.e.] ] h $.$.$.1.9 pXSXqX",
"wXZXhX> H @.@., j | 8.7.e.b.i.l.V.n.Z.D.x.H.L.L.P.I.I.K.P.[.).U.[.U.U.{.U.F.H.U.J.J.L.D.Z.Z.V.a.i.y.y.0.j.l.] t - $.D w = pXAXqX",
"jX<X9Xm X , : = L w.0.9.q.y.y.y.n.Z.A.Z.Z.H.L.L.U.I.Y.Y.[.[.[.[.{.[.[.[.U.C.L.P.H.H.H.A.v.n.V.n.b.y.y.q.| ,.} I & $ 1 ; p 5X2XgX",
"jX4XeX|.$ & = 9 } 8.0.9.y.b.y.S.S.V.Z.A.A.A.L.A.D.P.Y.[.[.[.[.[.L.B.Y.[.I.I.P.L.L.L.H.A.v.v.V.n.n.y.q.q.8.[ | ,.t , & + a eX4XjX",
"qXCXmX*.R X.{ Z J l.p.8.y.b.y.x.u.V.Z.Z.A.J.H.L.L.I.I.{.[.[.{.U.T.I.U.I.{.I.P.T.).A.A.A.Z.Z.V.V.Z.y.b.q.8.8.X.Q j ] E.) z vXZXwX",
"rXCXnXz 3.(.!.P 8 w.[ 9.q.y.p.s.b.V.Z.Z.Z.}.J.H.P.I.P.{.U.I.I.U.I.I.[.[.P.P.L./.).B.A.B./.^.v.m.b.y.9.8.q.0...Z 0 E.!.!.*.gXZXwX",
"gX5X2X4 K _ ~ ~ Y ..8.8.q.y.y.b.b.V.V.Z.Z.V.C.L.L.L.P.A.L.P.I./.P.P.P.K.L.L.L.Z.f.C.Z.J.a.y.n.y.q.x.e.8...[ ] I :.P P ;.j .X9XfX",
"zX>X.Xe u Z ;.M 7 ' r.i.q.s.i.b.n.n.}.D.B.Z.F.A.H.L.K.H.P.P./.H.L.).K.L./.H.J.^.A.Z.Z.d.u.n.b.u.y.9.8.8.W.e./ k j $.u ;.1 XX>XxX",
"iXjXjXa % w w @ 8 ] 6.7.q.q.q.b.a.s.i.a.B.V.Z.A.x.d.D.H.L.H.A.H.L./.^.L.F.A.C.l.Z.Z.V.5.b.b.b.i.g.9.q.7. .] ] t o r C q > uXlXiX",
"qXZXSXv X : = < E | ] 8.q.q.y.y.y.u.y.u.V.Z.Z.C.C.Z.A.Z.J.).J.L.L.A.A.H.H.A.A.Z.Z.Z.V.n.b.a.y.y.9.9.9.8.[ ] ` E & + < O a SXSXqX",
"qXNXmXc 3 l 3 9 W | [ ..8.q.q.y.y.5.a.u.Z.C.V.Z.Z.Z.Z.V.S.d.C.A.A.A.Z.Z.B.Z.Z.Z.Z.d.u.v.y.e.y.s.q.9.9.0.[ l.h.U h j h 3 p dXgXiX",
"qXZXCXv o.Q.!.Q g } [ q.q.8.q.q.y.m.y.5.V.S.u.n.Z.A.V.Z.Z.Z.A.F.F.B.B.C.J.Z.Z.V.n.u.n.b.y.y.y.s.a.[ e.8.[ 6.| Z h E._.E.z >X*XxX",
"rXmXsXk 1.E.1.H t } | 0...8.q.q.e.l.q.y.5.y.b.b.b.n.Z.v.Z.C.Z.D.V.B./.^.d.V.n.n.b.n.v.G.n.q.q.8.8.0.[ ] | } [ j A <.<.E.%.*X0XgX",
"jX2X.Xe +.P -.) J ) ] ] | `.e.8.0.8.b.m.s.y.y.m.y.y.5././.u.Z.a.V.n.u.i.s.b.n.y.y.y.4.e.e.q.e.0...7.] ] >.} ` I 1.$.F 2.e pXAXwX",
"jX2X.X: u S A 6 7 >.{ ] | h.| z.8.0.q.e.9.q.9.8.q.y.q.x.a.y.a.u.a./.a.y.y.b.i.z.q.q.q.q.8.p.W.] ..[ [ | | / ) 7 & F F A = rXAXwX",
"rXbXmXm X 1 < @ h ) / } m.| { { X.0.8.8.8...0.8.e.e.q.8.q.y.y.y.s.i.e.y.y.y.q.7.9.q.7.x.8.[ ' ] ] ' [ { h.| ) G # : r @ 5 5X5XgX",
"qXSXCXv o # + * %.) ) ) R ' ] ] ....8.8.O.] 8.8...8.q.q.q.q.y.y.q.9.q.q.q.q.q.q.9.8...' [ 8.] ] ' / ] / U E ( ~ 4 & & + p =X>XlX",
"sXpX7Xl Q :.H I H h.k.} ] ] ] ] ] ..] ] 8.0.8.8.9.0.8.4.4.q.q.q.q.q.9.9.9.q.q.8.e.e.....[ ] ] ] ] [ ] } / ) ( L j ) 1.U 4 +X<XgX",
"xX+X+Xe E.(.!.I 7 ) { >.{ } | [ | t.] | | [ | 6.8.0.q...8.y.8.w.w.0.M.0.8.8.8.w.7. .] r.8.] ' ..] ' } ) <._ ) G i k._.!.x $X>XzX",
"hXuX5X+.-.>.-.M 8 W ( } ) ) W  ./ / [ ] ] ] ] ] ]  . .[ [ [ [ 6.[ 8.[ w.l.w.] j.l.' ] ] ' } l.{ / >.W ` W ( ) t #.$.$.2.F =XuXfX",
"qXSXgX4 #.j U r 7 U E g.>.) _ ) { _ ..j.l.' } ] ] ] ' ] ] ] ] { ] | ] X.h.{ | / R _ { ) k.} } W _ W ) W ) ) U 8 S $.S U < pXSXqX",
"rXmXMXa * q , + t %.E $.U W 1.,.E _ ) >.>.) } { ,. ._ { } W.} } ' ) { } R { } g.W { ) W >.) W ) W ) W Q ,.:.U r X 0 q , > dXCXwX",
"gX2X0Xc X : : & F S 8 P E U P H W J E I I :.Q Y t Z ( ) Q J I E ) U 7 I R Y E I W J I U U E I P 8 J E H H H U #.3 @ @ . a 9X2XgX",
"zX=X3Xc T } J h I H Y J F H ! Q A F Z ) I I Z L U J H H Q W J G L Q I J u Z U Q G P J } J J j S Q j T Z Y R J Z h U :.J 5 =X>XzX",
"uXcXhXx 1.Q.Q.;.L ) '.E.I L W.'._ K I (.(.<.Y ~ _._._ J >.'.Q.-.Y } '.W.L L ,.(.1.~ ) Q.Q.) I ,.(.(.U P :._.E.I I k._.].@.pXDXiX",
"qXSXgXj V K ( V M +.>.F D A +.} L D N $.<.A K N %.;.u K N E W M P y %.F h K @.<.K M u :.<.+.+.h ;.( s +.M :.P M +.u ( -.F eXSXqX",
"qXBXlX> u +.+.< : V $.y O q M D y o w y +.q o y y +.w O r y #.6 = V M +.: : y M V X w +.V q o r q w < * s +.+.& : r j #.1 eXAXqX",
"qXAXAX Xo ; O . # = - X . # + - $ . X . + = + # ; % X X + o $ + . X ; : X X # ; O   # $ % $ . X ; = @ . = ; + . . = - X 5 CXAXwX",
"iXlXjX<X|. X;X6X0X<XOX2X2X8X=X.XOX<X6X6XOX<X=X+X X-X2X=XOXOXOX2X2X=XOXOX<X*XOX.X<X5X0X@XXX.X<X4XOXXX.X4X7X.X<X9X>X.X X=X0XzXzXiX",
"zX=X>X4X4XgXSXmX4X<XxXSXcX3X7X7X4XhXSXmX5X4X4X1XrXSXSXqX3X5X5X9XCXSXgX3X4X4X1XvXSXvX2X5X5X<XkXSXnX3X4X4X<XdXSXCX9X<XzXSXnX>X>XzX"
};
