/* XPM */
static char *_46b7b4940ac4b27c5e66398becde8109rXhJeaDDiUXLg5O[] = {
/* columns rows colors chars-per-pixel */
"64 64 256 2 ",
"   c #010101",
".  c #070707",
"X  c #160106",
"o  c #020C16",
"O  c #081413",
"+  c #121514",
"@  c #300614",
"#  c #182B0D",
"$  c #051531",
"%  c #31052B",
"&  c #112728",
"*  c #2D302F",
"=  c #233500",
"-  c #4F082B",
";  c #6D0B32",
":  c #4F292E",
">  c #67252A",
",  c #4C4636",
"<  c #517639",
"1  c #697838",
"2  c #333444",
"3  c #1B2965",
"4  c #5B0B46",
"5  c #71074C",
"6  c #681472",
"7  c #374B4F",
"8  c #0B7154",
"9  c #075078",
"0  c #077074",
"q  c #2F7273",
"w  c #2A625C",
"e  c #4B504F",
"r  c #625B59",
"t  c #4F6974",
"y  c #676F70",
"u  c #347A2A",
"i  c #871438",
"p  c #F86230",
"a  c #8E0947",
"s  c #AB0F53",
"d  c #B5274F",
"f  c #980776",
"g  c #AE0A74",
"h  c #CD3458",
"j  c #CA1473",
"k  c #EF0C6E",
"l  c #CF2F6D",
"z  c #FA3A7A",
"x  c #F02977",
"c  c #EB1D56",
"v  c #8B6059",
"b  c #D04B57",
"n  c #EF5156",
"m  c #F06B54",
"M  c #FA5271",
"N  c #F76D67",
"B  c #D4635B",
"V  c #B9463C",
"C  c #25973E",
"Z  c #71B031",
"A  c #609D2F",
"S  c #76D538",
"D  c #6DD53E",
"F  c #37B04B",
"G  c #099079",
"H  c #28A678",
"J  c #279259",
"K  c #4EB547",
"L  c #569D5B",
"P  c #27C976",
"I  c #56C94E",
"U  c #6BD34A",
"Y  c #75E546",
"T  c #5EC462",
"R  c #95B82C",
"E  c #F49739",
"W  c #F9B335",
"Q  c #D3A42C",
"!  c #B6EF12",
"~  c #8DD533",
"^  c #ADD82B",
"/  c #98E839",
"(  c #8DE634",
")  c #A6EB36",
"_  c #A8F436",
"`  c #B7F73A",
"'  c #B2ED29",
"]  c #97D213",
"[  c #CBF514",
"{  c #E9FF14",
"}  c #C7FA35",
"|  c #CBF82C",
" . c #E2F535",
".. c #E1D130",
"X. c #89B649",
"o. c #948751",
"O. c #FD9550",
"+. c #FEAA48",
"@. c #FDB251",
"#. c #FA906F",
"$. c #FDB26F",
"%. c #88D349",
"&. c #91E745",
"*. c #AAF042",
"=. c #A8C55D",
"-. c #FDC94B",
";. c #F2F64E",
":. c #FCD56D",
">. c #FFFC69",
",. c #FEE96F",
"<. c #2A33BA",
"1. c #1F3095",
"2. c #721192",
"3. c #5A1D9A",
"4. c #08508B",
"5. c #057488",
"6. c #1349B3",
"7. c #256BA5",
"8. c #4C788C",
"9. c #76668D",
"0. c #253CCA",
"q. c #1B3FC6",
"w. c #1951D0",
"e. c #2450CB",
"r. c #186ED4",
"t. c #166FF0",
"y. c #2360DA",
"u. c #625FC5",
"i. c #900D90",
"p. c #B10A89",
"a. c #93249F",
"s. c #F31884",
"d. c #FD3984",
"f. c #F42A87",
"g. c #D52385",
"h. c #FE4386",
"j. c #FD578A",
"k. c #EB5391",
"l. c #FC698A",
"z. c #FE7694",
"x. c #FA6D95",
"c. c #A548A4",
"v. c #06898C",
"b. c #0D928D",
"n. c #03B996",
"m. c #07A595",
"M. c #00B8A2",
"N. c #55849B",
"B. c #5A869C",
"V. c #5C899E",
"C. c #528196",
"Z. c #4A8487",
"A. c #638A9D",
"S. c #5D8BA1",
"D. c #5887A1",
"F. c #638EA3",
"G. c #688DA7",
"H. c #6591A5",
"J. c #6A93A6",
"K. c #6C95A9",
"L. c #6E98AB",
"P. c #6592A9",
"I. c #749AAD",
"U. c #799DAE",
"Y. c #7097A9",
"T. c #7A9FB1",
"R. c #749CB0",
"E. c #6E9CB4",
"W. c #7DA1B3",
"Q. c #79A3B7",
"!. c #79A3A8",
"~. c #7AA990",
"^. c #09CA91",
"/. c #1594E9",
"(. c #19AEF2",
"). c #279EE4",
"_. c #4EB7F5",
"`. c #17C7FC",
"'. c #19D8FE",
"]. c #0EC9FD",
"[. c #2CD1FC",
"{. c #1BE9FE",
"}. c #26E7FF",
"|. c #38F9FD",
" X c #29F4FA",
".X c #2EC9CC",
"XX c #4EF0FC",
"oX c #6CFCFC",
"OX c #49F0CE",
"+X c #7CF98B",
"@X c #8C8E8E",
"#X c #82A4B5",
"$X c #8CACBB",
"%X c #87A7B7",
"&X c #91AFBD",
"*X c #9DADB6",
"=X c #93B1BE",
"-X c #9AB3BF",
";X c #8CA8AE",
":X c #A4ACB1",
">X c #FD8A98",
",X c #FC90A5",
"<X c #FDADAE",
"1X c #FFAE9F",
"2X c #ACCB91",
"3X c #FEF08C",
"4X c #FCD3A9",
"5X c #95B3C1",
"6X c #9AB6C4",
"7X c #9DB9C6",
"8X c #9DBAC9",
"9X c #8CAEC2",
"0X c #A5BECA",
"qX c #A3BBC7",
"wX c #AABED2",
"eX c #ABC2CD",
"rX c #A7C0CC",
"tX c #B1C5CF",
"yX c #AFC5D1",
"uX c #A5C5D3",
"iX c #B1C6D1",
"pX c #B6C9D3",
"aX c #BBCDD6",
"sX c #BBCED8",
"dX c #BED1D9",
"fX c #90FCFE",
"gX c #ADFFFF",
"hX c #C4D4DC",
"jX c #C8D7DE",
"kX c #CAD8DF",
"lX c #C1D0D7",
"zX c #CDD6D1",
"xX c #F3DBCF",
"cX c #CCDAE1",
"vX c #C8D8E6",
"bX c #D2DEE4",
"nX c #D8DEE7",
"mX c #D5E1E6",
"MX c #DBE5EA",
"NX c #DBE6EB",
"BX c #D5ECF5",
"VX c #E3EBEE",
"CX c #EBEBEB",
"ZX c #E9EFF1",
"AX c #E7EDF1",
"SX c #EDF2F4",
"DX c #EFF8FC",
"FX c #F1F4F6",
"GX c #F3F6F9",
"HX c #F6F9FA",
"JX c white",
"KX c #FDFEFE",
"LX c #FEFEFE",
"PX c #FAF6F6",
"IX c #F3EFF0",
"UX c #E5E4D4",
/* pixels */
"hX7X6X5XiXhXcXhX7X7X5XiXhXcXkXqX7X6XiXjXcXhX6X7X5XaXjXkXpX5XhXjXhX7X6X6X6XsXhXaX5X6X5XrXhXjX0X6X5XrXjXkXjXrX5X6X0XkXcXhXeX5X6X8X",
"K.HXJXJXaXV.H.K.HXJXJXpXB.H.K.GXJXJXsXV.F.T.JXJXJX7XV.V.eXJXW.S.K.HXJXJXJXT.N.6XJXJXJXmXS.P.SXJXJXmXV.H.S.mXJXJXFXH.H.D.sXJXJXHX",
"R.SXKXKXpXF.K.I.SXKXKXpXF.K.I.SXKXKXsXF.K.#XKXKXKXqXF.F.eXKX#XF.I.SXJXJXHX#XS.7XKXHXKXbXF.I.AXKXKXbXH.L.P.bXKXKXZXL.K.F.aXKXKXSX",
"P.HXJXJXpXC.S.H.HXJXJXpXC.S.F.HXJXJXsXN.B.I.JXJXJX6XN.N.eXJXU.N.F.HXJXJXJXI.8.5XJXJXJXmXC.F.FXJXJXMXN.F.N.mXJXJXFXV.V.C.aXJXJXKX",
"sXrXrX0XiXaXdXsXeXrX0XiXaXdXdXeXrX0XiXaXsXaXrXrX0XpXsXsXpX0XpXaXaX0X0XrXrXpXaXaX0XrX0XeXsXdXeXrX0XeXsXdXsXiX0XrXrXsXdXaXiX0XrXrX",
"JXK.S.N.iXJXJXJXK.S.N.yXJXJXJXK.S.N.rXJXJXSXV.F.N.hXJXJXsXN.JXJXJXQ.S.A.S.VXJXmXN.F.N.&XJXJXU.V.N.$XJXJXJX=XN.S.R.JXJXJXrXN.F.H.",
"SXT.K.F.iXKXKXFXU.K.H.yXKXKXGXU.K.H.rXKXKXVXK.Y.F.hXJXJXdXJ.@Xe 7 7 A.R.I.GXJXkXH.I.H.5XKXHX#XJ.H.5XKXHXKX5XH.K.W.HXHXKXrXF.K.I.",
"KXK.V.N.eXJXJXJXJ.V.C.eXJXJXJXK.V.N.rXJXJXSXV.F.N.cXtX7 + o   : , X   o o y IXMXN.F.N.&XJXJXU.V.N.$XJXJXJX&XN.S.I.JXJXJXrXC.F.J.",
"7XhXjXhXiX5X6X7XhXhXhXiX5X7X7XhXjXhXpX-X6X7XhXlXkX@X  : v > B 3XxX$.> v v X & qXlXhXhXaX=X7XhXhXhXaX6X6X5XaXhXhXhX7X7X=XtXhXjXhX",
"J.HXJXJXaXN.F.J.KXJXJXaXN.F.H.HXJXJXsXB.S.U.JXJXPX. i <XxXN +.$.1X@.O.1XxXM X e JXJXJXbXN.F.FXJXJXMXV.F.D.mXJXJXFXF.F.N.aXJXJXKX",
"I.SXJXJXpXF.J.I.SXJXJXpXF.K.K.SXJXJXsXF.H.9XzXy * X x M n N +.#.>XO.O.N n M i   e @XJXmXA.K.AXJXJXbXF.K.F.bXJXJXZXK.K.F.aXJXJXFX",
"K.FXJXJXpXB.H.K.FXJXJXpXB.J.J.SXJXJXsXB.R.t   & 7 2 k x O.+.+.O.O.+.+.+.M s.i : :   e jXF.J.ZXJXJXbXV.J.V.bXJXJXSXJ.J.V.aXJXJXHX",
"MX$X#XW.iXVXVXNX$X#XT.iXVXVXVX$X#XW.eXVXlX  0 oXBX|.9.c @.@.+.+.+.+.+.-.m j c ,XxXl   r ZXVX=X#XW.7XVXVXVX7XW.#X$XVXVXVXeXW.#X$X",
"HXL.F.V.yXJXJXKXY.F.D.iXJXJXJXI.H.V.0XJX@Xo  XXX X X+X..c m 3X3X:.3X@.n p +.M z M j.a O PXJXW.F.S.5XJXJXJX5XS.F.R.JXJXJXrXB.H.J.",
"FXI.H.S.yXJXJXHXI.H.S.yXJXJXKXU.J.S.qXJXr $ '.}.OXOX` ;.:.@.:.:.-.,.@.$.,.-.m M l.d.s   UXJXU.H.F.5XJXJXJX5XF.H.Q.JXJXJXrXV.J.K.",
"SXU.J.F.eXHXHXSXU.K.F.yXHXHXFXU.K.K.sXKX@Xo /..X} | } -.,.>.W W -.E ;.>.:.+.W W O.k ; + FXJX$XJ.J.5XHXGXHX5XF.J.W.GXHXHXrXA.K.K.",
"W.VXSXSXpXL.U.W.VXSXSXpXK.U.U.NXGXZXy + .   G P ( ` ` Q E ,.>.>.>.>.>.-.p E +.+.m k @   + * :XKXSXcXK.U.K.jXSXSXNXU.U.K.pXSXSXSX",
"L.GXJXJXpXV.H.L.FXJXJXpXV.H.J.HXIX* O t Z.& G n.H | ` }  .W  .;.;.;...-.>.@.W m k k ; > v :   @XJXbXF.J.S.bXJXJXSXJ.H.S.sXJXJXJX",
"K.GXJXJXpXB.F.J.HXJXJXpXB.H.F.JXr O  XgXfX Xb.^.P T %.S ( } | |  .| | ..E E m n n k h z.xX>Xi   UXNXB.H.B.bXJXJXSXF.F.B.aXJXJXJX",
"%XMXVXVXiXU.#X%XMXVXVXiXU.#X$XkXX v.|.|.oXXXb.^.P G &./ ) } } } } } } ` ^ _ o.h n k l >Xl.z.h.X y NXU.#XT.hXVXVXmX#X#XT.pXVXVXVX",
"GXI.H.S.yXJXJXHXU.J.S.yXJXKXJXA.  /.'.|.|.|.4.G 5.0 %.*.*.` *.` } _ ) _ *._ L g j s j j.x.j.s.@ & 0XJXKXJX=XF.J.W.KXJXJXeXF.K.Y.",
"KXJ.S.N.eXJXJXJXJ.S.N.yXJXJXJXW.. 9 [. XfXfX).1.4.0 b.b.G &.` T H &.` T v.b.v.3 s g k.<Xz.M j . 7 uXJXJXJX$XB.V.I.JXJXJXrXN.F.H.",
"cX6X5X&XiXcXbXcX6X5X$XiXcXcXmXt   8 |.oXfXfX|.[.7.G ^.n.n.b.H T *.H H b.n.^.^.9 g.j.>X<X,Xl.b   & ;XMXbXbX0X&X=X7XbXbXbXtX$X5X=X",
"R.GXJXJXpXV.J.Y.GXJXJXpXV.R.t   v.}.|.XX|.|.oXgX).9 n.^.m.n.m.U } H M.m.n.^.v.3 ,X<Xl.z.x.j.M h @ + A.H.S.mXJXJXSXF.F.B.aXJXJXKX",
"ZX#XI.K.iXFXFXSX#XR.L.iXFXHX* 3  X}.|.|.XX|.XXfX[.6.4.4.9 v.v.5.5.5.m.4.9 9 3 j ,X<Xz.z.l.j.M j.l   t L.B.mXJXJXFXF.F.N.aXJXJXHX",
"GXI.H.S.eXJXJXHXI.P.S.yXJXFX+ 9 `.'.XXfXoX|.|.|.XX(.r.y.1.9 v.5.v.5.5.9 f g j j.z.l.z.z.<X,Xz z j   t 8X$XdXcXcXhX=X=X$XiXcXbXhX",
"KXJ.V.C.eXJXJXJXJ.S.C.rXJX@X  r.(.{.(._._.'.}. X X}.'.`.7.9 5.4.4.4.5.3 j h.h.j.l.j.j.d.k.k.z z s.- + IXJX$XV.S.I.JXJXJXrXN.H.H.",
"rXpXpXiXiXrXrXrXiXpXiXtXyXe o t.(.'.`./.`.'.'.{.'.'.'.}.[.w.1.6 6 6 6 g.l.j.d.z h.j.h.h.x x z z g.5   CXJX$XV.F.U.JXJXJXrXB.J.P.",
"P.KXJXJXpXC.S.H.KXJXJXpXD.t   4.y.e.`.{.'.'.'.'.'.[.[.[.fX_.r.2.p.f k x.x.d.j.d.d.d.h.h.d.h.j g g X * AXVX6XU.W.$XVXVXVXrXI.#XW.",
"I.SXJXJXpXS.J.I.SXJXJXpXP.t   r.t.r.r.r./.'.'.'.].XXXX].(.`.'.w.6.c.d.x x h.,Xd.d.d.d.x j j g j p.% & I.V.bXJXJXSXJ.J.S.aXJXJXJX",
"R.SXHXHXiXF.K.I.SXKXHXpXF.A.. 3 r.}.).w.w.(.`./.`.`.`.`./.(./.e.t.2.x g.g.d.d.d.x x d.g f p.f.g.4   7 R.F.bXJXJXSXK.K.F.aXJXJXJX",
"VX#XU.Y.yXSXSXAX#XU.L.eXSXFX:X+ . 5.r.u.c.0.w./././.r.r.e.e.e.e.<.i.f f g p.j x g.j f g f.p.g % . e A.F.B.mXJXJXFXF.F.N.aXJXJXJX",
"HXI.H.S.iXJXJXHXI.H.V.yXJXJXJXI.. 3 t.a.d.e.r. X).q.r.w.y.y.y.0.<.3.i.a.i.p.i.f x.k.i.g.f.p.i.  r dX=X5X&XhXbXmXcX%X#XW.iXmXmXMX",
"HXI.F.V.eXJXJXHXY.F.V.yXJXJXKXR.. 3 t.w.0.w.w.w.w.w.w.e.1.<.0.3.5 1.3.1.3.i.i.2.p.f i.2.2.i.2.. 7 6XJXJXJX$XV.F.R.JXJXJXrXB.J.P.",
"AX#XU.K.tXFXFXZXW.U.K.iXFXSXZX9X7   6.w.6.w.0.q.4.w.6.$ @ + o i a - o % + 3 i.6 3.2.3.3.3.3.%   8.7XKXHXKX5XH.J.W.KXJXJXeXF.I.K.",
"U.SXHXHXpXJ.L.U.SXHXHXaXH.I.I.SXZXe   o   $ 1.$   4.$   - ; @ a d ; - ; X   6 %   3 3         w S.$XJXJXJX&XB.S.U.JXJXJXrXN.H.S.",
"K.HXJXJXpXB.F.J.GXJXJXpXB.F.J.FXJXJX;X7 7 + . e r . & 2   - a d h i ; X o 7 . O 2 + . 7 9.9.#X5X#X0XmXmXmXqX$X$X5XmXmXbXeX%X$X$X",
"W.VXFXFXpXK.I.T.VXFXFXpXK.I.T.VXFXFXvXQ.Q.#XnXKXJX-XI.#Xt . X d h ;   7 *XQ.B.&XJXZXCXbXE.Q.GXJXJXmXV.H.V.mXJXJXSXH.F.B.aXJXJXJX",
"SXT.K.F.eXHXHXFXT.L.H.eXHXHXFXW.L.H.rXHXHXVXI.K.F.vXHXHXbXw X d h ; & JXKXJ.F.8XJXJXJXbXV.K.AXJXJXbXF.K.F.bXJXJXZXK.K.F.aXJXKXJX",
"GXI.J.V.eXJXJXHXI.H.S.eXJXJXHXU.J.S.rXJXJXAXH.J.S.hXJXJXvXw X b N ; & JXSXJ.N.6XJXJXJXmXN.F.SXJXJXmXB.F.N.mXJXJXFXF.F.N.aXJXJXJX",
"HXY.F.B.eXJXJXHXK.F.B.eXJXJXJXI.F.V.rXJXJXSXF.H.S.jXJXGXsXw X m $.; & NXbX#X$XrXmXbXbXhX$X&XcXmXmXhX$X&X$XhXbXmXcX&X&X$XpXbXmXmX",
"VX#XW.I.eXZXZXVX#XW.I.tXZXZXVX%XW.U.eXZXZXmXW.W.T.vX2X~ ^ Z X m $.i # ^ R ~ FXNXN.H.B.5XJXJXW.S.S.$XJXJXJX=XV.S.U.JXJXJXrXN.J.H.",
"I.SXJXJXpXF.K.I.FXJXJXpXF.K.L.SXJXJXsXF.J.#XKXJX2XX.R [ { R X m #.i = { { ' =.X.P.L.F.6XKXHXW.J.H.5XKXHXKX5XH.J.W.HXKXKXrXF.I.L.",
"R.FXJXJXpXS.K.I.FXJXJXpXS.K.L.SXJXJXsXF.J.#XJXzX%.[  .' | Z X m #.i # | ! ' [ ] L J.B.=XJXJXU.S.N.9XJXJXJX$XN.S.I.JXJXJXrXN.F.S.",
"K.GXJXJXpXB.H.K.GXJXJXpXB.F.J.FXJXJXsXB.F.%XbX] [ { [ ' / A X m #.i # ( ( ' [ [ ! L 9XrXjXkX7X5X5X0XjXjXhX0X=X5X7XhXhXhXeX=X6X5X",
"#XNXSXZXpXI.W.#XVXSXZXiXI.W.W.NXSXZXpXI.W.9XX.! | ' ' / Y u @ n N i . U Y _ ' | [ ] UXNXN.F.SXJXJXmXB.F.V.mXJXJXFXF.F.N.sXJXJXJX",
"FXU.J.F.eXJXJXGXU.K.F.iXJXKXHXT.K.F.yXJXJXnXZ ! | / ~ 1 < @ i b N d - , 1 A S ' ' ] 2XNXF.L.ZXJXJXbXH.L.H.bXJXJXSXK.K.F.aXJXKXJX",
"FXI.J.F.eXJXJXHXU.J.F.iXJXJXHXT.J.S.rXJXAXX.! ' | S > n b s d b n h d d n d < _ ' ' ^ ~.K.K.ZXJXJXbXF.K.F.bXJXJXSXK.K.F.aXJXKXJX",
"HXK.F.N.eXJXJXJXK.F.N.yXJXJXJXI.F.N.rXJXGXT ~ ) ) U , 4 ; b m h b h m i ; 4 A / ~ ( S !.J.F.SXJXJXmXB.H.S.mXJXJXFXF.F.N.aXJXJXJX",
"MX$X#X#XiXNXNXMX$X$X#XiXNXNXMX$X%X#XeXNXVXY.Z ` ' / U J v $.h a 5 s N #., I ( ) } ) L wX%X$XcXMXMXhX#X$X#XhXMXMXcX%X%X#XpXMXMXMX",
"K.GXJXJXpXV.H.K.GXJXJXaXV.H.K.FXJXJXsXV.G.L _ ~ S ' S v N d 4 7 w 2 5 B B A _ ( ~ ` Z W.JXJXU.V.V.=XJXJXJX&XV.F.R.JXJXJXrXV.J.P.",
"I.SXJXJXpXF.K.I.SXJXKXpXF.K.K.SXJXJXaXF.Y.q C S ' ( I > a 2 F I U I w 4 a < Y ` ) K 8 %XKXHXW.J.H.5XJXHXJX5XF.J.W.HXKXJXrXF.I.K.",
"H.HXJXJXpXC.A.F.KXJXJXpX8.S.F.HXJXJXsXN.F.G.q F ~ ) / K L I U U I ) Y K < U ) ) D C q 6XJXJXU.V.N.$XJXJXJX&XN.B.I.JXJXJXrXC.F.S.",
"0XsXdXsXiXqX0X0XsXhXsXtX7X0X0XsXdXaXiXqX0XtX8.8 &.S _ *.Y / U I %.) S U &.) ( ( K 8.=XeXdXhX0XqXqXeXsXhXsXeXqX0X0XdXdXsXtX7X0X0X",
"KXK.V.C.yXJXJXJXK.V.N.yXJXJXJXY.V.N.rXJXJXSXI.8.J I D / / / U U / D / &.*.~ I F q FXJXbXN.F.FXJXJXmXN.F.N.mXJXJXGXF.F.N.sXJXJXJX",
"SXU.K.F.yXKXKXFXU.K.F.iXKXKXGXU.J.F.eXKXKXVXJ.J.q 9 8 K &.U *.*./ &.&.U I C 8 w #XJXKXbXF.I.AXKXKXbXH.Y.F.bXKXKXZXK.K.F.aXKXKXKX",
"KXK.V.N.eXJXJXJXJ.V.N.eXJXJXJXY.A.B.rXJXJXSXA.F.B.pX;Xq 8 C I F F I K 8 q q 8.D.5XJXJXbXB.F.SXJXJXmXB.F.B.bXJXJXFXF.F.N.aXJXJXJX",
"6XhXcXcXiX&X6X6XhXcXkXiX=X5X6XhXcXkXpX=X5X7XkXcXkXeXqX%X%X;XZ.q 8 w q 8.%XcXbXcXdX=X=X0XcXcX7X5X=X0XkXkXkX0X=X5X7XcXcXcXyX&X5X5X",
"J.HXJXJXaXN.F.J.KXJXJXpXN.F.H.HXJXJXsXN.V.U.JXJXJX6XC.V.aXJXJXHXbXW.K.I.V.mXJXJXMXB.B.=XJXJXT.S.B.$XJXJXJX=XB.S.I.JXJXJXrXN.H.F.",
"I.SXJXJXpXF.J.I.SXJXJXpXA.K.L.SXJXJXsXF.J.W.KXJXJX7XF.F.eXKXKXJXJXI.H.J.F.mXJXJXmXF.F.5XJXKXW.H.H.=XJXKXJX5XF.J.W.KXJXJXrXF.K.K.",
"I.FXJXJXpXB.H.K.FXJXJXpXV.J.K.SXJXJXaXV.F.W.JXJXJX7XA.S.eXJXJXJXHXI.F.J.F.mXJXJXmXA.S.5XJXKXW.F.S.=XJXJXJX=XF.F.T.KXJXJXrXB.J.J.",
"NX$X#XT.yXVXVXVX%X#XT.iXVXVXVX$X#XT.eXVXVXmX#X#XT.sXVXVXpXU.#X#X#XMXVXVXVX=XW.W.7XVXVXjXT.#XmXVXVXjXU.#XW.hXVXVXmX#X#XU.pXVXVXNX",
"HXI.H.S.yXJXJXKXK.F.V.yXJXJXJXI.F.S.rXJXJXSXF.H.D.hXJXJXsXB.J.F.K.GXJXJXJX#XF.S.5XJXJXbXV.H.SXJXJXmXV.H.S.mXJXJXSXH.H.S.sXJXJXHX",
"FXU.K.F.yXJXJXGXI.K.S.yXJXJXHXT.P.F.rXJXJXVXJ.K.F.hXJXJXaXF.K.K.L.SXJXJXJX#XH.F.5XJXJXbXF.K.ZXJXJXbXF.K.F.bXJXJXZXK.K.S.aXJXJXFX"
};
