/* XPM */
static char *_3bd5ed6eb3446abcca3620c6409a10ctJXbZk1cTqCExsP1[] = {
/* columns rows colors chars-per-pixel */
"64 64 255 2 ",
"   c None",
".  c #010101",
"X  c #070807",
"o  c #160106",
"O  c #020C16",
"+  c #091413",
"@  c #131619",
"#  c #11130F",
"$  c #390418",
"%  c #26090F",
"&  c #182B0D",
"*  c #051531",
"=  c #330527",
"-  c #102728",
";  c #2F2E2D",
":  c #233500",
">  c #4F082B",
",  c #6D0B32",
"<  c #532A31",
"1  c #722F2F",
"2  c #45061B",
"3  c #347A2A",
"4  c #4C4636",
"5  c #517639",
"6  c #697838",
"7  c #06194D",
"8  c #05304D",
"9  c #333444",
"0  c #063872",
"q  c #313174",
"w  c #35166B",
"e  c #5B0B46",
"r  c #71074C",
"t  c #711171",
"y  c #581A73",
"u  c #3A4143",
"i  c #365256",
"p  c #0B7154",
"a  c #07577B",
"s  c #084B77",
"d  c #395B69",
"f  c #077074",
"g  c #367778",
"h  c #286F6B",
"j  c #216356",
"k  c #484642",
"l  c #4F6C73",
"z  c #5E696B",
"x  c #841636",
"c  c #8C103B",
"v  c #F2343A",
"b  c #80583D",
"n  c #F86230",
"m  c #880646",
"M  c #980C4A",
"N  c #AB0F53",
"B  c #B8264D",
"V  c #B32850",
"C  c #9B0576",
"Z  c #8B0E76",
"A  c #A5067B",
"S  c #B20C71",
"D  c #E8025C",
"F  c #CD3458",
"G  c #EE3951",
"H  c #CA1473",
"J  c #EF0C6E",
"K  c #CF2F6D",
"L  c #E9237C",
"P  c #F7297B",
"I  c #FA3A7A",
"U  c #EB3661",
"Y  c #8E615A",
"T  c #D54659",
"R  c #CB4F56",
"E  c #EF5156",
"W  c #EA675C",
"Q  c #F66F4C",
"!  c #FB5868",
"~  c #FC5077",
"^  c #F76D67",
"/  c #D4635B",
"(  c #24973E",
")  c #5B9139",
"_  c #6EAD2F",
"`  c #659F27",
"'  c #78D73A",
"]  c #72D235",
"[  c #6DD53E",
"{  c #279448",
"}  c #37B04B",
"|  c #099079",
" . c #28A678",
".. c #27916A",
"X. c #4EB547",
"o. c #549C59",
"O. c #27C976",
"+. c #5CC94A",
"@. c #4FC952",
"#. c #68D649",
"$. c #6DD04C",
"%. c #75E546",
"&. c #5EC462",
"*. c #95B82C",
"=. c #F49739",
"-. c #FDB83A",
";. c #F3AC2E",
":. c #D3A42C",
">. c #B6EF12",
",. c #8CD533",
"<. c #ADD82B",
"1. c #86E539",
"2. c #98E839",
"3. c #94E830",
"4. c #A5E82A",
"5. c #B5EB27",
"6. c #BBF329",
"7. c #A6EB36",
"8. c #A8F436",
"9. c #B7F73A",
"0. c #B1EF30",
"q. c #97D113",
"w. c #CAF81B",
"e. c #CDF20D",
"r. c #E9FF14",
"t. c #D6D52F",
"y. c #ECCC31",
"u. c #C6F62A",
"i. c #C7FA35",
"p. c #D0FB2F",
"a. c #E2F535",
"s. c #8FB441",
"d. c #948751",
"f. c #FC9752",
"g. c #FD934E",
"h. c #FEAA4A",
"j. c #FDA946",
"k. c #FEB84A",
"l. c #FDAE56",
"z. c #FA906F",
"x. c #FDB26F",
"c. c #88D349",
"v. c #98E744",
"b. c #8AE847",
"n. c #A4EA44",
"m. c #AFF441",
"M. c #A8C55D",
"N. c #FECA48",
"B. c #FAC454",
"V. c #F2F64E",
"C. c #FCD56D",
"Z. c #FFFC69",
"A. c #FEE96F",
"S. c #113790",
"D. c #133BA1",
"F. c #2A33BA",
"G. c #312590",
"H. c #4D188E",
"J. c #721192",
"K. c #49228B",
"L. c #6F16A7",
"P. c #5E27A2",
"I. c #015786",
"U. c #0D4B8E",
"Y. c #027889",
"T. c #0A6D87",
"R. c #1349B3",
"E. c #1B66B6",
"W. c #477387",
"Q. c #784C97",
"!. c #1B3FC6",
"~. c #253CCA",
"^. c #1B47C8",
"/. c #1957CC",
"(. c #1957D8",
"). c #1452D1",
"_. c #2450CB",
"`. c #1764C7",
"'. c #1977DA",
"]. c #186BD8",
"[. c #1D57E2",
"{. c #166FF0",
"}. c #2969D3",
"|. c #625FC5",
" X c #9A0686",
".X c #8B1094",
"XX c #B10A89",
"oX c #8B10A1",
"OX c #9C399E",
"+X c #D71988",
"@X c #F31884",
"#X c #D32D82",
"$X c #F92A88",
"%X c #FF3B83",
"&X c #FB3785",
"*X c #E42881",
"=X c #FE4386",
"-X c #FD578A",
";X c #EB5391",
":X c #FC698A",
">X c #FE7694",
",X c #FA6D95",
"<X c #A548A4",
"1X c #06898C",
"2X c #0D928D",
"3X c #03B996",
"4X c #07A595",
"5X c #00B8A2",
"6X c #4F838D",
"7X c #7AA1B4",
"8X c #6991A7",
"9X c #09CA91",
"0X c #7CF98B",
"qX c #1885D3",
"wX c #278EDC",
"eX c #1594E9",
"rX c #19AEF2",
"tX c #2DB6F7",
"yX c #2CA2DB",
"uX c #4EB7F5",
"iX c #17C7FC",
"pX c #19D8FE",
"aX c #0EC9FD",
"sX c #28D9FE",
"dX c #30C9FB",
"fX c #1AE5FE",
"gX c #1DF7FF",
"hX c #26E7FF",
"jX c #28FBFF",
"kX c #38F9FD",
"lX c #29EAF5",
"zX c #2EC9CC",
"xX c #49F0CE",
"cX c #4EF0FC",
"vX c #6CFCFC",
"bX c #88A5B5",
"nX c #95ADB6",
"mX c #FD8A98",
"MX c #FC90A5",
"NX c #FDA8AC",
"BX c #FEBDB6",
"VX c #FFAE9F",
"CX c #ABC58E",
"ZX c #FEF08C",
"AX c #FCD3A9",
"SX c #96FEFE",
"DX c #88FAFC",
"FX c #ADFFFF",
"GX c #B5D2D9",
"HX c #FFDAC6",
"JX c #CDDAE5",
"KX c #D5EDF1",
"LX c #FCFDFE",
"PX c #EBECED",
"IX c #FFE2C6",
/* pixels */
"                                                                                                                                ",
"                                                                                                                                ",
"                                                                                                                                ",
"                                                                                                                                ",
"                                                                                                                                ",
"                                                                                                                                ",
"                                                                u                                                               ",
"                                                      u @ O . ; 4 % . O O                                                       ",
"                                                    . < Y 1 / ZXIXx.1 b   o -                                                   ",
"                                                  X x NXHX^ l.x.VXl.f.VXIX  o                                                   ",
"                                                ; o P ! E Q h.z.mXf.f.! ! ~ x .                                                 ",
"                                            . - i 9 D P f.h.h.f.g.l.h.h.! @Xc < < .                                             ",
"                                          . f vXKXkXQ.F k.k.j.h.h.h.h.N.Q H U MXHXK .                                           ",
"                                          O jXcXjXgX0Xt.v Q ZXZXC.ZXl.G n j.! I ~ -Xm +                                         ",
"                                          * fXhXxXxXm.V.C.l.C.C.B.A.k.x.A.N.Q ! :X&XN .                                         ",
"                                          O eXzXp.p.u.l.C.Z.-.-.N.;.V.Z.C.j.-.y.g.J , #                                         ",
"                                      @ X . | O.2.9.9.:.=.A.Z.Z.Z.Z.Z.N.n =.j.j.Q J $ . @ ;                                     ",
"                                    O l 6X- | 3X .p.9.i.a.;.a.V.V.V.t.y.Z.k.-.Q D J , < Y > .                                   ",
"                                    lXFXSXkX2X9XO.&.c.' 1.i.p.p.a.p.p.t.=.=.Q E E D F >XHXmXx .                                 ",
"                                  1XkXkXvXcX2X9XO.| v.2.7.i.i.i.p.i.i.9.<.8.d.U U D K mX:X>X=Xo                                 ",
"                                . qXsXkXkXkXU.| Y.f c.m.n.9.n.9.i.8.7.8.v.8.o.S D N K -X,X-X@X$ -                               ",
"                                X s sXkXSXSXwXD.U.f 1X2X| v.9.&. .v.9.&.Y.1X1Xq N S ;XBX>X~ H X i                               ",
"                                . j kXvXSXvXkXdXE.| 9X3X3X2X .$.n. . .2X3X9X9Xs #X-XmXNXMX:XT . - bX                            ",
"                              . 1XlXkXcXkXkXvXFXyXa 3X9X4X3X4X$.i. .5X4X3X9X1Xq MXBX,X>X,X-X~ F $ @                             ",
"                            ; 8 jXhXkXkXcXkXcXDXdXR.U.I.s 1X1XY.Y.Y.4Xa s a q H MXNX>X>X:X-X~ ~ K . l                           ",
"                            # 0 iXpXcXSXvXkXkXkXcXtX}.}.S.a 1XY.1XT.Y.0 Z S H -X>X:X>X>XNXMXI I H . d                           ",
"                            . '.rXfXtXuXuXpXhXlXlXhXpXiXE.s T.I.I.I.T.q H =X=X-X:X-X-X&X;X;XI I +X> #                           ",
"                            O {.rXpXiXeXiXpXfXfXpXpXpXhXdX/.G.t t t t #X-X-X%XI =X-X=X=XL L I I +Xr .                           ",
"                            . U.[./.iXfXpXpXpXpXpXsXsXsXDXtX'.J. XC J ,X,X%X-X%X%X%X=X=X%X=XH S A o ;                           ",
"                            . `.{.'.`.'.qXpXpXpXaXcXcXaXtXiXpX`.R.OX&XP P =XMX%X&X%X%XL H H S H XX=                             ",
"                            X 8 `.hXeX(.).rXrXeXiXiXiXiXeXrXeX_.{.Q.P *X*X%X$X%XL L &XS A XX$X+Xe .                             ",
"                              # X T.].|.<X~./.wXeXeX'.'.^.^._._.F..XA C A XXH L #XH C S $XXXA = X                               ",
"                                X 7 {.OX&X_.'.jXwX!.].(.(.].(.~.F.L..XoX.XXX XC ,X;X X+X$XXX.X.                                 ",
"                                X 0 {.).~.).^./.).).^.^.D.F.F.H.r G.P.G.K.oX XJ.XXC .XL.J.oXJ..                                 ",
"                                u . R.^.^.^.~.!.U.[.R.7 $ @ O c M > O = % w oXt K.L.L.K.P.H.                                    ",
"                                  k . O . * D.7 . U.* . > , $ M V , 2 , o . w = . w w . . . .                                   ",
"                                      i i @ # k z X - 9 . > m V B c , o O u X + 9 # X u z                                       ",
"                                                  nX7XbXz X % V F , . u nX7X6XnXLXPXPX                                          ",
"                                                        JXd o V F , - LXLX                                                      ",
"                                                        JXd o R W , ; LX                                                        ",
"                                                        GXi o W x., - KXJXbX                                                    ",
"                                                    CX,.<.` o W x.x & <.s.,.                                                    ",
"                                                  s.*.e.r.*.o W z.x : r.r.5.M.s.                                                ",
"                                                c.e.a.4.u._ o W z.x & u.>.6.e.q.o.                                              ",
"                                              q.e.r.w.5.2.` o W z.x & 1.1.6.w.w.>.                                              ",
"                                              >.p.6.6.3.%.3 % E ^ c X #.%.8.5.u.w.q.                                            ",
"                                              >.u.2.,.6 5 % c T W B 2 4 6 ) ' 5.6.q.                                            ",
"                                            >.4.p.' 1 E T N B T E F V V E B 5 8.5.5.4.                                          ",
"                                            ,.0.7.$.4 e , R W F T F W x , e ) 2.3.3.]                                           ",
"                                              9.0.2.#.{ Y x.F m r N ^ z.4 @.1.7.i.4.                                            ",
"                                            8.,.] 5.' b ^ V e i j 9 r / / ) 8.3.,.9._                                           ",
"                                            ( ' 6.2.+.1 m 9 } +.#.@.j e m 5 %.0.4.X.                                            ",
"                                            h } ,.7.2.X.) @.#.$.+.7.%.X.5 $.7.7.[ {                                             ",
"                                              j b.' 8.m.%.2.$.+.c.4.' #.b.8.3.1.X.                                              ",
"                                              W.{ @.[ 2.2.2.+.$.2.] 2.v.m.1.+.} g PX                                            ",
"                                                g a p X.b.#.n.m.2.v.b.#.+.{ p j bXLX                                            ",
"                                                    nXg p ( +.} } +.X.p g g W.8X                                                ",
"                                                      bXbXbX6Xg p h h W.bX                                                      ",
"                                                                JX7X8X                                                          ",
"                                                                                                                                ",
"                                                                                                                                ",
"                                                                                                                                ",
"                                                                                                                                ",
"                                                                                                                                "
};
